<svg xmlns="http://www.w3.org/2000/svg" viewBox="0 0 1600 900" width="1600" height="900" role="img" aria-label="Кадр видеооблёта типового проекта 2. Иллюстративная визуализация" preserveAspectRatio="xMidYMid slice">
  <defs>
    <linearGradient id="sky" x1="0" y1="0" x2="0" y2="1">
      <stop offset="0" stop-color="#8FA6B4"/>
      <stop offset="0.55" stop-color="#C3CEcd"/>
      <stop offset="1" stop-color="#E4E3D8"/>
    </linearGradient>
    <radialGradient id="sunHalo" cx="0.66" cy="0.3" r="0.9">
      <stop offset="0" stop-color="#FFFFFF" stop-opacity="0.34"/>
      <stop offset="0.5" stop-color="#FFFFFF" stop-opacity="0.1"/>
      <stop offset="1" stop-color="#FFFFFF" stop-opacity="0"/>
    </radialGradient>
    <radialGradient id="sun" cx="0.66" cy="0.3" r="0.3">
      <stop offset="0" stop-color="#FFFFFF" stop-opacity="0.6"/>
      <stop offset="0.35" stop-color="#FFFFFF" stop-opacity="0.2"/>
      <stop offset="0.72" stop-color="#FFFFFF" stop-opacity="0.05"/>
      <stop offset="1" stop-color="#FFFFFF" stop-opacity="0"/>
    </radialGradient>
  </defs>
  <rect width="1600" height="648" fill="url(#sky)"/>
  <rect width="1600" height="648" fill="url(#sunHalo)"/>
  <rect width="1600" height="648" fill="url(#sun)"/><path d="M -40.0 648.0 L -40.0 583.2 Q -18.2 540.9 3.7 603.6 Q 16.7 568.7 29.8 607.0 Q 58.1 566.6 86.5 621.6 Q 108.0 503.2 129.6 548.8 Q 158.2 585.6 186.7 608.8 Q 205.9 577.2 225.0 599.0 Q 250.9 502.6 276.7 569.8 Q 307.1 571.7 337.5 615.2 Q 364.8 496.4 392.0 539.1 Q 409.9 584.1 427.7 603.1 Q 451.5 562.6 475.3 610.6 Q 495.1 565.2 515.0 624.6 Q 546.7 541.2 578.5 572.4 Q 602.4 539.8 626.3 613.9 Q 653.5 524.7 680.7 569.0 Q 704.1 552.6 727.5 616.8 Q 744.7 516.1 762.0 595.4 Q 786.0 559.7 810.1 602.4 Q 831.4 560.9 852.7 596.2 Q 866.5 549.1 880.3 578.9 Q 909.4 523.5 938.6 566.3 Q 959.4 508.5 980.3 561.3 Q 1013.2 555.6 1046.1 604.4 Q 1062.7 588.5 1079.3 606.7 Q 1104.7 557.7 1130.1 613.7 Q 1147.9 517.4 1165.6 596.6 Q 1198.0 540.1 1230.4 613.6 Q 1259.5 523.5 1288.6 583.9 Q 1304.4 576.6 1320.2 601.9 Q 1348.6 528.6 1377.0 582.4 Q 1402.0 496.9 1426.9 541.4 Q 1444.1 528.2 1461.3 598.0 Q 1475.8 502.4 1490.3 579.6 Q 1516.4 511.0 1542.5 571.3 Q 1569.6 519.1 1596.7 559.7 Q 1624.5 585.7 1652.2 622.6 L 1652.2 648.0 Z" fill="#4B5A4C" opacity="0.45"/><path d="M -61.5 648.0 L -61.5 599.4 Q -18.7 530.9 24.1 583.3 Q 67.4 589.1 110.6 621.9 Q 130.8 595.6 150.9 632.0 Q 187.4 550.1 223.9 582.1 Q 263.0 558.1 302.0 619.4 Q 344.6 538.9 387.3 614.9 Q 433.4 574.3 479.5 607.7 Q 518.4 564.9 557.4 589.1 Q 582.5 549.8 607.6 618.4 Q 634.7 555.5 661.8 618.9 Q 695.1 600.9 728.4 629.8 Q 759.8 581.9 791.2 605.8 Q 816.5 546.5 841.8 601.9 Q 892.3 561.3 942.7 605.0 Q 967.7 540.2 992.7 615.6 Q 1037.6 587.4 1082.5 623.2 Q 1128.1 545.6 1173.8 614.7 Q 1219.2 583.7 1264.7 629.3 Q 1314.4 591.7 1364.2 629.2 Q 1411.1 584.7 1457.9 619.4 Q 1478.6 555.3 1499.2 621.4 Q 1543.0 580.8 1586.8 607.9 Q 1634.6 591.7 1682.3 631.8 L 1682.3 648.0 Z" fill="#33422F" opacity="0.8"/><defs><linearGradient id="ground" x1="0" y1="0" x2="0" y2="1">
    <stop offset="0" stop-color="#7F8E5F"/><stop offset="1" stop-color="#9EAA76"/>
  </linearGradient></defs>
  <rect y="648.0" width="1600" height="252.0" fill="url(#ground)"/><rect x="400.0" y="198.0" width="256.0" height="450.0" fill="#1E2626"/><rect x="400.0" y="198.0" width="66.6" height="450.0" fill="#000" opacity="0.2"/><rect x="420.5" y="261.0" width="215.0" height="45.0" fill="#B8C7C2" opacity="0.55"/><rect x="420.5" y="344.3" width="215.0" height="45.0" fill="#B8C7C2" opacity="0.55"/><rect x="420.5" y="427.5" width="215.0" height="45.0" fill="#B8C7C2" opacity="0.55"/><rect x="420.5" y="510.8" width="215.0" height="45.0" fill="#B8C7C2" opacity="0.55"/><rect x="392.3" y="187.2" width="271.4" height="10.8" fill="#C79A5E" opacity="0.85"/><rect x="672.0" y="270.0" width="256.0" height="378.0" fill="#242D2C"/><rect x="672.0" y="270.0" width="66.6" height="378.0" fill="#000" opacity="0.2"/><rect x="692.5" y="322.9" width="215.0" height="45.0" fill="#B8C7C2" opacity="0.55"/><rect x="692.5" y="416.2" width="215.0" height="45.0" fill="#B8C7C2" opacity="0.55"/><rect x="692.5" y="509.4" width="215.0" height="45.0" fill="#B8C7C2" opacity="0.55"/><rect x="664.3" y="259.2" width="271.4" height="10.8" fill="#C79A5E" opacity="0.85"/><rect x="944.0" y="324.0" width="256.0" height="324.0" fill="#1E2626"/><rect x="944.0" y="324.0" width="66.6" height="324.0" fill="#000" opacity="0.2"/><rect x="964.5" y="369.4" width="215.0" height="45.0" fill="#B8C7C2" opacity="0.55"/><rect x="964.5" y="449.3" width="215.0" height="45.0" fill="#B8C7C2" opacity="0.55"/><rect x="964.5" y="449.3" width="87.0" height="45.0" fill="#F2C58C" opacity="0.7"/><rect x="964.5" y="529.2" width="215.0" height="45.0" fill="#B8C7C2" opacity="0.55"/><rect x="936.3" y="313.2" width="271.4" height="10.8" fill="#C79A5E" opacity="0.85"/><ellipse cx="800.0" cy="675.0" rx="576.0" ry="25.2" fill="#2A331F" opacity="0.32"/><rect x="1513.8" y="660.7" width="5.2" height="1.2" fill="#606D40" opacity="0.34" rx="1"/><rect x="856.0" y="812.0" width="5.6" height="3.0" fill="#606D40" opacity="0.14" rx="1"/><rect x="730.6" y="732.5" width="5.8" height="2.0" fill="#606D40" opacity="0.23" rx="1"/><rect x="630.9" y="663.7" width="7.4" height="1.2" fill="#606D40" opacity="0.13" rx="1"/><rect x="510.5" y="697.1" width="4.5" height="1.6" fill="#606D40" opacity="0.21" rx="1"/><rect x="68.3" y="676.0" width="9.9" height="1.3" fill="#606D40" opacity="0.31" rx="1"/><rect x="468.8" y="853.0" width="13.1" height="3.4" fill="#606D40" opacity="0.25" rx="1"/><rect x="778.3" y="723.2" width="5.0" height="1.9" fill="#606D40" opacity="0.29" rx="1"/><rect x="1451.6" y="849.2" width="5.6" height="3.4" fill="#606D40" opacity="0.12" rx="1"/><rect x="700.3" y="802.6" width="5.7" height="2.8" fill="#606D40" opacity="0.19" rx="1"/><rect x="627.1" y="842.0" width="4.9" height="3.3" fill="#606D40" opacity="0.18" rx="1"/><rect x="1127.9" y="834.5" width="17.4" height="3.2" fill="#606D40" opacity="0.36" rx="1"/><rect x="126.0" y="759.6" width="11.1" height="2.3" fill="#606D40" opacity="0.29" rx="1"/><rect x="1427.7" y="886.1" width="7.1" height="3.8" fill="#606D40" opacity="0.34" rx="1"/><rect x="837.3" y="685.6" width="3.6" height="1.4" fill="#606D40" opacity="0.26" rx="1"/><rect x="851.9" y="829.2" width="8.0" height="3.2" fill="#606D40" opacity="0.29" rx="1"/><rect x="707.0" y="779.5" width="13.5" height="2.6" fill="#606D40" opacity="0.16" rx="1"/><rect x="1142.7" y="665.1" width="4.8" height="1.2" fill="#606D40" opacity="0.19" rx="1"/><rect x="1202.0" y="818.6" width="16.9" height="3.0" fill="#606D40" opacity="0.18" rx="1"/><rect x="601.2" y="886.6" width="11.9" height="3.8" fill="#606D40" opacity="0.28" rx="1"/><rect x="1490.0" y="660.9" width="7.2" height="1.2" fill="#606D40" opacity="0.15" rx="1"/><rect x="967.5" y="689.8" width="5.0" height="1.5" fill="#606D40" opacity="0.36" rx="1"/><rect x="118.9" y="688.5" width="8.8" height="1.5" fill="#606D40" opacity="0.28" rx="1"/><rect x="614.2" y="812.6" width="3.2" height="3.0" fill="#606D40" opacity="0.22" rx="1"/><rect x="1188.3" y="720.4" width="3.4" height="1.9" fill="#606D40" opacity="0.25" rx="1"/><rect x="497.9" y="868.1" width="16.5" height="3.6" fill="#606D40" opacity="0.14" rx="1"/><rect x="201.0" y="648.9" width="5.3" height="1.0" fill="#606D40" opacity="0.31" rx="1"/><rect x="188.5" y="714.2" width="10.8" height="1.8" fill="#606D40" opacity="0.23" rx="1"/><rect x="90.7" y="751.6" width="12.7" height="2.2" fill="#606D40" opacity="0.19" rx="1"/><rect x="163.6" y="815.1" width="10.3" height="3.0" fill="#606D40" opacity="0.13" rx="1"/><rect x="915.7" y="851.4" width="14.5" height="3.4" fill="#606D40" opacity="0.14" rx="1"/><rect x="1575.1" y="711.9" width="10.0" height="1.8" fill="#606D40" opacity="0.17" rx="1"/><rect x="883.7" y="822.6" width="13.8" height="3.1" fill="#606D40" opacity="0.31" rx="1"/><rect x="916.5" y="713.0" width="6.9" height="1.8" fill="#606D40" opacity="0.36" rx="1"/><rect x="679.9" y="822.0" width="13.7" height="3.1" fill="#606D40" opacity="0.37" rx="1"/><rect x="1222.0" y="815.1" width="14.8" height="3.0" fill="#606D40" opacity="0.13" rx="1"/><rect x="478.2" y="756.7" width="10.8" height="2.3" fill="#606D40" opacity="0.36" rx="1"/><rect x="561.8" y="879.0" width="13.7" height="3.8" fill="#606D40" opacity="0.28" rx="1"/><rect x="415.0" y="797.8" width="5.9" height="2.8" fill="#606D40" opacity="0.35" rx="1"/><rect x="481.0" y="888.5" width="16.2" height="3.9" fill="#606D40" opacity="0.22" rx="1"/><rect x="983.1" y="765.6" width="12.9" height="2.4" fill="#606D40" opacity="0.37" rx="1"/><rect x="313.8" y="686.9" width="5.6" height="1.5" fill="#606D40" opacity="0.16" rx="1"/><rect x="852.8" y="853.6" width="11.3" height="3.4" fill="#606D40" opacity="0.14" rx="1"/><rect x="431.5" y="710.0" width="8.7" height="1.7" fill="#606D40" opacity="0.25" rx="1"/><rect x="1571.5" y="653.2" width="3.9" height="1.1" fill="#606D40" opacity="0.35" rx="1"/><rect x="1205.1" y="767.8" width="11.8" height="2.4" fill="#606D40" opacity="0.23" rx="1"/><rect x="1495.6" y="734.0" width="10.7" height="2.0" fill="#606D40" opacity="0.28" rx="1"/><rect x="304.6" y="802.0" width="13.1" height="2.8" fill="#606D40" opacity="0.37" rx="1"/><rect x="959.6" y="845.6" width="10.5" height="3.4" fill="#606D40" opacity="0.13" rx="1"/><rect x="1056.8" y="751.0" width="9.8" height="2.2" fill="#606D40" opacity="0.28" rx="1"/><rect x="155.2" y="808.7" width="8.8" height="2.9" fill="#606D40" opacity="0.28" rx="1"/><rect x="932.8" y="804.4" width="13.9" height="2.9" fill="#606D40" opacity="0.16" rx="1"/><rect x="406.1" y="737.0" width="12.8" height="2.1" fill="#606D40" opacity="0.14" rx="1"/><rect x="97.1" y="868.4" width="14.3" height="3.6" fill="#606D40" opacity="0.36" rx="1"/><rect x="1191.4" y="780.3" width="15.6" height="2.6" fill="#606D40" opacity="0.35" rx="1"/><rect x="1355.4" y="735.1" width="8.7" height="2.0" fill="#606D40" opacity="0.13" rx="1"/><rect x="474.5" y="729.2" width="7.6" height="2.0" fill="#606D40" opacity="0.32" rx="1"/><rect x="918.3" y="714.7" width="5.6" height="1.8" fill="#606D40" opacity="0.13" rx="1"/><rect x="26.1" y="731.4" width="11.1" height="2.0" fill="#606D40" opacity="0.20" rx="1"/><rect x="1034.4" y="846.2" width="11.5" height="3.4" fill="#606D40" opacity="0.36" rx="1"/><rect x="1478.2" y="792.6" width="15.3" height="2.7" fill="#606D40" opacity="0.18" rx="1"/><rect x="445.5" y="693.3" width="9.6" height="1.5" fill="#606D40" opacity="0.29" rx="1"/><rect x="1232.7" y="705.1" width="3.7" height="1.7" fill="#606D40" opacity="0.25" rx="1"/><rect x="665.2" y="818.2" width="3.9" height="3.0" fill="#606D40" opacity="0.12" rx="1"/><rect x="973.7" y="702.8" width="5.8" height="1.7" fill="#606D40" opacity="0.16" rx="1"/><rect x="505.7" y="802.9" width="3.3" height="2.8" fill="#606D40" opacity="0.33" rx="1"/><rect x="149.4" y="775.2" width="13.8" height="2.5" fill="#606D40" opacity="0.25" rx="1"/><rect x="590.5" y="838.1" width="17.5" height="3.3" fill="#606D40" opacity="0.13" rx="1"/><rect x="441.2" y="773.2" width="12.0" height="2.5" fill="#606D40" opacity="0.33" rx="1"/><rect x="1390.5" y="654.8" width="6.9" height="1.1" fill="#606D40" opacity="0.30" rx="1"/><rect x="562.3" y="769.9" width="7.6" height="2.5" fill="#606D40" opacity="0.27" rx="1"/><rect x="1442.2" y="850.0" width="6.7" height="3.4" fill="#606D40" opacity="0.14" rx="1"/><rect x="484.7" y="813.5" width="14.9" height="3.0" fill="#606D40" opacity="0.28" rx="1"/><rect x="1502.4" y="838.0" width="8.8" height="3.3" fill="#606D40" opacity="0.20" rx="1"/><rect x="297.9" y="716.5" width="7.7" height="1.8" fill="#606D40" opacity="0.14" rx="1"/><rect x="823.7" y="878.4" width="18.1" height="3.7" fill="#606D40" opacity="0.35" rx="1"/><rect x="1211.4" y="671.5" width="5.3" height="1.3" fill="#606D40" opacity="0.23" rx="1"/><rect x="245.7" y="835.3" width="17.2" height="3.2" fill="#606D40" opacity="0.24" rx="1"/><rect x="1281.8" y="862.4" width="6.8" height="3.6" fill="#606D40" opacity="0.35" rx="1"/><rect x="1525.5" y="715.7" width="4.8" height="1.8" fill="#606D40" opacity="0.20" rx="1"/><rect x="481.0" y="678.5" width="7.0" height="1.4" fill="#606D40" opacity="0.34" rx="1"/><rect x="1570.5" y="899.6" width="5.3" height="4.0" fill="#606D40" opacity="0.20" rx="1"/><rect x="1570.2" y="748.1" width="10.1" height="2.2" fill="#606D40" opacity="0.20" rx="1"/><rect x="149.4" y="666.0" width="4.4" height="1.2" fill="#606D40" opacity="0.27" rx="1"/><rect x="418.8" y="657.5" width="5.6" height="1.1" fill="#606D40" opacity="0.17" rx="1"/><rect x="631.9" y="761.2" width="10.5" height="2.3" fill="#606D40" opacity="0.32" rx="1"/><rect x="10.7" y="814.8" width="7.6" height="3.0" fill="#606D40" opacity="0.20" rx="1"/><rect x="1446.2" y="872.6" width="16.4" height="3.7" fill="#606D40" opacity="0.32" rx="1"/><rect x="1219.6" y="703.7" width="11.4" height="1.7" fill="#606D40" opacity="0.36" rx="1"/><rect x="173.6" y="769.2" width="13.9" height="2.4" fill="#606D40" opacity="0.34" rx="1"/><g opacity="0.045"><circle cx="991.0" cy="6.6" r="1.9" fill="#FFFFFF" opacity="0.34"/><circle cx="1221.4" cy="13.2" r="1.7" fill="#FFFFFF" opacity="0.26"/><circle cx="1440.5" cy="446.9" r="1.4" fill="#FFFFFF" opacity="0.40"/><circle cx="198.5" cy="616.3" r="0.7" fill="#FFFFFF" opacity="0.44"/><circle cx="999.1" cy="595.8" r="0.7" fill="#FFFFFF" opacity="0.32"/><circle cx="521.9" cy="832.1" r="1.1" fill="#FFFFFF" opacity="0.32"/><circle cx="466.9" cy="681.7" r="0.7" fill="#FFFFFF" opacity="0.03"/><circle cx="1349.1" cy="5.1" r="2.1" fill="#FFFFFF" opacity="0.10"/><circle cx="96.8" cy="659.3" r="1.4" fill="#FFFFFF" opacity="0.02"/><circle cx="1178.8" cy="610.3" r="1.7" fill="#FFFFFF" opacity="0.18"/><circle cx="1442.9" cy="48.9" r="0.8" fill="#FFFFFF" opacity="0.05"/><circle cx="214.6" cy="131.6" r="1.1" fill="#FFFFFF" opacity="0.37"/><circle cx="6.0" cy="688.6" r="0.8" fill="#FFFFFF" opacity="0.10"/><circle cx="1136.5" cy="327.4" r="0.7" fill="#FFFFFF" opacity="0.47"/><circle cx="238.3" cy="275.5" r="1.2" fill="#FFFFFF" opacity="0.46"/><circle cx="1174.1" cy="682.3" r="2.0" fill="#FFFFFF" opacity="0.12"/><circle cx="269.0" cy="65.1" r="2.0" fill="#FFFFFF" opacity="0.29"/><circle cx="335.9" cy="213.6" r="1.2" fill="#FFFFFF" opacity="0.33"/><circle cx="1229.0" cy="440.4" r="1.3" fill="#FFFFFF" opacity="0.14"/><circle cx="874.8" cy="534.5" r="2.1" fill="#FFFFFF" opacity="0.37"/><circle cx="1560.5" cy="451.7" r="1.3" fill="#FFFFFF" opacity="0.24"/><circle cx="669.7" cy="61.5" r="0.7" fill="#FFFFFF" opacity="0.27"/><circle cx="1429.8" cy="394.6" r="1.4" fill="#FFFFFF" opacity="0.00"/><circle cx="397.4" cy="550.7" r="1.4" fill="#FFFFFF" opacity="0.43"/><circle cx="334.4" cy="154.1" r="1.8" fill="#FFFFFF" opacity="0.39"/><circle cx="826.6" cy="401.5" r="1.4" fill="#FFFFFF" opacity="0.36"/><circle cx="1342.7" cy="668.8" r="1.2" fill="#FFFFFF" opacity="0.22"/><circle cx="1347.4" cy="857.3" r="1.0" fill="#FFFFFF" opacity="0.17"/><circle cx="251.3" cy="214.9" r="0.7" fill="#FFFFFF" opacity="0.19"/><circle cx="728.1" cy="376.5" r="1.3" fill="#FFFFFF" opacity="0.12"/><circle cx="1168.9" cy="316.7" r="1.1" fill="#FFFFFF" opacity="0.25"/><circle cx="1129.9" cy="583.6" r="1.9" fill="#FFFFFF" opacity="0.29"/><circle cx="1401.1" cy="246.9" r="1.7" fill="#FFFFFF" opacity="0.46"/><circle cx="833.0" cy="667.2" r="1.8" fill="#FFFFFF" opacity="0.40"/><circle cx="582.9" cy="722.0" r="1.8" fill="#FFFFFF" opacity="0.19"/><circle cx="1232.3" cy="119.4" r="1.6" fill="#FFFFFF" opacity="0.31"/><circle cx="971.8" cy="113.9" r="1.0" fill="#FFFFFF" opacity="0.06"/><circle cx="309.8" cy="399.1" r="1.7" fill="#FFFFFF" opacity="0.28"/><circle cx="1239.4" cy="227.3" r="1.5" fill="#FFFFFF" opacity="0.31"/><circle cx="1527.5" cy="465.8" r="1.9" fill="#FFFFFF" opacity="0.16"/><circle cx="616.9" cy="724.5" r="1.0" fill="#FFFFFF" opacity="0.06"/><circle cx="1326.3" cy="857.9" r="1.4" fill="#FFFFFF" opacity="0.43"/><circle cx="861.0" cy="838.5" r="1.5" fill="#FFFFFF" opacity="0.34"/><circle cx="1515.6" cy="342.7" r="1.5" fill="#FFFFFF" opacity="0.49"/><circle cx="629.4" cy="648.0" r="1.5" fill="#FFFFFF" opacity="0.38"/><circle cx="939.8" cy="117.2" r="0.8" fill="#FFFFFF" opacity="0.37"/><circle cx="990.1" cy="1.8" r="1.6" fill="#FFFFFF" opacity="0.15"/><circle cx="109.1" cy="59.3" r="1.8" fill="#FFFFFF" opacity="0.46"/><circle cx="1400.9" cy="862.2" r="1.7" fill="#FFFFFF" opacity="0.41"/><circle cx="1505.4" cy="133.9" r="2.0" fill="#FFFFFF" opacity="0.48"/><circle cx="1579.5" cy="21.1" r="0.9" fill="#FFFFFF" opacity="0.23"/><circle cx="417.9" cy="221.8" r="1.7" fill="#FFFFFF" opacity="0.29"/><circle cx="158.0" cy="191.0" r="1.7" fill="#FFFFFF" opacity="0.28"/><circle cx="290.3" cy="599.5" r="1.4" fill="#FFFFFF" opacity="0.48"/><circle cx="648.6" cy="371.7" r="2.0" fill="#FFFFFF" opacity="0.42"/><circle cx="986.7" cy="524.0" r="0.8" fill="#FFFFFF" opacity="0.47"/><circle cx="584.8" cy="366.6" r="1.7" fill="#FFFFFF" opacity="0.10"/><circle cx="1227.9" cy="832.4" r="2.0" fill="#FFFFFF" opacity="0.04"/><circle cx="141.3" cy="508.2" r="1.5" fill="#FFFFFF" opacity="0.05"/><circle cx="823.0" cy="825.1" r="0.8" fill="#FFFFFF" opacity="0.36"/><circle cx="686.8" cy="545.5" r="1.0" fill="#FFFFFF" opacity="0.29"/><circle cx="861.4" cy="710.3" r="0.8" fill="#FFFFFF" opacity="0.19"/><circle cx="308.4" cy="567.5" r="1.9" fill="#FFFFFF" opacity="0.24"/><circle cx="1332.2" cy="437.3" r="1.4" fill="#FFFFFF" opacity="0.30"/><circle cx="347.0" cy="840.7" r="1.0" fill="#FFFFFF" opacity="0.29"/><circle cx="1298.6" cy="683.1" r="0.9" fill="#FFFFFF" opacity="0.02"/><circle cx="677.5" cy="428.6" r="1.1" fill="#FFFFFF" opacity="0.27"/><circle cx="634.8" cy="479.2" r="1.2" fill="#FFFFFF" opacity="0.21"/><circle cx="434.2" cy="607.5" r="1.8" fill="#FFFFFF" opacity="0.17"/><circle cx="1446.0" cy="467.1" r="1.3" fill="#FFFFFF" opacity="0.04"/><circle cx="1050.8" cy="814.2" r="1.1" fill="#FFFFFF" opacity="0.24"/><circle cx="802.7" cy="763.5" r="0.6" fill="#FFFFFF" opacity="0.13"/><circle cx="1521.5" cy="307.6" r="2.1" fill="#FFFFFF" opacity="0.06"/><circle cx="53.1" cy="307.7" r="1.4" fill="#FFFFFF" opacity="0.11"/><circle cx="1019.6" cy="839.7" r="1.7" fill="#FFFFFF" opacity="0.29"/><circle cx="814.1" cy="15.4" r="1.8" fill="#FFFFFF" opacity="0.40"/><circle cx="1233.2" cy="1.1" r="1.8" fill="#FFFFFF" opacity="0.49"/><circle cx="815.7" cy="301.7" r="1.6" fill="#FFFFFF" opacity="0.19"/><circle cx="1375.3" cy="14.7" r="1.4" fill="#FFFFFF" opacity="0.31"/><circle cx="226.0" cy="617.6" r="1.3" fill="#FFFFFF" opacity="0.33"/><circle cx="352.2" cy="842.8" r="1.4" fill="#FFFFFF" opacity="0.16"/><circle cx="1129.3" cy="816.0" r="1.0" fill="#FFFFFF" opacity="0.46"/><circle cx="937.8" cy="599.6" r="1.2" fill="#FFFFFF" opacity="0.44"/><circle cx="1500.5" cy="360.1" r="0.8" fill="#FFFFFF" opacity="0.13"/><circle cx="0.4" cy="622.8" r="1.6" fill="#FFFFFF" opacity="0.21"/><circle cx="1003.3" cy="47.0" r="1.8" fill="#FFFFFF" opacity="0.41"/><circle cx="233.7" cy="419.1" r="1.7" fill="#FFFFFF" opacity="0.17"/><circle cx="350.0" cy="804.5" r="1.0" fill="#FFFFFF" opacity="0.45"/><circle cx="473.4" cy="198.3" r="1.1" fill="#FFFFFF" opacity="0.11"/><circle cx="810.1" cy="386.0" r="2.0" fill="#FFFFFF" opacity="0.27"/><circle cx="890.8" cy="228.5" r="2.1" fill="#FFFFFF" opacity="0.45"/><circle cx="1065.5" cy="278.1" r="1.4" fill="#FFFFFF" opacity="0.30"/><circle cx="970.9" cy="242.3" r="1.7" fill="#FFFFFF" opacity="0.01"/><circle cx="194.1" cy="144.9" r="1.7" fill="#FFFFFF" opacity="0.26"/><circle cx="1475.1" cy="733.9" r="1.2" fill="#FFFFFF" opacity="0.06"/><circle cx="273.1" cy="90.9" r="1.8" fill="#FFFFFF" opacity="0.50"/><circle cx="1367.4" cy="547.3" r="1.2" fill="#FFFFFF" opacity="0.30"/><circle cx="958.8" cy="278.9" r="1.7" fill="#FFFFFF" opacity="0.24"/><circle cx="976.4" cy="83.7" r="1.7" fill="#FFFFFF" opacity="0.09"/><circle cx="678.5" cy="83.6" r="1.4" fill="#FFFFFF" opacity="0.06"/><circle cx="744.5" cy="651.2" r="1.6" fill="#FFFFFF" opacity="0.47"/><circle cx="762.2" cy="342.9" r="0.7" fill="#FFFFFF" opacity="0.34"/><circle cx="1512.9" cy="713.1" r="0.9" fill="#FFFFFF" opacity="0.31"/><circle cx="907.1" cy="169.3" r="0.6" fill="#FFFFFF" opacity="0.18"/><circle cx="273.0" cy="481.1" r="1.4" fill="#FFFFFF" opacity="0.43"/><circle cx="1081.0" cy="568.6" r="0.6" fill="#FFFFFF" opacity="0.31"/><circle cx="1463.5" cy="265.9" r="1.7" fill="#FFFFFF" opacity="0.13"/><circle cx="1099.7" cy="859.0" r="1.2" fill="#FFFFFF" opacity="0.29"/><circle cx="208.8" cy="202.1" r="2.0" fill="#FFFFFF" opacity="0.37"/><circle cx="1165.5" cy="837.7" r="2.1" fill="#FFFFFF" opacity="0.05"/><circle cx="1486.8" cy="157.8" r="1.9" fill="#FFFFFF" opacity="0.39"/><circle cx="1380.5" cy="896.1" r="1.6" fill="#FFFFFF" opacity="0.26"/><circle cx="1405.3" cy="171.6" r="1.5" fill="#FFFFFF" opacity="0.00"/><circle cx="909.6" cy="423.3" r="1.4" fill="#FFFFFF" opacity="0.49"/><circle cx="1557.2" cy="811.4" r="1.2" fill="#FFFFFF" opacity="0.10"/><circle cx="136.5" cy="518.0" r="1.7" fill="#FFFFFF" opacity="0.13"/><circle cx="756.8" cy="820.2" r="1.4" fill="#FFFFFF" opacity="0.02"/><circle cx="1059.2" cy="44.3" r="1.4" fill="#FFFFFF" opacity="0.45"/><circle cx="1195.2" cy="701.0" r="0.6" fill="#FFFFFF" opacity="0.31"/><circle cx="977.3" cy="362.2" r="1.0" fill="#FFFFFF" opacity="0.11"/><circle cx="372.5" cy="404.7" r="1.5" fill="#FFFFFF" opacity="0.46"/><circle cx="1358.1" cy="9.6" r="1.5" fill="#FFFFFF" opacity="0.43"/><circle cx="1116.3" cy="523.5" r="1.1" fill="#FFFFFF" opacity="0.16"/><circle cx="1350.2" cy="596.0" r="1.3" fill="#FFFFFF" opacity="0.30"/><circle cx="1596.5" cy="875.5" r="2.0" fill="#FFFFFF" opacity="0.02"/><circle cx="585.2" cy="561.5" r="0.6" fill="#FFFFFF" opacity="0.27"/><circle cx="780.2" cy="208.9" r="1.7" fill="#FFFFFF" opacity="0.16"/><circle cx="747.3" cy="173.4" r="0.9" fill="#FFFFFF" opacity="0.16"/><circle cx="1536.6" cy="480.1" r="1.4" fill="#FFFFFF" opacity="0.16"/><circle cx="1107.5" cy="237.8" r="0.6" fill="#FFFFFF" opacity="0.13"/><circle cx="908.2" cy="769.6" r="0.7" fill="#FFFFFF" opacity="0.35"/><circle cx="253.1" cy="135.7" r="1.1" fill="#FFFFFF" opacity="0.22"/><circle cx="1343.3" cy="894.8" r="1.2" fill="#FFFFFF" opacity="0.37"/><circle cx="973.6" cy="717.1" r="1.4" fill="#FFFFFF" opacity="0.06"/><circle cx="811.2" cy="302.5" r="1.0" fill="#FFFFFF" opacity="0.12"/><circle cx="236.2" cy="104.7" r="1.1" fill="#FFFFFF" opacity="0.00"/><circle cx="911.4" cy="879.9" r="0.9" fill="#FFFFFF" opacity="0.37"/><circle cx="682.8" cy="70.9" r="1.2" fill="#FFFFFF" opacity="0.41"/><circle cx="1313.8" cy="226.9" r="1.3" fill="#FFFFFF" opacity="0.20"/><circle cx="1462.0" cy="579.1" r="1.7" fill="#FFFFFF" opacity="0.14"/><circle cx="1327.9" cy="571.1" r="1.3" fill="#FFFFFF" opacity="0.28"/><circle cx="871.6" cy="41.3" r="1.4" fill="#FFFFFF" opacity="0.35"/><circle cx="1225.6" cy="426.2" r="1.3" fill="#FFFFFF" opacity="0.03"/><circle cx="745.1" cy="307.6" r="0.8" fill="#FFFFFF" opacity="0.31"/><circle cx="288.4" cy="305.0" r="1.1" fill="#FFFFFF" opacity="0.28"/><circle cx="261.6" cy="145.9" r="1.3" fill="#FFFFFF" opacity="0.20"/><circle cx="632.5" cy="274.7" r="1.4" fill="#FFFFFF" opacity="0.34"/><circle cx="709.7" cy="89.8" r="0.9" fill="#FFFFFF" opacity="0.15"/><circle cx="1191.5" cy="880.2" r="1.3" fill="#FFFFFF" opacity="0.32"/><circle cx="586.3" cy="387.0" r="1.7" fill="#FFFFFF" opacity="0.40"/><circle cx="501.1" cy="600.6" r="1.5" fill="#FFFFFF" opacity="0.24"/><circle cx="53.7" cy="469.1" r="2.0" fill="#FFFFFF" opacity="0.13"/><circle cx="1161.3" cy="421.8" r="1.4" fill="#FFFFFF" opacity="0.27"/><circle cx="903.0" cy="774.2" r="2.0" fill="#FFFFFF" opacity="0.18"/><circle cx="6.9" cy="651.6" r="1.9" fill="#FFFFFF" opacity="0.17"/><circle cx="972.6" cy="392.3" r="1.2" fill="#FFFFFF" opacity="0.34"/><circle cx="1077.0" cy="844.6" r="1.0" fill="#FFFFFF" opacity="0.39"/><circle cx="715.7" cy="276.6" r="0.7" fill="#FFFFFF" opacity="0.27"/><circle cx="81.6" cy="740.4" r="1.6" fill="#FFFFFF" opacity="0.18"/><circle cx="1020.6" cy="894.3" r="1.8" fill="#FFFFFF" opacity="0.23"/><circle cx="717.0" cy="237.8" r="2.0" fill="#FFFFFF" opacity="0.41"/><circle cx="1196.0" cy="820.7" r="0.6" fill="#FFFFFF" opacity="0.15"/><circle cx="665.0" cy="83.2" r="1.9" fill="#FFFFFF" opacity="0.47"/><circle cx="1020.9" cy="250.6" r="1.7" fill="#FFFFFF" opacity="0.39"/><circle cx="1244.4" cy="241.7" r="1.4" fill="#FFFFFF" opacity="0.03"/><circle cx="816.5" cy="628.8" r="2.0" fill="#FFFFFF" opacity="0.23"/><circle cx="987.3" cy="643.4" r="0.8" fill="#FFFFFF" opacity="0.41"/><circle cx="1189.4" cy="651.2" r="0.8" fill="#FFFFFF" opacity="0.35"/><circle cx="995.3" cy="836.1" r="1.0" fill="#FFFFFF" opacity="0.09"/><circle cx="1513.8" cy="665.1" r="1.2" fill="#FFFFFF" opacity="0.25"/><circle cx="1531.5" cy="381.7" r="1.4" fill="#FFFFFF" opacity="0.43"/><circle cx="1581.9" cy="691.3" r="1.2" fill="#FFFFFF" opacity="0.43"/><circle cx="1532.4" cy="805.4" r="1.3" fill="#FFFFFF" opacity="0.24"/><circle cx="1047.8" cy="850.9" r="1.4" fill="#FFFFFF" opacity="0.45"/><circle cx="1411.4" cy="687.9" r="1.4" fill="#FFFFFF" opacity="0.47"/><circle cx="1243.7" cy="227.9" r="1.1" fill="#FFFFFF" opacity="0.11"/><circle cx="765.0" cy="898.0" r="1.6" fill="#FFFFFF" opacity="0.04"/><circle cx="1589.5" cy="730.9" r="1.0" fill="#FFFFFF" opacity="0.42"/><circle cx="1381.5" cy="607.6" r="1.8" fill="#FFFFFF" opacity="0.33"/><circle cx="1149.1" cy="377.6" r="0.8" fill="#FFFFFF" opacity="0.27"/><circle cx="1504.4" cy="554.4" r="2.0" fill="#FFFFFF" opacity="0.38"/><circle cx="1093.8" cy="785.4" r="1.5" fill="#FFFFFF" opacity="0.06"/><circle cx="914.1" cy="307.6" r="1.4" fill="#FFFFFF" opacity="0.32"/><circle cx="712.4" cy="430.4" r="1.4" fill="#FFFFFF" opacity="0.17"/><circle cx="182.9" cy="43.2" r="1.1" fill="#FFFFFF" opacity="0.20"/><circle cx="936.6" cy="553.7" r="1.6" fill="#FFFFFF" opacity="0.03"/><circle cx="794.9" cy="283.1" r="0.7" fill="#FFFFFF" opacity="0.08"/><circle cx="1391.8" cy="411.3" r="1.3" fill="#FFFFFF" opacity="0.34"/><circle cx="79.5" cy="868.8" r="1.1" fill="#FFFFFF" opacity="0.14"/><circle cx="330.3" cy="560.2" r="0.7" fill="#FFFFFF" opacity="0.28"/></g><g font-family="ui-monospace, 'Cascadia Mono', Consolas, monospace" opacity="0.9">
    <rect x="1182.4" y="810.4" width="382.4" height="54.4" rx="27.2" fill="rgba(250,248,244,0.72)"/>
    <text x="1373.6" y="847.4" text-anchor="middle" fill="#2A302C" font-size="27.2" letter-spacing="1.6">HOUSE-VIZ-VIDEO-02</text>
  </g></svg>