<svg xmlns="http://www.w3.org/2000/svg" viewBox="0 0 1400 1400" width="1400" height="1400" role="img" aria-label="Схема участка №8: границы, отступы и зона застройки" font-family="'TT Commons Pro',-apple-system,BlinkMacSystemFont,'Segoe UI',Roboto,'Helvetica Neue',Arial,sans-serif"><title>Схема участка №8: границы, отступы и зона застройки</title><defs><pattern id="h-build" patternUnits="userSpaceOnUse" width="9" height="9" patternTransform="rotate(45)"><line x1="0" y1="0" x2="0" y2="9" stroke="#a8814f" stroke-width="1.1" opacity=".5"/></pattern><pattern id="h-sold" patternUnits="userSpaceOnUse" width="7" height="7" patternTransform="rotate(45)"><line x1="0" y1="0" x2="0" y2="7" stroke="#7c8279" stroke-width="1" opacity=".45"/></pattern><pattern id="h-forest" patternUnits="userSpaceOnUse" width="14" height="14"><circle cx="4" cy="4" r="1.5" fill="#9fb188" opacity=".55"/><circle cx="11" cy="10" r="1.1" fill="#9fb188" opacity=".4"/></pattern><pattern id="h-water" patternUnits="userSpaceOnUse" width="26" height="12"><path d="M0 6q6.5 -3 13 0t13 0" fill="none" stroke="#7d939b" stroke-width="1" opacity=".35"/></pattern></defs><rect width="1400" height="1400" fill="#faf8f4"/><rect x="394.38568913480884" y="960.387323943662" width="611.2286217303823" height="164.61267605633805" fill="#ece6db"/><line x1="394.38568913480884" y1="1125" x2="1005.6143108651911" y2="1125" stroke="#cfc6b6" stroke-width="1.2"/><line x1="394.38568913480884" y1="1042.693661971831" x2="1005.6143108651911" y2="1042.693661971831" stroke="#cfc6b6" stroke-width="1" stroke-dasharray="14 12"/><text x="700" y="1151" font-size="11.5" fill="#7c8279" text-anchor="middle" font-weight="400" letter-spacing="2">ПРОЕЗД</text><rect x="434.38568913480884" y="190" width="531.2286217303823" height="770.387323943662" fill="#ffffff" stroke="#2c332e" stroke-width="2"/><rect x="504.9339788732394" y="260.5482897384306" width="390.13204225352104" height="582.258551307847" fill="#a8814f" opacity=".10"/><rect x="504.9339788732394" y="260.5482897384306" width="390.13204225352104" height="582.258551307847" fill="url(#h-build)"/><rect x="504.9339788732394" y="260.5482897384306" width="390.13204225352104" height="582.258551307847" fill="none" stroke="#a8814f" stroke-width="1.6" stroke-dasharray="9 6"/><circle cx="434.38568913480884" cy="190" r="4.5" fill="#faf8f4" stroke="#2c332e" stroke-width="1.8"/><circle cx="965.6143108651911" cy="190" r="4.5" fill="#faf8f4" stroke="#2c332e" stroke-width="1.8"/><circle cx="434.38568913480884" cy="960.387323943662" r="4.5" fill="#faf8f4" stroke="#2c332e" stroke-width="1.8"/><circle cx="965.6143108651911" cy="960.387323943662" r="4.5" fill="#faf8f4" stroke="#2c332e" stroke-width="1.8"/><line x1="434.38568913480884" y1="190" x2="434.38568913480884" y2="138" stroke="#c6bfb1" stroke-width="1"/><line x1="965.6143108651911" y1="190" x2="965.6143108651911" y2="138" stroke="#c6bfb1" stroke-width="1"/><line x1="434.38568913480884" y1="144" x2="965.6143108651911" y2="144" stroke="#c6bfb1" stroke-width="1"/><line x1="428.88568913480884" y1="149.5" x2="439.88568913480884" y2="138.5" stroke="#5a615a" stroke-width="1.3"/><line x1="960.1143108651911" y1="149.5" x2="971.1143108651911" y2="138.5" stroke="#5a615a" stroke-width="1.3"/><rect x="667.56" y="122.258" width="64.88" height="18.900000000000002" fill="#faf8f4"/><text x="700" y="137" font-size="14" fill="#5a615a" text-anchor="middle" font-weight="400">22,59 м</text><line x1="434.38568913480884" y1="190" x2="376.38568913480884" y2="190" stroke="#c6bfb1" stroke-width="1"/><line x1="434.38568913480884" y1="960.387323943662" x2="376.38568913480884" y2="960.387323943662" stroke="#c6bfb1" stroke-width="1"/><line x1="382.38568913480884" y1="190" x2="382.38568913480884" y2="960.387323943662" stroke="#c6bfb1" stroke-width="1"/><line x1="376.88568913480884" y1="195.5" x2="387.88568913480884" y2="184.5" stroke="#5a615a" stroke-width="1.3"/><line x1="376.88568913480884" y1="965.887323943662" x2="387.88568913480884" y2="954.887323943662" stroke="#5a615a" stroke-width="1.3"/><g transform="translate(382.38568913480884,575.193661971831) rotate(-90)"><rect x="-32.44" y="-21.742000000000004" width="64.88" height="18.900000000000002" fill="#faf8f4"/><text x="0" y="-7" font-size="14" fill="#5a615a" text-anchor="middle" font-weight="400">32,76 м</text></g><line x1="434.38568913480884" y1="575.193661971831" x2="504.9339788732394" y2="575.193661971831" stroke="#7d5c2c" stroke-width="1"/><path d="M434.38568913480884 575.193661971831 l5.5 -2.6 l0 5.2 Z" fill="#7d5c2c"/><path d="M504.9339788732394 575.193661971831 l-5.5 -2.6 l0 5.2 Z" fill="#7d5c2c"/><rect x="461.1598340040241" y="556.031161971831" width="17" height="16.875" fill="#faf8f4"/><text x="469.6598340040241" y="569.193661971831" font-size="12.5" fill="#7d5c2c" text-anchor="middle" font-weight="400">3</text><line x1="895.0660211267605" y1="575.193661971831" x2="965.6143108651911" y2="575.193661971831" stroke="#7d5c2c" stroke-width="1"/><path d="M895.0660211267605 575.193661971831 l5.5 -2.6 l0 5.2 Z" fill="#7d5c2c"/><path d="M965.6143108651911 575.193661971831 l-5.5 -2.6 l0 5.2 Z" fill="#7d5c2c"/><rect x="921.8401659959758" y="556.031161971831" width="17" height="16.875" fill="#faf8f4"/><text x="930.3401659959758" y="569.193661971831" font-size="12.5" fill="#7d5c2c" text-anchor="middle" font-weight="400">3</text><line x1="700" y1="190" x2="700" y2="260.5482897384306" stroke="#7d5c2c" stroke-width="1"/><path d="M700 190 l-2.6 5.5 l5.2 0 Z" fill="#7d5c2c"/><path d="M700 260.5482897384306 l-2.6 -5.5 l5.2 0 Z" fill="#7d5c2c"/><g transform="translate(700,225.2741448692153) rotate(-90)"><rect x="-8.5" y="-19.1625" width="17" height="16.875" fill="#faf8f4"/><text x="0" y="-6" font-size="12.5" fill="#7d5c2c" text-anchor="middle" font-weight="400">3</text></g><line x1="700" y1="842.8068410462777" x2="700" y2="960.387323943662" stroke="#7d5c2c" stroke-width="1"/><path d="M700 842.8068410462777 l-2.6 5.5 l5.2 0 Z" fill="#7d5c2c"/><path d="M700 960.387323943662 l-2.6 -5.5 l5.2 0 Z" fill="#7d5c2c"/><g transform="translate(700,901.5970824949698) rotate(-90)"><rect x="-8.5" y="-19.1625" width="17" height="16.875" fill="#faf8f4"/><text x="0" y="-6" font-size="12.5" fill="#7d5c2c" text-anchor="middle" font-weight="400">5</text></g><text x="700" y="547.6775653923542" font-size="12.5" fill="#7d5c2c" text-anchor="middle" font-weight="700" letter-spacing="1.6">ЗОНА ЗАСТРОЙКИ</text><text x="700" y="569.6775653923542" font-size="15" fill="#7d5c2c" text-anchor="middle" font-weight="400">411 м²</text><rect x="22" y="22" width="1356" height="1356" fill="none" stroke="#ddd6c9" stroke-width="1"/><text x="60" y="92" font-size="27" fill="#2c332e" text-anchor="start" font-weight="600" font-family="'TT Ramillas','Playfair Display',Georgia,'Times New Roman',serif">Участок №8</text><text x="60" y="116" font-size="14.5" fill="#5a615a" text-anchor="start" font-weight="400">7,4 сот · 740 м² · ИЖС</text><text x="60" y="138" font-size="12" fill="#7c8279" text-anchor="start" font-weight="400">Кадастровый номер: 59:32:2840789:189</text><g transform="translate(1282,108)"><path d="M0 -20 L8.4 14.399999999999999 L0 6.800000000000001 Z" fill="#a8814f"/><path d="M0 -20 L-8.4 14.399999999999999 L0 6.800000000000001 Z" fill="none" stroke="#7d5c2c" stroke-width="1.2"/><text x="0" y="-28" font-size="13" fill="#7d5c2c" text-anchor="middle" font-weight="700" letter-spacing="0.5">С</text></g><text x="60" y="1176" font-size="11.5" fill="#7c8279" text-anchor="start" font-weight="600" letter-spacing="1.2">ОБОЗНАЧЕНИЯ</text><rect x="60" y="1190" width="20" height="13" fill="#ffffff" stroke="#2c332e" stroke-width="1"/><text x="90" y="1200" font-size="13.5" fill="#5a615a" text-anchor="start" font-weight="400">Границы участка</text><rect x="60" y="1216" width="20" height="13" fill="none" stroke="#a8814f" stroke-width="1" stroke-dasharray="5 4"/><rect x="60" y="1216" width="20" height="13" fill="url(#h-build)"/><text x="90" y="1226" font-size="13.5" fill="#5a615a" text-anchor="start" font-weight="400">Где допускается дом</text><rect x="60" y="1242" width="20" height="13" fill="#ece6db" stroke="#cfc6b6" stroke-width="1"/><text x="90" y="1252" font-size="13.5" fill="#5a615a" text-anchor="start" font-weight="400">Проезд</text><rect x="60" y="1308" width="235.16096579476863" height="7" fill="#5a615a" stroke="#5a615a" stroke-width="1"/><rect x="295.16096579476863" y="1308" width="235.16096579476863" height="7" fill="#faf8f4" stroke="#5a615a" stroke-width="1"/><text x="60" y="1330" font-size="12" fill="#7c8279" text-anchor="middle" font-weight="400">0</text><text x="295.16096579476863" y="1330" font-size="12" fill="#7c8279" text-anchor="middle" font-weight="400">10</text><text x="530.3219315895373" y="1330" font-size="12" fill="#7c8279" text-anchor="middle" font-weight="400">20 м</text><text x="1340" y="1308" font-size="12" fill="#7c8279" text-anchor="end" font-weight="400">Отступы демонстрационные и подлежат</text><text x="1340" y="1327" font-size="12" fill="#7c8279" text-anchor="end" font-weight="400">уточнению по ГПЗУ, ПЗЗ и техусловиям.</text></svg>