<svg xmlns="http://www.w3.org/2000/svg" viewBox="0 0 1400 1400" width="1400" height="1400" role="img" aria-label="Схема участка №37: границы, отступы и зона застройки" font-family="'TT Commons Pro',-apple-system,BlinkMacSystemFont,'Segoe UI',Roboto,'Helvetica Neue',Arial,sans-serif"><title>Схема участка №37: границы, отступы и зона застройки</title><defs><pattern id="h-build" patternUnits="userSpaceOnUse" width="9" height="9" patternTransform="rotate(45)"><line x1="0" y1="0" x2="0" y2="9" stroke="#a8814f" stroke-width="1.1" opacity=".5"/></pattern><pattern id="h-sold" patternUnits="userSpaceOnUse" width="7" height="7" patternTransform="rotate(45)"><line x1="0" y1="0" x2="0" y2="7" stroke="#7c8279" stroke-width="1" opacity=".45"/></pattern><pattern id="h-forest" patternUnits="userSpaceOnUse" width="14" height="14"><circle cx="4" cy="4" r="1.5" fill="#9fb188" opacity=".55"/><circle cx="11" cy="10" r="1.1" fill="#9fb188" opacity=".4"/></pattern><pattern id="h-water" patternUnits="userSpaceOnUse" width="26" height="12"><path d="M0 6q6.5 -3 13 0t13 0" fill="none" stroke="#7d939b" stroke-width="1" opacity=".35"/></pattern></defs><rect width="1400" height="1400" fill="#faf8f4"/><rect x="389.14512808783167" y="975.2973467520585" width="621.7097438243367" height="149.70265324794144" fill="#ece6db"/><line x1="389.14512808783167" y1="1125" x2="1010.8548719121684" y2="1125" stroke="#cfc6b6" stroke-width="1.2"/><line x1="389.14512808783167" y1="1050.1486733760291" x2="1010.8548719121684" y2="1050.1486733760291" stroke="#cfc6b6" stroke-width="1" stroke-dasharray="14 12"/><text x="700" y="1151" font-size="11.5" fill="#7c8279" text-anchor="middle" font-weight="400" letter-spacing="2">ПРОЕЗД</text><rect x="429.14512808783167" y="190" width="541.7097438243367" height="785.2973467520585" fill="#ffffff" stroke="#2c332e" stroke-width="2"/><rect x="493.3034080512351" y="254.15827996340346" width="413.39318389752975" height="614.2086001829825" fill="#a8814f" opacity=".10"/><rect x="493.3034080512351" y="254.15827996340346" width="413.39318389752975" height="614.2086001829825" fill="url(#h-build)"/><rect x="493.3034080512351" y="254.15827996340346" width="413.39318389752975" height="614.2086001829825" fill="none" stroke="#a8814f" stroke-width="1.6" stroke-dasharray="9 6"/><circle cx="429.14512808783167" cy="190" r="4.5" fill="#faf8f4" stroke="#2c332e" stroke-width="1.8"/><circle cx="970.8548719121684" cy="190" r="4.5" fill="#faf8f4" stroke="#2c332e" stroke-width="1.8"/><circle cx="429.14512808783167" cy="975.2973467520585" r="4.5" fill="#faf8f4" stroke="#2c332e" stroke-width="1.8"/><circle cx="970.8548719121684" cy="975.2973467520585" r="4.5" fill="#faf8f4" stroke="#2c332e" stroke-width="1.8"/><line x1="429.14512808783167" y1="190" x2="429.14512808783167" y2="138" stroke="#c6bfb1" stroke-width="1"/><line x1="970.8548719121684" y1="190" x2="970.8548719121684" y2="138" stroke="#c6bfb1" stroke-width="1"/><line x1="429.14512808783167" y1="144" x2="970.8548719121684" y2="144" stroke="#c6bfb1" stroke-width="1"/><line x1="423.64512808783167" y1="149.5" x2="434.64512808783167" y2="138.5" stroke="#5a615a" stroke-width="1.3"/><line x1="965.3548719121684" y1="149.5" x2="976.3548719121684" y2="138.5" stroke="#5a615a" stroke-width="1.3"/><rect x="667.56" y="122.258" width="64.88" height="18.900000000000002" fill="#faf8f4"/><text x="700" y="137" font-size="14" fill="#5a615a" text-anchor="middle" font-weight="400">25,33 м</text><line x1="429.14512808783167" y1="190" x2="371.14512808783167" y2="190" stroke="#c6bfb1" stroke-width="1"/><line x1="429.14512808783167" y1="975.2973467520585" x2="371.14512808783167" y2="975.2973467520585" stroke="#c6bfb1" stroke-width="1"/><line x1="377.14512808783167" y1="190" x2="377.14512808783167" y2="975.2973467520585" stroke="#c6bfb1" stroke-width="1"/><line x1="371.64512808783167" y1="195.5" x2="382.64512808783167" y2="184.5" stroke="#5a615a" stroke-width="1.3"/><line x1="371.64512808783167" y1="980.7973467520585" x2="382.64512808783167" y2="969.7973467520585" stroke="#5a615a" stroke-width="1.3"/><g transform="translate(377.14512808783167,582.6486733760293) rotate(-90)"><rect x="-32.44" y="-21.742000000000004" width="64.88" height="18.900000000000002" fill="#faf8f4"/><text x="0" y="-7" font-size="14" fill="#5a615a" text-anchor="middle" font-weight="400">36,72 м</text></g><line x1="429.14512808783167" y1="582.6486733760293" x2="493.3034080512351" y2="582.6486733760293" stroke="#7d5c2c" stroke-width="1"/><path d="M429.14512808783167 582.6486733760293 l5.5 -2.6 l0 5.2 Z" fill="#7d5c2c"/><path d="M493.3034080512351 582.6486733760293 l-5.5 -2.6 l0 5.2 Z" fill="#7d5c2c"/><rect x="452.7242680695334" y="563.4861733760292" width="17" height="16.875" fill="#faf8f4"/><text x="461.2242680695334" y="576.6486733760293" font-size="12.5" fill="#7d5c2c" text-anchor="middle" font-weight="400">3</text><line x1="906.6965919487649" y1="582.6486733760293" x2="970.8548719121684" y2="582.6486733760293" stroke="#7d5c2c" stroke-width="1"/><path d="M906.6965919487649 582.6486733760293 l5.5 -2.6 l0 5.2 Z" fill="#7d5c2c"/><path d="M970.8548719121684 582.6486733760293 l-5.5 -2.6 l0 5.2 Z" fill="#7d5c2c"/><rect x="930.2757319304667" y="563.4861733760292" width="17" height="16.875" fill="#faf8f4"/><text x="938.7757319304667" y="576.6486733760293" font-size="12.5" fill="#7d5c2c" text-anchor="middle" font-weight="400">3</text><line x1="700" y1="190" x2="700" y2="254.15827996340346" stroke="#7d5c2c" stroke-width="1"/><path d="M700 190 l-2.6 5.5 l5.2 0 Z" fill="#7d5c2c"/><path d="M700 254.15827996340346 l-2.6 -5.5 l5.2 0 Z" fill="#7d5c2c"/><g transform="translate(700,222.07913998170173) rotate(-90)"><rect x="-8.5" y="-19.1625" width="17" height="16.875" fill="#faf8f4"/><text x="0" y="-6" font-size="12.5" fill="#7d5c2c" text-anchor="middle" font-weight="400">3</text></g><line x1="700" y1="868.366880146386" x2="700" y2="975.2973467520585" stroke="#7d5c2c" stroke-width="1"/><path d="M700 868.366880146386 l-2.6 5.5 l5.2 0 Z" fill="#7d5c2c"/><path d="M700 975.2973467520585 l-2.6 -5.5 l5.2 0 Z" fill="#7d5c2c"/><g transform="translate(700,921.8321134492223) rotate(-90)"><rect x="-8.5" y="-19.1625" width="17" height="16.875" fill="#faf8f4"/><text x="0" y="-6" font-size="12.5" fill="#7d5c2c" text-anchor="middle" font-weight="400">5</text></g><text x="700" y="557.2625800548948" font-size="12.5" fill="#7d5c2c" text-anchor="middle" font-weight="700" letter-spacing="1.6">ЗОНА ЗАСТРОЙКИ</text><text x="700" y="579.2625800548948" font-size="15" fill="#7d5c2c" text-anchor="middle" font-weight="400">555 м²</text><rect x="22" y="22" width="1356" height="1356" fill="none" stroke="#ddd6c9" stroke-width="1"/><text x="60" y="92" font-size="27" fill="#2c332e" text-anchor="start" font-weight="600" font-family="'TT Ramillas','Playfair Display',Georgia,'Times New Roman',serif">Участок №37</text><text x="60" y="116" font-size="14.5" fill="#5a615a" text-anchor="start" font-weight="400">9,3 сот · 930 м² · ЛПХ</text><text x="60" y="138" font-size="12" fill="#7c8279" text-anchor="start" font-weight="400">Кадастровый номер: уточняется</text><g transform="translate(1282,108)"><path d="M0 -20 L8.4 14.399999999999999 L0 6.800000000000001 Z" fill="#a8814f"/><path d="M0 -20 L-8.4 14.399999999999999 L0 6.800000000000001 Z" fill="none" stroke="#7d5c2c" stroke-width="1.2"/><text x="0" y="-28" font-size="13" fill="#7d5c2c" text-anchor="middle" font-weight="700" letter-spacing="0.5">С</text></g><text x="60" y="1176" font-size="11.5" fill="#7c8279" text-anchor="start" font-weight="600" letter-spacing="1.2">ОБОЗНАЧЕНИЯ</text><rect x="60" y="1190" width="20" height="13" fill="#ffffff" stroke="#2c332e" stroke-width="1"/><text x="90" y="1200" font-size="13.5" fill="#5a615a" text-anchor="start" font-weight="400">Границы участка</text><rect x="60" y="1216" width="20" height="13" fill="none" stroke="#a8814f" stroke-width="1" stroke-dasharray="5 4"/><rect x="60" y="1216" width="20" height="13" fill="url(#h-build)"/><text x="90" y="1226" font-size="13.5" fill="#5a615a" text-anchor="start" font-weight="400">Где допускается дом</text><rect x="60" y="1242" width="20" height="13" fill="#ece6db" stroke="#cfc6b6" stroke-width="1"/><text x="90" y="1252" font-size="13.5" fill="#5a615a" text-anchor="start" font-weight="400">Проезд</text><rect x="60" y="1308" width="213.86093321134493" height="7" fill="#5a615a" stroke="#5a615a" stroke-width="1"/><rect x="273.8609332113449" y="1308" width="213.86093321134493" height="7" fill="#faf8f4" stroke="#5a615a" stroke-width="1"/><text x="60" y="1330" font-size="12" fill="#7c8279" text-anchor="middle" font-weight="400">0</text><text x="273.8609332113449" y="1330" font-size="12" fill="#7c8279" text-anchor="middle" font-weight="400">10</text><text x="487.72186642268986" y="1330" font-size="12" fill="#7c8279" text-anchor="middle" font-weight="400">20 м</text><text x="1340" y="1308" font-size="12" fill="#7c8279" text-anchor="end" font-weight="400">Отступы демонстрационные и подлежат</text><text x="1340" y="1327" font-size="12" fill="#7c8279" text-anchor="end" font-weight="400">уточнению по ГПЗУ, ПЗЗ и техусловиям.</text></svg>