<svg xmlns="http://www.w3.org/2000/svg" viewBox="0 0 1800 1200" width="1800" height="1200" role="img" aria-label="Схема проезда к офису продаж" font-family="'TT Commons Pro',-apple-system,BlinkMacSystemFont,'Segoe UI',Roboto,'Helvetica Neue',Arial,sans-serif"><title>Схема проезда к офису продаж</title><defs><pattern id="h-build" patternUnits="userSpaceOnUse" width="9" height="9" patternTransform="rotate(45)"><line x1="0" y1="0" x2="0" y2="9" stroke="#a8814f" stroke-width="1.1" opacity=".5"/></pattern><pattern id="h-sold" patternUnits="userSpaceOnUse" width="7" height="7" patternTransform="rotate(45)"><line x1="0" y1="0" x2="0" y2="7" stroke="#7c8279" stroke-width="1" opacity=".45"/></pattern><pattern id="h-forest" patternUnits="userSpaceOnUse" width="14" height="14"><circle cx="4" cy="4" r="1.5" fill="#9fb188" opacity=".55"/><circle cx="11" cy="10" r="1.1" fill="#9fb188" opacity=".4"/></pattern><pattern id="h-water" patternUnits="userSpaceOnUse" width="26" height="12"><path d="M0 6q6.5 -3 13 0t13 0" fill="none" stroke="#7d939b" stroke-width="1" opacity=".35"/></pattern></defs><rect width="1800" height="1200" fill="#faf8f4"/><path d="M-20 906 C 504.00000000000006 858, 936 1002, 1820 934.8 L1820 1042.8 C 936 1110, 504.00000000000006 966, -20 1014 Z" fill="#ccd8dc"/><path d="M-20 906 C 504.00000000000006 858, 936 1002, 1820 934.8 L1820 1042.8 C 936 1110, 504.00000000000006 966, -20 1014 Z" fill="url(#h-water)"/><path d="M-20 906 C 504.00000000000006 858, 936 1002, 1820 934.8" fill="none" stroke="#7d939b" stroke-width="1.2" opacity=".6"/><g transform="translate(360,336.00000000000006) rotate(12)"><path d="M323.6 32.4 Q293.3 64.8 269.4 97.9 Q245.5 130.9 199.6 164.4 Q153.7 197.9 76.8 195.8 Q0.0 193.6 -66.1 182.0 Q-132.2 170.3 -203.0 158.2 Q-273.8 146.1 -318.4 113.1 Q-362.9 80.2 -326.4 40.1 Q-289.9 0.0 -331.1 -41.1 Q-372.2 -82.2 -294.5 -98.9 Q-216.7 -115.6 -166.6 -132.8 Q-116.5 -150.0 -58.3 -182.3 Q-0.0 -214.6 55.1 -178.2 Q110.2 -141.9 171.0 -132.8 Q231.8 -123.6 247.3 -90.8 Q262.8 -58.1 308.4 -29.0 Q353.9 0.0 323.6 32.4 Z" fill="#dde6d2"/><path d="M323.6 32.4 Q293.3 64.8 269.4 97.9 Q245.5 130.9 199.6 164.4 Q153.7 197.9 76.8 195.8 Q0.0 193.6 -66.1 182.0 Q-132.2 170.3 -203.0 158.2 Q-273.8 146.1 -318.4 113.1 Q-362.9 80.2 -326.4 40.1 Q-289.9 0.0 -331.1 -41.1 Q-372.2 -82.2 -294.5 -98.9 Q-216.7 -115.6 -166.6 -132.8 Q-116.5 -150.0 -58.3 -182.3 Q-0.0 -214.6 55.1 -178.2 Q110.2 -141.9 171.0 -132.8 Q231.8 -123.6 247.3 -90.8 Q262.8 -58.1 308.4 -29.0 Q353.9 0.0 323.6 32.4 Z" fill="url(#h-forest)"/><path d="M323.6 32.4 Q293.3 64.8 269.4 97.9 Q245.5 130.9 199.6 164.4 Q153.7 197.9 76.8 195.8 Q0.0 193.6 -66.1 182.0 Q-132.2 170.3 -203.0 158.2 Q-273.8 146.1 -318.4 113.1 Q-362.9 80.2 -326.4 40.1 Q-289.9 0.0 -331.1 -41.1 Q-372.2 -82.2 -294.5 -98.9 Q-216.7 -115.6 -166.6 -132.8 Q-116.5 -150.0 -58.3 -182.3 Q-0.0 -214.6 55.1 -178.2 Q110.2 -141.9 171.0 -132.8 Q231.8 -123.6 247.3 -90.8 Q262.8 -58.1 308.4 -29.0 Q353.9 0.0 323.6 32.4 Z" fill="none" stroke="#9fb188" stroke-width="1.4" opacity=".75"/></g><path d="M108 240 L612 312 L828 600 L1296 696" fill="none" stroke="#a8814f" stroke-width="7" stroke-linecap="round" stroke-linejoin="round" opacity=".28"/><path d="M108 240 L612 312 L828 600 L1296 696" fill="none" stroke="#7d5c2c" stroke-width="2.4" stroke-linecap="round" stroke-linejoin="round" stroke-dasharray="12 8"/><circle cx="108" cy="240" r="6" fill="#faf8f4" stroke="#7d5c2c" stroke-width="2"/><text x="120" y="230" font-size="13" fill="#5a615a" text-anchor="start" font-weight="400">Шоссе Космонавтов</text><text x="120" y="248" font-size="11.5" fill="#7c8279" text-anchor="start" font-weight="400">1</text><circle cx="612" cy="312" r="6" fill="#faf8f4" stroke="#7d5c2c" stroke-width="2"/><text x="624" y="302" font-size="13" fill="#5a615a" text-anchor="start" font-weight="400">поворот на набережную</text><text x="624" y="320" font-size="11.5" fill="#7c8279" text-anchor="start" font-weight="400">2</text><circle cx="828" cy="600" r="6" fill="#faf8f4" stroke="#7d5c2c" stroke-width="2"/><text x="840" y="590" font-size="13" fill="#5a615a" text-anchor="start" font-weight="400">ул. Ленская</text><text x="840" y="608" font-size="11.5" fill="#7c8279" text-anchor="start" font-weight="400">3</text><circle cx="1296" cy="696" r="15" fill="#a8814f" opacity=".16"/><circle cx="1296" cy="696" r="7.5" fill="#a8814f" stroke="#faf8f4" stroke-width="2.5"/><line x1="1284" y1="696" x2="1268" y2="696" stroke="#7d5c2c" stroke-width="1.2"/><text x="1262" y="693" font-size="17" fill="#2c332e" text-anchor="end" font-weight="700">Офис продаж</text><text x="1262" y="713" font-size="13" fill="#5a615a" text-anchor="end" font-weight="400">ул. Ленская, 1</text><rect x="22" y="22" width="1756" height="1156" fill="none" stroke="#ddd6c9" stroke-width="1"/><text x="56" y="68" font-size="27" fill="#2c332e" text-anchor="start" font-weight="600" font-family="'TT Ramillas','Playfair Display',Georgia,'Times New Roman',serif">Как доехать</text><text x="56" y="92" font-size="14.5" fill="#5a615a" text-anchor="start" font-weight="400">От шоссе до офиса продаж</text><g transform="translate(1734,78)"><path d="M0 -18 L7.56 12.959999999999999 L0 6.12 Z" fill="#a8814f"/><path d="M0 -18 L-7.56 12.959999999999999 L0 6.12 Z" fill="none" stroke="#7d5c2c" stroke-width="1.2"/><text x="0" y="-26" font-size="13" fill="#7d5c2c" text-anchor="middle" font-weight="700" letter-spacing="0.5">С</text></g><text x="56" y="1156" font-size="12" fill="#7c8279" text-anchor="start" font-weight="400">Схема, не топографическая карта. Геометрия условная.</text></svg>