<svg xmlns="http://www.w3.org/2000/svg" viewBox="0 0 1120 1400" width="1120" height="1400" role="img" aria-label="Ступенчатые террасы верхних уровней" preserveAspectRatio="xMidYMid slice">
  <defs>
    <linearGradient id="sky" x1="0" y1="0" x2="0" y2="1">
      <stop offset="0" stop-color="#8FA6B4"/>
      <stop offset="0.55" stop-color="#C3CEcd"/>
      <stop offset="1" stop-color="#E4E3D8"/>
    </linearGradient>
    <radialGradient id="sunHalo" cx="0.66" cy="0.3" r="0.9">
      <stop offset="0" stop-color="#FFFFFF" stop-opacity="0.34"/>
      <stop offset="0.5" stop-color="#FFFFFF" stop-opacity="0.1"/>
      <stop offset="1" stop-color="#FFFFFF" stop-opacity="0"/>
    </radialGradient>
    <radialGradient id="sun" cx="0.66" cy="0.3" r="0.3">
      <stop offset="0" stop-color="#FFFFFF" stop-opacity="0.6"/>
      <stop offset="0.35" stop-color="#FFFFFF" stop-opacity="0.2"/>
      <stop offset="0.72" stop-color="#FFFFFF" stop-opacity="0.05"/>
      <stop offset="1" stop-color="#FFFFFF" stop-opacity="0"/>
    </radialGradient>
  </defs>
  <rect width="1120" height="1204" fill="url(#sky)"/>
  <rect width="1120" height="1204" fill="url(#sunHalo)"/>
  <rect width="1120" height="1204" fill="url(#sun)"/><path d="M -28.0 1204.0 L -28.0 1147.3 Q -8.1 1149.6 11.7 1178.0 Q 26.3 1146.2 40.9 1180.8 Q 52.6 1077.1 64.4 1168.3 Q 76.5 1070.0 88.6 1141.6 Q 108.7 1147.1 128.7 1165.7 Q 142.2 1084.6 155.8 1125.2 Q 167.2 1109.2 178.7 1161.7 Q 198.3 1097.2 217.9 1168.8 Q 238.1 1078.2 258.3 1151.9 Q 271.4 1079.3 284.5 1125.7 Q 294.1 1088.0 303.7 1138.1 Q 324.0 1133.6 344.3 1168.4 Q 355.0 1124.6 365.8 1176.5 Q 382.6 1106.7 399.4 1153.1 Q 420.3 1141.4 441.2 1167.4 Q 460.6 1080.1 480.0 1114.2 Q 492.0 1152.0 504.0 1169.8 Q 524.9 1074.2 545.8 1156.8 Q 557.1 1105.8 568.5 1152.3 Q 584.4 1091.5 600.4 1160.4 Q 615.1 1143.0 629.8 1161.1 Q 640.1 1103.9 650.4 1152.1 Q 666.3 1098.9 682.2 1154.3 Q 701.3 1103.6 720.4 1144.4 Q 734.7 1113.3 749.0 1160.7 Q 768.0 1110.6 786.9 1146.1 Q 804.1 1091.3 821.3 1142.9 Q 837.4 1097.6 853.4 1162.1 Q 867.7 1118.3 882.0 1156.7 Q 903.7 1097.8 925.4 1127.1 Q 948.2 1126.0 971.0 1155.1 Q 982.4 1105.5 993.8 1134.7 Q 1005.2 1070.6 1016.5 1163.3 Q 1034.8 1094.5 1053.1 1160.6 Q 1071.4 1097.9 1089.8 1166.3 Q 1104.5 1153.5 1119.2 1171.3 Q 1133.2 1088.1 1147.1 1171.0 Q 1162.6 1116.2 1178.0 1178.4 L 1178.0 1204.0 Z" fill="#46554C" opacity="0.5"/><rect x="89.6" y="924.0" width="604.8" height="280.0" fill="#1E2628"/><rect x="89.6" y="924.0" width="96.8" height="280.0" fill="#000" opacity="0.22"/><rect x="131.9" y="940.8" width="520.1" height="28.0" fill="#9FB4BC" opacity="0.5"/><rect x="135.4" y="940.8" width="22.0" height="28.0" fill="#F0C489" opacity="0.81"/><rect x="164.3" y="940.8" width="22.0" height="28.0" fill="#F0C489" opacity="0.53"/><rect x="308.8" y="940.8" width="22.0" height="28.0" fill="#F0C489" opacity="0.69"/><rect x="337.7" y="940.8" width="22.0" height="28.0" fill="#F0C489" opacity="0.70"/><rect x="366.6" y="940.8" width="22.0" height="28.0" fill="#F0C489" opacity="0.83"/><rect x="539.9" y="940.8" width="22.0" height="28.0" fill="#F0C489" opacity="0.65"/><rect x="597.7" y="940.8" width="22.0" height="28.0" fill="#F0C489" opacity="0.62"/><rect x="626.6" y="940.8" width="22.0" height="28.0" fill="#F0C489" opacity="0.75"/><rect x="131.9" y="1010.8" width="520.1" height="28.0" fill="#9FB4BC" opacity="0.5"/><rect x="135.4" y="1010.8" width="22.0" height="28.0" fill="#F0C489" opacity="0.72"/><rect x="308.8" y="1010.8" width="22.0" height="28.0" fill="#F0C489" opacity="0.82"/><rect x="453.3" y="1010.8" width="22.0" height="28.0" fill="#F0C489" opacity="0.74"/><rect x="597.7" y="1010.8" width="22.0" height="28.0" fill="#F0C489" opacity="0.82"/><rect x="131.9" y="1080.8" width="520.1" height="28.0" fill="#9FB4BC" opacity="0.5"/><rect x="251.0" y="1080.8" width="22.0" height="28.0" fill="#F0C489" opacity="0.56"/><rect x="395.5" y="1080.8" width="22.0" height="28.0" fill="#F0C489" opacity="0.82"/><rect x="453.3" y="1080.8" width="22.0" height="28.0" fill="#F0C489" opacity="0.53"/><rect x="568.8" y="1080.8" width="22.0" height="28.0" fill="#F0C489" opacity="0.65"/><rect x="597.7" y="1080.8" width="22.0" height="28.0" fill="#F0C489" opacity="0.74"/><rect x="131.9" y="1150.8" width="520.1" height="28.0" fill="#9FB4BC" opacity="0.5"/><rect x="251.0" y="1150.8" width="22.0" height="28.0" fill="#F0C489" opacity="0.81"/><rect x="424.4" y="1150.8" width="22.0" height="28.0" fill="#F0C489" opacity="0.70"/><rect x="453.3" y="1150.8" width="22.0" height="28.0" fill="#F0C489" opacity="0.61"/><rect x="89.6" y="917.7" width="604.8" height="6.3" fill="#C79A5E" opacity="0.72"/><rect x="138.0" y="644.0" width="508.0" height="280.0" fill="#1E2628"/><rect x="138.0" y="644.0" width="81.3" height="280.0" fill="#000" opacity="0.22"/><rect x="173.5" y="660.8" width="436.9" height="28.0" fill="#9FB4BC" opacity="0.5"/><rect x="322.7" y="660.8" width="22.1" height="28.0" fill="#F0C489" opacity="0.45"/><rect x="555.7" y="660.8" width="22.1" height="28.0" fill="#F0C489" opacity="0.67"/><rect x="584.8" y="660.8" width="22.1" height="28.0" fill="#F0C489" opacity="0.44"/><rect x="173.5" y="730.8" width="436.9" height="28.0" fill="#9FB4BC" opacity="0.5"/><rect x="235.3" y="730.8" width="22.1" height="28.0" fill="#F0C489" opacity="0.82"/><rect x="293.6" y="730.8" width="22.1" height="28.0" fill="#F0C489" opacity="0.45"/><rect x="380.9" y="730.8" width="22.1" height="28.0" fill="#F0C489" opacity="0.69"/><rect x="526.6" y="730.8" width="22.1" height="28.0" fill="#F0C489" opacity="0.78"/><rect x="173.5" y="800.8" width="436.9" height="28.0" fill="#9FB4BC" opacity="0.5"/><rect x="177.0" y="800.8" width="22.1" height="28.0" fill="#F0C489" opacity="0.72"/><rect x="526.6" y="800.8" width="22.1" height="28.0" fill="#F0C489" opacity="0.40"/><rect x="555.7" y="800.8" width="22.1" height="28.0" fill="#F0C489" opacity="0.69"/><rect x="584.8" y="800.8" width="22.1" height="28.0" fill="#F0C489" opacity="0.45"/><rect x="173.5" y="870.8" width="436.9" height="28.0" fill="#9FB4BC" opacity="0.5"/><rect x="264.4" y="870.8" width="22.1" height="28.0" fill="#F0C489" opacity="0.63"/><rect x="351.8" y="870.8" width="22.1" height="28.0" fill="#F0C489" opacity="0.65"/><rect x="555.7" y="870.8" width="22.1" height="28.0" fill="#F0C489" opacity="0.81"/><rect x="138.0" y="637.7" width="508.0" height="6.3" fill="#C79A5E" opacity="0.72"/><rect x="186.4" y="364.0" width="426.7" height="280.0" fill="#1E2628"/><rect x="186.4" y="364.0" width="68.3" height="280.0" fill="#000" opacity="0.22"/><rect x="216.2" y="380.8" width="367.0" height="28.0" fill="#9FB4BC" opacity="0.5"/><rect x="219.6" y="380.8" width="21.5" height="28.0" fill="#F0C489" opacity="0.72"/><rect x="247.9" y="380.8" width="21.5" height="28.0" fill="#F0C489" opacity="0.75"/><rect x="332.6" y="380.8" width="21.5" height="28.0" fill="#F0C489" opacity="0.80"/><rect x="417.2" y="380.8" width="21.5" height="28.0" fill="#F0C489" opacity="0.54"/><rect x="216.2" y="450.8" width="367.0" height="28.0" fill="#9FB4BC" opacity="0.5"/><rect x="304.3" y="450.8" width="21.5" height="28.0" fill="#F0C489" opacity="0.66"/><rect x="360.8" y="450.8" width="21.5" height="28.0" fill="#F0C489" opacity="0.56"/><rect x="389.0" y="450.8" width="21.5" height="28.0" fill="#F0C489" opacity="0.75"/><rect x="417.2" y="450.8" width="21.5" height="28.0" fill="#F0C489" opacity="0.41"/><rect x="473.7" y="450.8" width="21.5" height="28.0" fill="#F0C489" opacity="0.84"/><rect x="216.2" y="520.8" width="367.0" height="28.0" fill="#9FB4BC" opacity="0.5"/><rect x="247.9" y="520.8" width="21.5" height="28.0" fill="#F0C489" opacity="0.83"/><rect x="276.1" y="520.8" width="21.5" height="28.0" fill="#F0C489" opacity="0.69"/><rect x="530.2" y="520.8" width="21.5" height="28.0" fill="#F0C489" opacity="0.73"/><rect x="558.4" y="520.8" width="21.5" height="28.0" fill="#F0C489" opacity="0.40"/><rect x="216.2" y="590.8" width="367.0" height="28.0" fill="#9FB4BC" opacity="0.5"/><rect x="304.3" y="590.8" width="21.5" height="28.0" fill="#F0C489" opacity="0.63"/><rect x="417.2" y="590.8" width="21.5" height="28.0" fill="#F0C489" opacity="0.46"/><rect x="445.5" y="590.8" width="21.5" height="28.0" fill="#F0C489" opacity="0.51"/><rect x="186.4" y="357.7" width="426.7" height="6.3" fill="#C79A5E" opacity="0.72"/><rect x="234.8" y="84.0" width="358.5" height="280.0" fill="#1E2628"/><rect x="234.8" y="84.0" width="57.4" height="280.0" fill="#000" opacity="0.22"/><rect x="259.8" y="100.8" width="308.3" height="28.0" fill="#9FB4BC" opacity="0.5"/><rect x="291.2" y="100.8" width="21.3" height="28.0" fill="#F0C489" opacity="0.73"/><rect x="515.4" y="100.8" width="21.3" height="28.0" fill="#F0C489" opacity="0.48"/><rect x="259.8" y="170.8" width="308.3" height="28.0" fill="#9FB4BC" opacity="0.5"/><rect x="263.2" y="170.8" width="21.3" height="28.0" fill="#F0C489" opacity="0.52"/><rect x="291.2" y="170.8" width="21.3" height="28.0" fill="#F0C489" opacity="0.61"/><rect x="487.4" y="170.8" width="21.3" height="28.0" fill="#F0C489" opacity="0.67"/><rect x="259.8" y="240.8" width="308.3" height="28.0" fill="#9FB4BC" opacity="0.5"/><rect x="291.2" y="240.8" width="21.3" height="28.0" fill="#F0C489" opacity="0.42"/><rect x="375.3" y="240.8" width="21.3" height="28.0" fill="#F0C489" opacity="0.50"/><rect x="431.4" y="240.8" width="21.3" height="28.0" fill="#F0C489" opacity="0.75"/><rect x="459.4" y="240.8" width="21.3" height="28.0" fill="#F0C489" opacity="0.80"/><rect x="259.8" y="310.8" width="308.3" height="28.0" fill="#9FB4BC" opacity="0.5"/><rect x="263.2" y="310.8" width="21.3" height="28.0" fill="#F0C489" opacity="0.64"/><rect x="487.4" y="310.8" width="21.3" height="28.0" fill="#F0C489" opacity="0.71"/><rect x="543.5" y="310.8" width="21.3" height="28.0" fill="#F0C489" opacity="0.43"/><rect x="234.8" y="77.7" width="358.5" height="6.3" fill="#C79A5E" opacity="0.72"/><rect x="560.0" y="924.0" width="504.0" height="280.0" fill="#242D2E"/><rect x="560.0" y="924.0" width="80.6" height="280.0" fill="#000" opacity="0.22"/><rect x="595.3" y="940.8" width="433.4" height="28.0" fill="#9FB4BC" opacity="0.5"/><rect x="829.9" y="940.8" width="22.0" height="28.0" fill="#F0C489" opacity="0.40"/><rect x="887.7" y="940.8" width="22.0" height="28.0" fill="#F0C489" opacity="0.61"/><rect x="945.5" y="940.8" width="22.0" height="28.0" fill="#F0C489" opacity="0.82"/><rect x="595.3" y="1010.8" width="433.4" height="28.0" fill="#9FB4BC" opacity="0.5"/><rect x="656.5" y="1010.8" width="22.0" height="28.0" fill="#F0C489" opacity="0.60"/><rect x="743.2" y="1010.8" width="22.0" height="28.0" fill="#F0C489" opacity="0.73"/><rect x="858.8" y="1010.8" width="22.0" height="28.0" fill="#F0C489" opacity="0.73"/><rect x="887.7" y="1010.8" width="22.0" height="28.0" fill="#F0C489" opacity="0.40"/><rect x="916.6" y="1010.8" width="22.0" height="28.0" fill="#F0C489" opacity="0.74"/><rect x="595.3" y="1080.8" width="433.4" height="28.0" fill="#9FB4BC" opacity="0.5"/><rect x="772.1" y="1080.8" width="22.0" height="28.0" fill="#F0C489" opacity="0.79"/><rect x="887.7" y="1080.8" width="22.0" height="28.0" fill="#F0C489" opacity="0.55"/><rect x="916.6" y="1080.8" width="22.0" height="28.0" fill="#F0C489" opacity="0.68"/><rect x="945.5" y="1080.8" width="22.0" height="28.0" fill="#F0C489" opacity="0.69"/><rect x="595.3" y="1150.8" width="433.4" height="28.0" fill="#9FB4BC" opacity="0.5"/><rect x="656.5" y="1150.8" width="22.0" height="28.0" fill="#F0C489" opacity="0.62"/><rect x="743.2" y="1150.8" width="22.0" height="28.0" fill="#F0C489" opacity="0.42"/><rect x="829.9" y="1150.8" width="22.0" height="28.0" fill="#F0C489" opacity="0.48"/><rect x="858.8" y="1150.8" width="22.0" height="28.0" fill="#F0C489" opacity="0.81"/><rect x="887.7" y="1150.8" width="22.0" height="28.0" fill="#F0C489" opacity="0.49"/><rect x="916.6" y="1150.8" width="22.0" height="28.0" fill="#F0C489" opacity="0.64"/><rect x="560.0" y="917.7" width="504.0" height="6.3" fill="#C79A5E" opacity="0.72"/><rect x="600.3" y="644.0" width="423.4" height="280.0" fill="#242D2E"/><rect x="600.3" y="644.0" width="67.7" height="280.0" fill="#000" opacity="0.22"/><rect x="630.0" y="660.8" width="364.1" height="28.0" fill="#9FB4BC" opacity="0.5"/><rect x="633.6" y="660.8" width="23.1" height="28.0" fill="#F0C489" opacity="0.63"/><rect x="967.3" y="660.8" width="23.1" height="28.0" fill="#F0C489" opacity="0.42"/><rect x="630.0" y="730.8" width="364.1" height="28.0" fill="#9FB4BC" opacity="0.5"/><rect x="694.3" y="730.8" width="23.1" height="28.0" fill="#F0C489" opacity="0.44"/><rect x="755.0" y="730.8" width="23.1" height="28.0" fill="#F0C489" opacity="0.83"/><rect x="815.6" y="730.8" width="23.1" height="28.0" fill="#F0C489" opacity="0.74"/><rect x="876.3" y="730.8" width="23.1" height="28.0" fill="#F0C489" opacity="0.81"/><rect x="906.7" y="730.8" width="23.1" height="28.0" fill="#F0C489" opacity="0.70"/><rect x="630.0" y="800.8" width="364.1" height="28.0" fill="#9FB4BC" opacity="0.5"/><rect x="815.6" y="800.8" width="23.1" height="28.0" fill="#F0C489" opacity="0.62"/><rect x="937.0" y="800.8" width="23.1" height="28.0" fill="#F0C489" opacity="0.57"/><rect x="630.0" y="870.8" width="364.1" height="28.0" fill="#9FB4BC" opacity="0.5"/><rect x="633.6" y="870.8" width="23.1" height="28.0" fill="#F0C489" opacity="0.82"/><rect x="663.9" y="870.8" width="23.1" height="28.0" fill="#F0C489" opacity="0.69"/><rect x="906.7" y="870.8" width="23.1" height="28.0" fill="#F0C489" opacity="0.80"/><rect x="937.0" y="870.8" width="23.1" height="28.0" fill="#F0C489" opacity="0.80"/><rect x="600.3" y="637.7" width="423.4" height="6.3" fill="#C79A5E" opacity="0.72"/><rect x="640.6" y="364.0" width="355.6" height="280.0" fill="#242D2E"/><rect x="640.6" y="364.0" width="56.9" height="280.0" fill="#000" opacity="0.22"/><rect x="665.5" y="380.8" width="305.8" height="28.0" fill="#9FB4BC" opacity="0.5"/><rect x="761.0" y="380.8" width="23.2" height="28.0" fill="#F0C489" opacity="0.62"/><rect x="822.1" y="380.8" width="23.2" height="28.0" fill="#F0C489" opacity="0.82"/><rect x="852.7" y="380.8" width="23.2" height="28.0" fill="#F0C489" opacity="0.50"/><rect x="944.5" y="380.8" width="23.2" height="28.0" fill="#F0C489" opacity="0.45"/><rect x="665.5" y="450.8" width="305.8" height="28.0" fill="#9FB4BC" opacity="0.5"/><rect x="669.2" y="450.8" width="23.2" height="28.0" fill="#F0C489" opacity="0.41"/><rect x="730.4" y="450.8" width="23.2" height="28.0" fill="#F0C489" opacity="0.66"/><rect x="791.5" y="450.8" width="23.2" height="28.0" fill="#F0C489" opacity="0.54"/><rect x="913.9" y="450.8" width="23.2" height="28.0" fill="#F0C489" opacity="0.69"/><rect x="944.5" y="450.8" width="23.2" height="28.0" fill="#F0C489" opacity="0.80"/><rect x="665.5" y="520.8" width="305.8" height="28.0" fill="#9FB4BC" opacity="0.5"/><rect x="699.8" y="520.8" width="23.2" height="28.0" fill="#F0C489" opacity="0.48"/><rect x="730.4" y="520.8" width="23.2" height="28.0" fill="#F0C489" opacity="0.68"/><rect x="761.0" y="520.8" width="23.2" height="28.0" fill="#F0C489" opacity="0.75"/><rect x="944.5" y="520.8" width="23.2" height="28.0" fill="#F0C489" opacity="0.64"/><rect x="665.5" y="590.8" width="305.8" height="28.0" fill="#9FB4BC" opacity="0.5"/><rect x="699.8" y="590.8" width="23.2" height="28.0" fill="#F0C489" opacity="0.81"/><rect x="822.1" y="590.8" width="23.2" height="28.0" fill="#F0C489" opacity="0.82"/><rect x="944.5" y="590.8" width="23.2" height="28.0" fill="#F0C489" opacity="0.43"/><rect x="640.6" y="357.7" width="355.6" height="6.3" fill="#C79A5E" opacity="0.72"/><rect y="1204.0" width="1120" height="196.0" fill="#2A322C"/><rect y="1204.0" width="1120" height="5.6" fill="#C79A5E" opacity="0.5"/><g opacity="0.05"><circle cx="823.2" cy="249.9" r="0.8" fill="#FFFFFF" opacity="0.32"/><circle cx="522.8" cy="727.4" r="1.1" fill="#FFFFFF" opacity="0.08"/><circle cx="324.8" cy="712.8" r="0.7" fill="#FFFFFF" opacity="0.33"/><circle cx="717.7" cy="55.5" r="1.0" fill="#FFFFFF" opacity="0.04"/><circle cx="2.1" cy="863.0" r="1.7" fill="#FFFFFF" opacity="0.01"/><circle cx="354.1" cy="728.3" r="0.8" fill="#FFFFFF" opacity="0.05"/><circle cx="276.5" cy="1272.9" r="0.9" fill="#FFFFFF" opacity="0.40"/><circle cx="100.3" cy="1081.6" r="1.0" fill="#FFFFFF" opacity="0.02"/><circle cx="212.6" cy="202.9" r="0.8" fill="#FFFFFF" opacity="0.47"/><circle cx="388.6" cy="571.8" r="0.7" fill="#FFFFFF" opacity="0.08"/><circle cx="510.8" cy="803.6" r="1.4" fill="#FFFFFF" opacity="0.22"/><circle cx="1003.1" cy="682.0" r="0.6" fill="#FFFFFF" opacity="0.25"/><circle cx="464.5" cy="402.3" r="1.7" fill="#FFFFFF" opacity="0.43"/><circle cx="799.0" cy="334.0" r="1.0" fill="#FFFFFF" opacity="0.30"/><circle cx="816.9" cy="599.7" r="1.6" fill="#FFFFFF" opacity="0.16"/><circle cx="994.8" cy="300.1" r="1.1" fill="#FFFFFF" opacity="0.44"/><circle cx="796.2" cy="1184.6" r="1.1" fill="#FFFFFF" opacity="0.27"/><circle cx="951.7" cy="274.1" r="1.2" fill="#FFFFFF" opacity="0.24"/><circle cx="762.8" cy="66.9" r="1.4" fill="#FFFFFF" opacity="0.13"/><circle cx="397.0" cy="111.6" r="0.6" fill="#FFFFFF" opacity="0.17"/><circle cx="75.3" cy="978.4" r="0.8" fill="#FFFFFF" opacity="0.14"/><circle cx="836.0" cy="923.9" r="1.0" fill="#FFFFFF" opacity="0.30"/><circle cx="551.2" cy="1127.6" r="1.6" fill="#FFFFFF" opacity="0.10"/><circle cx="75.5" cy="412.1" r="1.0" fill="#FFFFFF" opacity="0.07"/><circle cx="671.8" cy="722.3" r="0.9" fill="#FFFFFF" opacity="0.28"/><circle cx="151.6" cy="98.0" r="1.6" fill="#FFFFFF" opacity="0.03"/><circle cx="530.6" cy="787.3" r="0.9" fill="#FFFFFF" opacity="0.33"/><circle cx="189.6" cy="1121.3" r="1.1" fill="#FFFFFF" opacity="0.06"/><circle cx="607.1" cy="231.6" r="0.8" fill="#FFFFFF" opacity="0.09"/><circle cx="482.0" cy="143.6" r="0.8" fill="#FFFFFF" opacity="0.26"/><circle cx="295.4" cy="119.4" r="1.8" fill="#FFFFFF" opacity="0.10"/><circle cx="35.9" cy="1273.1" r="2.0" fill="#FFFFFF" opacity="0.46"/><circle cx="982.6" cy="577.7" r="1.2" fill="#FFFFFF" opacity="0.13"/><circle cx="285.8" cy="115.2" r="1.8" fill="#FFFFFF" opacity="0.48"/><circle cx="57.5" cy="407.0" r="1.0" fill="#FFFFFF" opacity="0.24"/><circle cx="441.3" cy="1012.1" r="0.8" fill="#FFFFFF" opacity="0.24"/><circle cx="898.7" cy="1280.3" r="2.0" fill="#FFFFFF" opacity="0.33"/><circle cx="369.9" cy="1278.8" r="0.9" fill="#FFFFFF" opacity="0.14"/><circle cx="537.7" cy="775.1" r="1.9" fill="#FFFFFF" opacity="0.12"/><circle cx="583.8" cy="548.5" r="0.6" fill="#FFFFFF" opacity="0.27"/><circle cx="907.3" cy="619.0" r="1.8" fill="#FFFFFF" opacity="0.22"/><circle cx="609.5" cy="57.7" r="1.7" fill="#FFFFFF" opacity="0.42"/><circle cx="603.5" cy="270.3" r="1.4" fill="#FFFFFF" opacity="0.41"/><circle cx="380.1" cy="322.0" r="2.0" fill="#FFFFFF" opacity="0.44"/><circle cx="456.9" cy="401.4" r="1.6" fill="#FFFFFF" opacity="0.35"/><circle cx="739.7" cy="1347.4" r="1.0" fill="#FFFFFF" opacity="0.45"/><circle cx="277.5" cy="955.1" r="1.6" fill="#FFFFFF" opacity="0.17"/><circle cx="672.4" cy="1385.4" r="1.7" fill="#FFFFFF" opacity="0.41"/><circle cx="906.4" cy="1258.4" r="1.4" fill="#FFFFFF" opacity="0.39"/><circle cx="117.7" cy="856.6" r="1.6" fill="#FFFFFF" opacity="0.48"/><circle cx="675.0" cy="549.6" r="0.6" fill="#FFFFFF" opacity="0.41"/><circle cx="952.1" cy="1136.1" r="2.0" fill="#FFFFFF" opacity="0.09"/><circle cx="513.5" cy="156.7" r="1.2" fill="#FFFFFF" opacity="0.26"/><circle cx="72.3" cy="757.0" r="0.9" fill="#FFFFFF" opacity="0.04"/><circle cx="385.4" cy="895.7" r="0.9" fill="#FFFFFF" opacity="0.32"/><circle cx="401.9" cy="839.5" r="1.8" fill="#FFFFFF" opacity="0.40"/><circle cx="270.9" cy="646.6" r="1.1" fill="#FFFFFF" opacity="0.13"/><circle cx="602.0" cy="428.8" r="1.4" fill="#FFFFFF" opacity="0.23"/><circle cx="458.9" cy="795.6" r="1.6" fill="#FFFFFF" opacity="0.01"/><circle cx="237.3" cy="469.1" r="1.0" fill="#FFFFFF" opacity="0.31"/><circle cx="702.9" cy="723.8" r="1.1" fill="#FFFFFF" opacity="0.09"/><circle cx="17.9" cy="326.8" r="1.3" fill="#FFFFFF" opacity="0.37"/><circle cx="138.2" cy="220.5" r="0.6" fill="#FFFFFF" opacity="0.28"/><circle cx="534.5" cy="224.6" r="1.4" fill="#FFFFFF" opacity="0.29"/><circle cx="211.1" cy="90.7" r="1.1" fill="#FFFFFF" opacity="0.41"/><circle cx="348.4" cy="339.8" r="1.1" fill="#FFFFFF" opacity="0.02"/><circle cx="582.6" cy="205.8" r="1.7" fill="#FFFFFF" opacity="0.18"/><circle cx="157.2" cy="523.3" r="1.2" fill="#FFFFFF" opacity="0.30"/><circle cx="973.6" cy="701.5" r="1.8" fill="#FFFFFF" opacity="0.02"/><circle cx="550.6" cy="1043.1" r="1.2" fill="#FFFFFF" opacity="0.42"/><circle cx="537.8" cy="546.0" r="1.1" fill="#FFFFFF" opacity="0.01"/><circle cx="648.2" cy="566.2" r="1.4" fill="#FFFFFF" opacity="0.43"/><circle cx="282.3" cy="369.8" r="1.2" fill="#FFFFFF" opacity="0.07"/><circle cx="344.7" cy="434.6" r="0.8" fill="#FFFFFF" opacity="0.36"/><circle cx="1029.4" cy="275.3" r="1.8" fill="#FFFFFF" opacity="0.30"/><circle cx="378.3" cy="124.0" r="1.3" fill="#FFFFFF" opacity="0.43"/><circle cx="214.2" cy="725.5" r="1.0" fill="#FFFFFF" opacity="0.02"/><circle cx="738.3" cy="512.3" r="0.6" fill="#FFFFFF" opacity="0.25"/><circle cx="792.4" cy="239.8" r="2.1" fill="#FFFFFF" opacity="0.18"/><circle cx="61.0" cy="946.7" r="0.9" fill="#FFFFFF" opacity="0.21"/><circle cx="2.8" cy="826.8" r="0.6" fill="#FFFFFF" opacity="0.08"/><circle cx="68.4" cy="432.2" r="1.6" fill="#FFFFFF" opacity="0.08"/><circle cx="816.7" cy="1257.0" r="1.4" fill="#FFFFFF" opacity="0.38"/><circle cx="846.8" cy="991.0" r="1.8" fill="#FFFFFF" opacity="0.10"/><circle cx="967.9" cy="107.5" r="1.3" fill="#FFFFFF" opacity="0.15"/><circle cx="590.7" cy="493.2" r="0.9" fill="#FFFFFF" opacity="0.43"/><circle cx="303.4" cy="186.7" r="1.3" fill="#FFFFFF" opacity="0.48"/><circle cx="361.9" cy="871.4" r="1.0" fill="#FFFFFF" opacity="0.27"/><circle cx="970.0" cy="551.2" r="1.0" fill="#FFFFFF" opacity="0.41"/><circle cx="1.1" cy="556.6" r="1.0" fill="#FFFFFF" opacity="0.05"/><circle cx="387.1" cy="184.6" r="1.5" fill="#FFFFFF" opacity="0.29"/><circle cx="1037.9" cy="691.7" r="1.1" fill="#FFFFFF" opacity="0.08"/><circle cx="803.5" cy="599.7" r="0.7" fill="#FFFFFF" opacity="0.02"/><circle cx="708.4" cy="1290.2" r="1.5" fill="#FFFFFF" opacity="0.34"/><circle cx="847.3" cy="553.8" r="1.8" fill="#FFFFFF" opacity="0.25"/><circle cx="865.1" cy="253.5" r="1.6" fill="#FFFFFF" opacity="0.06"/><circle cx="639.9" cy="393.2" r="0.9" fill="#FFFFFF" opacity="0.19"/><circle cx="857.0" cy="596.0" r="1.1" fill="#FFFFFF" opacity="0.13"/><circle cx="835.3" cy="16.0" r="0.9" fill="#FFFFFF" opacity="0.28"/><circle cx="728.2" cy="791.7" r="1.3" fill="#FFFFFF" opacity="0.24"/><circle cx="524.1" cy="1287.7" r="0.7" fill="#FFFFFF" opacity="0.40"/><circle cx="907.5" cy="1304.8" r="1.8" fill="#FFFFFF" opacity="0.44"/><circle cx="691.7" cy="124.3" r="0.8" fill="#FFFFFF" opacity="0.14"/><circle cx="564.9" cy="1042.4" r="1.5" fill="#FFFFFF" opacity="0.00"/><circle cx="138.0" cy="1144.2" r="0.8" fill="#FFFFFF" opacity="0.36"/><circle cx="839.3" cy="581.6" r="1.1" fill="#FFFFFF" opacity="0.23"/><circle cx="1007.3" cy="593.5" r="0.8" fill="#FFFFFF" opacity="0.22"/><circle cx="8.2" cy="645.5" r="0.7" fill="#FFFFFF" opacity="0.11"/><circle cx="326.5" cy="454.2" r="1.7" fill="#FFFFFF" opacity="0.15"/><circle cx="39.2" cy="0.6" r="1.5" fill="#FFFFFF" opacity="0.44"/><circle cx="1005.2" cy="611.6" r="1.2" fill="#FFFFFF" opacity="0.27"/><circle cx="1069.0" cy="441.9" r="1.3" fill="#FFFFFF" opacity="0.30"/><circle cx="1009.9" cy="204.0" r="1.6" fill="#FFFFFF" opacity="0.07"/><circle cx="929.4" cy="881.5" r="2.0" fill="#FFFFFF" opacity="0.42"/><circle cx="994.5" cy="442.5" r="0.9" fill="#FFFFFF" opacity="0.41"/><circle cx="782.6" cy="383.9" r="0.7" fill="#FFFFFF" opacity="0.23"/><circle cx="216.4" cy="348.4" r="0.8" fill="#FFFFFF" opacity="0.44"/><circle cx="584.1" cy="99.3" r="1.9" fill="#FFFFFF" opacity="0.15"/><circle cx="736.7" cy="66.9" r="2.0" fill="#FFFFFF" opacity="0.21"/><circle cx="464.1" cy="858.1" r="0.8" fill="#FFFFFF" opacity="0.18"/><circle cx="292.8" cy="774.5" r="1.9" fill="#FFFFFF" opacity="0.49"/><circle cx="54.2" cy="1307.5" r="2.1" fill="#FFFFFF" opacity="0.06"/><circle cx="621.1" cy="718.4" r="1.1" fill="#FFFFFF" opacity="0.28"/><circle cx="973.3" cy="146.3" r="1.3" fill="#FFFFFF" opacity="0.31"/><circle cx="1116.4" cy="1168.2" r="0.6" fill="#FFFFFF" opacity="0.18"/><circle cx="819.5" cy="1140.1" r="1.9" fill="#FFFFFF" opacity="0.46"/><circle cx="466.4" cy="960.9" r="1.4" fill="#FFFFFF" opacity="0.00"/><circle cx="156.5" cy="1240.4" r="0.7" fill="#FFFFFF" opacity="0.08"/><circle cx="590.7" cy="273.9" r="1.5" fill="#FFFFFF" opacity="0.37"/><circle cx="388.3" cy="1141.5" r="0.7" fill="#FFFFFF" opacity="0.38"/><circle cx="320.6" cy="1211.0" r="1.8" fill="#FFFFFF" opacity="0.49"/><circle cx="293.7" cy="218.4" r="1.2" fill="#FFFFFF" opacity="0.38"/><circle cx="1048.3" cy="415.4" r="1.0" fill="#FFFFFF" opacity="0.28"/><circle cx="148.7" cy="1361.4" r="1.7" fill="#FFFFFF" opacity="0.01"/><circle cx="319.9" cy="1290.9" r="0.9" fill="#FFFFFF" opacity="0.09"/><circle cx="1032.7" cy="963.5" r="1.6" fill="#FFFFFF" opacity="0.04"/><circle cx="843.3" cy="452.2" r="0.8" fill="#FFFFFF" opacity="0.37"/><circle cx="937.8" cy="234.3" r="1.5" fill="#FFFFFF" opacity="0.13"/><circle cx="265.7" cy="410.8" r="0.8" fill="#FFFFFF" opacity="0.25"/><circle cx="264.3" cy="432.3" r="2.0" fill="#FFFFFF" opacity="0.03"/><circle cx="885.7" cy="1080.3" r="1.3" fill="#FFFFFF" opacity="0.28"/><circle cx="976.2" cy="1079.0" r="1.1" fill="#FFFFFF" opacity="0.40"/><circle cx="595.2" cy="211.8" r="1.4" fill="#FFFFFF" opacity="0.05"/><circle cx="36.4" cy="231.0" r="1.2" fill="#FFFFFF" opacity="0.30"/><circle cx="529.3" cy="991.7" r="0.9" fill="#FFFFFF" opacity="0.49"/><circle cx="332.0" cy="1028.8" r="0.7" fill="#FFFFFF" opacity="0.20"/><circle cx="629.4" cy="321.8" r="2.0" fill="#FFFFFF" opacity="0.28"/><circle cx="747.2" cy="1.4" r="2.0" fill="#FFFFFF" opacity="0.26"/><circle cx="572.3" cy="155.2" r="1.3" fill="#FFFFFF" opacity="0.48"/><circle cx="43.6" cy="898.2" r="0.7" fill="#FFFFFF" opacity="0.11"/><circle cx="98.4" cy="1039.3" r="2.1" fill="#FFFFFF" opacity="0.32"/><circle cx="979.0" cy="602.3" r="0.7" fill="#FFFFFF" opacity="0.46"/><circle cx="85.7" cy="630.5" r="1.8" fill="#FFFFFF" opacity="0.38"/><circle cx="92.3" cy="963.6" r="1.7" fill="#FFFFFF" opacity="0.33"/><circle cx="229.2" cy="151.7" r="1.7" fill="#FFFFFF" opacity="0.31"/><circle cx="345.1" cy="1186.2" r="1.8" fill="#FFFFFF" opacity="0.12"/><circle cx="80.0" cy="269.2" r="1.8" fill="#FFFFFF" opacity="0.40"/><circle cx="865.1" cy="1302.1" r="2.1" fill="#FFFFFF" opacity="0.09"/><circle cx="174.9" cy="200.3" r="1.5" fill="#FFFFFF" opacity="0.16"/><circle cx="975.4" cy="159.1" r="1.4" fill="#FFFFFF" opacity="0.05"/><circle cx="187.8" cy="87.3" r="1.1" fill="#FFFFFF" opacity="0.25"/><circle cx="153.6" cy="955.6" r="1.0" fill="#FFFFFF" opacity="0.01"/><circle cx="985.9" cy="789.7" r="2.0" fill="#FFFFFF" opacity="0.03"/><circle cx="854.8" cy="253.9" r="1.5" fill="#FFFFFF" opacity="0.48"/><circle cx="1116.8" cy="275.6" r="1.5" fill="#FFFFFF" opacity="0.45"/><circle cx="282.8" cy="241.2" r="1.8" fill="#FFFFFF" opacity="0.43"/><circle cx="685.1" cy="617.3" r="1.6" fill="#FFFFFF" opacity="0.03"/><circle cx="545.1" cy="874.4" r="1.8" fill="#FFFFFF" opacity="0.35"/><circle cx="678.0" cy="485.0" r="1.9" fill="#FFFFFF" opacity="0.37"/><circle cx="116.1" cy="448.6" r="1.5" fill="#FFFFFF" opacity="0.43"/><circle cx="9.9" cy="443.8" r="1.3" fill="#FFFFFF" opacity="0.28"/><circle cx="665.1" cy="1126.7" r="0.9" fill="#FFFFFF" opacity="0.11"/><circle cx="32.5" cy="120.7" r="2.1" fill="#FFFFFF" opacity="0.48"/><circle cx="405.8" cy="791.8" r="1.5" fill="#FFFFFF" opacity="0.10"/><circle cx="470.9" cy="782.7" r="1.1" fill="#FFFFFF" opacity="0.06"/><circle cx="692.7" cy="1182.7" r="0.8" fill="#FFFFFF" opacity="0.26"/><circle cx="191.4" cy="470.8" r="1.1" fill="#FFFFFF" opacity="0.49"/><circle cx="1082.4" cy="1340.0" r="1.4" fill="#FFFFFF" opacity="0.34"/><circle cx="1036.3" cy="1288.6" r="0.9" fill="#FFFFFF" opacity="0.38"/><circle cx="397.7" cy="347.6" r="1.7" fill="#FFFFFF" opacity="0.38"/><circle cx="994.6" cy="1169.1" r="0.8" fill="#FFFFFF" opacity="0.10"/><circle cx="435.2" cy="1326.0" r="1.6" fill="#FFFFFF" opacity="0.37"/><circle cx="588.2" cy="397.5" r="1.1" fill="#FFFFFF" opacity="0.26"/><circle cx="461.6" cy="182.7" r="1.4" fill="#FFFFFF" opacity="0.20"/><circle cx="417.4" cy="1214.4" r="1.1" fill="#FFFFFF" opacity="0.06"/><circle cx="911.4" cy="133.9" r="1.6" fill="#FFFFFF" opacity="0.09"/><circle cx="683.3" cy="182.6" r="1.7" fill="#FFFFFF" opacity="0.24"/><circle cx="744.3" cy="342.2" r="1.3" fill="#FFFFFF" opacity="0.12"/><circle cx="498.5" cy="438.9" r="1.6" fill="#FFFFFF" opacity="0.12"/><circle cx="732.9" cy="450.1" r="1.1" fill="#FFFFFF" opacity="0.41"/></g><g font-family="ui-monospace, 'Cascadia Mono', Consolas, monospace" opacity="0.9">
    <rect x="931.7" y="1321.6" width="157.5" height="47.6" rx="23.8" fill="rgba(12,16,14,0.5)"/>
    <text x="1010.5" y="1354.0" text-anchor="middle" fill="#EDEAE3" font-size="23.8" letter-spacing="1.4">ARCH-02</text>
  </g></svg>