<svg xmlns="http://www.w3.org/2000/svg" viewBox="0 0 1500 1000" width="1500" height="1000" role="img" aria-label="Кровля-терраса" preserveAspectRatio="xMidYMid slice">
  <defs>
    <linearGradient id="sky" x1="0" y1="0" x2="0" y2="1">
      <stop offset="0" stop-color="#3C4A50"/>
      <stop offset="0.55" stop-color="#9C8368"/>
      <stop offset="1" stop-color="#E0AE73"/>
    </linearGradient>
    <radialGradient id="sunHalo" cx="0.66" cy="0.66" r="0.9">
      <stop offset="0" stop-color="#FFD79B" stop-opacity="0.34"/>
      <stop offset="0.5" stop-color="#FFD79B" stop-opacity="0.1"/>
      <stop offset="1" stop-color="#FFD79B" stop-opacity="0"/>
    </radialGradient>
    <radialGradient id="sun" cx="0.66" cy="0.66" r="0.3">
      <stop offset="0" stop-color="#FFD79B" stop-opacity="0.6"/>
      <stop offset="0.35" stop-color="#FFD79B" stop-opacity="0.2"/>
      <stop offset="0.72" stop-color="#FFD79B" stop-opacity="0.05"/>
      <stop offset="1" stop-color="#FFD79B" stop-opacity="0"/>
    </radialGradient>
  </defs>
  <rect width="1500" height="860" fill="url(#sky)"/>
  <rect width="1500" height="860" fill="url(#sunHalo)"/>
  <rect width="1500" height="860" fill="url(#sun)"/><path d="M -37.5 860.0 L -37.5 819.5 Q -22.3 784.4 -7.0 805.3 Q 16.5 791.4 40.1 838.8 Q 63.6 775.0 87.1 829.8 Q 114.9 791.2 142.6 814.5 Q 162.0 775.2 181.3 834.3 Q 210.2 808.1 239.1 837.8 Q 267.1 783.0 295.1 806.8 Q 313.9 797.8 332.8 833.1 Q 354.0 773.6 375.2 810.2 Q 389.1 801.7 403.0 836.9 Q 428.9 796.4 454.8 831.9 Q 485.2 783.9 515.6 814.3 Q 530.0 806.2 544.3 844.7 Q 566.4 768.6 588.5 805.0 Q 603.8 805.9 619.2 836.5 Q 642.2 780.2 665.2 825.4 Q 690.9 791.5 716.6 826.6 Q 738.1 794.0 759.7 840.2 Q 778.1 768.1 796.5 795.0 Q 817.0 800.8 837.5 827.6 Q 864.0 763.1 890.5 827.7 Q 903.0 765.0 915.5 824.2 Q 945.1 811.3 974.8 840.0 Q 997.0 821.2 1019.3 836.0 Q 1038.6 823.5 1057.9 842.1 Q 1084.6 768.0 1111.2 826.8 Q 1123.6 802.4 1136.1 824.9 Q 1161.8 785.5 1187.6 831.4 Q 1201.7 769.6 1215.8 811.5 Q 1245.6 808.7 1275.4 837.1 Q 1305.4 804.3 1335.4 837.1 Q 1362.9 762.9 1390.3 820.3 Q 1403.2 817.3 1416.0 839.4 Q 1438.2 784.7 1460.4 819.9 Q 1485.4 803.5 1510.4 836.7 Q 1526.0 809.8 1541.7 834.2 L 1541.7 860.0 Z" fill="#46554C" opacity="0.5"/><rect x="120.0" y="660.0" width="810.0" height="200.0" fill="#1E2628"/><rect x="120.0" y="660.0" width="129.6" height="200.0" fill="#000" opacity="0.22"/><rect x="176.7" y="672.0" width="696.6" height="20.0" fill="#9FB4BC" opacity="0.5"/><rect x="238.2" y="672.0" width="22.1" height="20.0" fill="#F0C489" opacity="0.67"/><rect x="673.6" y="672.0" width="22.1" height="20.0" fill="#F0C489" opacity="0.62"/><rect x="760.7" y="672.0" width="22.1" height="20.0" fill="#F0C489" opacity="0.56"/><rect x="789.7" y="672.0" width="22.1" height="20.0" fill="#F0C489" opacity="0.78"/><rect x="176.7" y="722.0" width="696.6" height="20.0" fill="#9FB4BC" opacity="0.5"/><rect x="267.3" y="722.0" width="22.1" height="20.0" fill="#F0C489" opacity="0.83"/><rect x="325.3" y="722.0" width="22.1" height="20.0" fill="#F0C489" opacity="0.77"/><rect x="354.3" y="722.0" width="22.1" height="20.0" fill="#F0C489" opacity="0.78"/><rect x="383.4" y="722.0" width="22.1" height="20.0" fill="#F0C489" opacity="0.69"/><rect x="528.5" y="722.0" width="22.1" height="20.0" fill="#F0C489" opacity="0.73"/><rect x="702.6" y="722.0" width="22.1" height="20.0" fill="#F0C489" opacity="0.53"/><rect x="176.7" y="772.0" width="696.6" height="20.0" fill="#9FB4BC" opacity="0.5"/><rect x="209.2" y="772.0" width="22.1" height="20.0" fill="#F0C489" opacity="0.79"/><rect x="238.2" y="772.0" width="22.1" height="20.0" fill="#F0C489" opacity="0.65"/><rect x="296.3" y="772.0" width="22.1" height="20.0" fill="#F0C489" opacity="0.50"/><rect x="383.4" y="772.0" width="22.1" height="20.0" fill="#F0C489" opacity="0.77"/><rect x="470.4" y="772.0" width="22.1" height="20.0" fill="#F0C489" opacity="0.77"/><rect x="760.7" y="772.0" width="22.1" height="20.0" fill="#F0C489" opacity="0.52"/><rect x="847.8" y="772.0" width="22.1" height="20.0" fill="#F0C489" opacity="0.74"/><rect x="176.7" y="822.0" width="696.6" height="20.0" fill="#9FB4BC" opacity="0.5"/><rect x="180.2" y="822.0" width="22.1" height="20.0" fill="#F0C489" opacity="0.63"/><rect x="209.2" y="822.0" width="22.1" height="20.0" fill="#F0C489" opacity="0.45"/><rect x="267.3" y="822.0" width="22.1" height="20.0" fill="#F0C489" opacity="0.76"/><rect x="325.3" y="822.0" width="22.1" height="20.0" fill="#F0C489" opacity="0.40"/><rect x="412.4" y="822.0" width="22.1" height="20.0" fill="#F0C489" opacity="0.65"/><rect x="644.6" y="822.0" width="22.1" height="20.0" fill="#F0C489" opacity="0.60"/><rect x="702.6" y="822.0" width="22.1" height="20.0" fill="#F0C489" opacity="0.81"/><rect x="760.7" y="822.0" width="22.1" height="20.0" fill="#F0C489" opacity="0.73"/><rect x="789.7" y="822.0" width="22.1" height="20.0" fill="#F0C489" opacity="0.43"/><rect x="120.0" y="655.5" width="810.0" height="4.5" fill="#C79A5E" opacity="0.72"/><rect x="184.8" y="460.0" width="680.4" height="200.0" fill="#1E2628"/><rect x="184.8" y="460.0" width="108.9" height="200.0" fill="#000" opacity="0.22"/><rect x="232.4" y="472.0" width="585.1" height="20.0" fill="#9FB4BC" opacity="0.5"/><rect x="235.9" y="472.0" width="22.2" height="20.0" fill="#F0C489" opacity="0.76"/><rect x="645.5" y="472.0" width="22.2" height="20.0" fill="#F0C489" opacity="0.71"/><rect x="232.4" y="522.0" width="585.1" height="20.0" fill="#9FB4BC" opacity="0.5"/><rect x="499.3" y="522.0" width="22.2" height="20.0" fill="#F0C489" opacity="0.50"/><rect x="674.8" y="522.0" width="22.2" height="20.0" fill="#F0C489" opacity="0.84"/><rect x="762.6" y="522.0" width="22.2" height="20.0" fill="#F0C489" opacity="0.54"/><rect x="232.4" y="572.0" width="585.1" height="20.0" fill="#9FB4BC" opacity="0.5"/><rect x="235.9" y="572.0" width="22.2" height="20.0" fill="#F0C489" opacity="0.78"/><rect x="440.7" y="572.0" width="22.2" height="20.0" fill="#F0C489" opacity="0.49"/><rect x="587.0" y="572.0" width="22.2" height="20.0" fill="#F0C489" opacity="0.67"/><rect x="616.3" y="572.0" width="22.2" height="20.0" fill="#F0C489" opacity="0.64"/><rect x="645.5" y="572.0" width="22.2" height="20.0" fill="#F0C489" opacity="0.78"/><rect x="232.4" y="622.0" width="585.1" height="20.0" fill="#9FB4BC" opacity="0.5"/><rect x="323.7" y="622.0" width="22.2" height="20.0" fill="#F0C489" opacity="0.43"/><rect x="557.8" y="622.0" width="22.2" height="20.0" fill="#F0C489" opacity="0.67"/><rect x="587.0" y="622.0" width="22.2" height="20.0" fill="#F0C489" opacity="0.57"/><rect x="184.8" y="455.5" width="680.4" height="4.5" fill="#C79A5E" opacity="0.72"/><rect x="249.6" y="260.0" width="571.5" height="200.0" fill="#1E2628"/><rect x="249.6" y="260.0" width="91.4" height="200.0" fill="#000" opacity="0.22"/><rect x="289.6" y="272.0" width="491.5" height="20.0" fill="#9FB4BC" opacity="0.5"/><rect x="322.0" y="272.0" width="22.0" height="20.0" fill="#F0C489" opacity="0.47"/><rect x="582.2" y="272.0" width="22.0" height="20.0" fill="#F0C489" opacity="0.63"/><rect x="668.9" y="272.0" width="22.0" height="20.0" fill="#F0C489" opacity="0.61"/><rect x="726.8" y="272.0" width="22.0" height="20.0" fill="#F0C489" opacity="0.54"/><rect x="289.6" y="322.0" width="491.5" height="20.0" fill="#9FB4BC" opacity="0.5"/><rect x="293.1" y="322.0" width="22.0" height="20.0" fill="#F0C489" opacity="0.55"/><rect x="466.6" y="322.0" width="22.0" height="20.0" fill="#F0C489" opacity="0.72"/><rect x="495.5" y="322.0" width="22.0" height="20.0" fill="#F0C489" opacity="0.54"/><rect x="289.6" y="372.0" width="491.5" height="20.0" fill="#9FB4BC" opacity="0.5"/><rect x="408.7" y="372.0" width="22.0" height="20.0" fill="#F0C489" opacity="0.70"/><rect x="466.6" y="372.0" width="22.0" height="20.0" fill="#F0C489" opacity="0.71"/><rect x="640.0" y="372.0" width="22.0" height="20.0" fill="#F0C489" opacity="0.68"/><rect x="697.9" y="372.0" width="22.0" height="20.0" fill="#F0C489" opacity="0.44"/><rect x="726.8" y="372.0" width="22.0" height="20.0" fill="#F0C489" opacity="0.42"/><rect x="289.6" y="422.0" width="491.5" height="20.0" fill="#9FB4BC" opacity="0.5"/><rect x="437.6" y="422.0" width="22.0" height="20.0" fill="#F0C489" opacity="0.51"/><rect x="553.3" y="422.0" width="22.0" height="20.0" fill="#F0C489" opacity="0.47"/><rect x="249.6" y="255.5" width="571.5" height="4.5" fill="#C79A5E" opacity="0.72"/><rect x="314.4" y="60.0" width="480.1" height="200.0" fill="#1E2628"/><rect x="314.4" y="60.0" width="76.8" height="200.0" fill="#000" opacity="0.22"/><rect x="348.0" y="72.0" width="412.9" height="20.0" fill="#9FB4BC" opacity="0.5"/><rect x="351.5" y="72.0" width="22.4" height="20.0" fill="#F0C489" opacity="0.57"/><rect x="499.0" y="72.0" width="22.4" height="20.0" fill="#F0C489" opacity="0.70"/><rect x="348.0" y="122.0" width="412.9" height="20.0" fill="#9FB4BC" opacity="0.5"/><rect x="351.5" y="122.0" width="22.4" height="20.0" fill="#F0C489" opacity="0.59"/><rect x="675.9" y="122.0" width="22.4" height="20.0" fill="#F0C489" opacity="0.56"/><rect x="348.0" y="172.0" width="412.9" height="20.0" fill="#9FB4BC" opacity="0.5"/><rect x="351.5" y="172.0" width="22.4" height="20.0" fill="#F0C489" opacity="0.44"/><rect x="499.0" y="172.0" width="22.4" height="20.0" fill="#F0C489" opacity="0.63"/><rect x="528.5" y="172.0" width="22.4" height="20.0" fill="#F0C489" opacity="0.75"/><rect x="348.0" y="222.0" width="412.9" height="20.0" fill="#9FB4BC" opacity="0.5"/><rect x="381.0" y="222.0" width="22.4" height="20.0" fill="#F0C489" opacity="0.80"/><rect x="469.5" y="222.0" width="22.4" height="20.0" fill="#F0C489" opacity="0.76"/><rect x="499.0" y="222.0" width="22.4" height="20.0" fill="#F0C489" opacity="0.73"/><rect x="675.9" y="222.0" width="22.4" height="20.0" fill="#F0C489" opacity="0.50"/><rect x="314.4" y="55.5" width="480.1" height="4.5" fill="#C79A5E" opacity="0.72"/><rect x="750.0" y="660.0" width="675.0" height="200.0" fill="#242D2E"/><rect x="750.0" y="660.0" width="108.0" height="200.0" fill="#000" opacity="0.22"/><rect x="797.3" y="672.0" width="580.5" height="20.0" fill="#9FB4BC" opacity="0.5"/><rect x="916.8" y="672.0" width="22.1" height="20.0" fill="#F0C489" opacity="0.41"/><rect x="1091.0" y="672.0" width="22.1" height="20.0" fill="#F0C489" opacity="0.70"/><rect x="1207.1" y="672.0" width="22.1" height="20.0" fill="#F0C489" opacity="0.68"/><rect x="1265.1" y="672.0" width="22.1" height="20.0" fill="#F0C489" opacity="0.74"/><rect x="1294.2" y="672.0" width="22.1" height="20.0" fill="#F0C489" opacity="0.50"/><rect x="1352.2" y="672.0" width="22.1" height="20.0" fill="#F0C489" opacity="0.63"/><rect x="797.3" y="722.0" width="580.5" height="20.0" fill="#9FB4BC" opacity="0.5"/><rect x="829.8" y="722.0" width="22.1" height="20.0" fill="#F0C489" opacity="0.76"/><rect x="916.8" y="722.0" width="22.1" height="20.0" fill="#F0C489" opacity="0.41"/><rect x="1062.0" y="722.0" width="22.1" height="20.0" fill="#F0C489" opacity="0.73"/><rect x="1120.0" y="722.0" width="22.1" height="20.0" fill="#F0C489" opacity="0.69"/><rect x="1294.2" y="722.0" width="22.1" height="20.0" fill="#F0C489" opacity="0.61"/><rect x="1323.2" y="722.0" width="22.1" height="20.0" fill="#F0C489" opacity="0.55"/><rect x="797.3" y="772.0" width="580.5" height="20.0" fill="#9FB4BC" opacity="0.5"/><rect x="974.9" y="772.0" width="22.1" height="20.0" fill="#F0C489" opacity="0.49"/><rect x="1032.9" y="772.0" width="22.1" height="20.0" fill="#F0C489" opacity="0.64"/><rect x="1062.0" y="772.0" width="22.1" height="20.0" fill="#F0C489" opacity="0.65"/><rect x="1149.0" y="772.0" width="22.1" height="20.0" fill="#F0C489" opacity="0.41"/><rect x="1178.1" y="772.0" width="22.1" height="20.0" fill="#F0C489" opacity="0.69"/><rect x="1323.2" y="772.0" width="22.1" height="20.0" fill="#F0C489" opacity="0.72"/><rect x="797.3" y="822.0" width="580.5" height="20.0" fill="#9FB4BC" opacity="0.5"/><rect x="916.8" y="822.0" width="22.1" height="20.0" fill="#F0C489" opacity="0.62"/><rect x="974.9" y="822.0" width="22.1" height="20.0" fill="#F0C489" opacity="0.60"/><rect x="1003.9" y="822.0" width="22.1" height="20.0" fill="#F0C489" opacity="0.75"/><rect x="1265.1" y="822.0" width="22.1" height="20.0" fill="#F0C489" opacity="0.47"/><rect x="1294.2" y="822.0" width="22.1" height="20.0" fill="#F0C489" opacity="0.82"/><rect x="750.0" y="655.5" width="675.0" height="4.5" fill="#C79A5E" opacity="0.72"/><rect x="804.0" y="460.0" width="567.0" height="200.0" fill="#242D2E"/><rect x="804.0" y="460.0" width="90.7" height="200.0" fill="#000" opacity="0.22"/><rect x="843.7" y="472.0" width="487.6" height="20.0" fill="#9FB4BC" opacity="0.5"/><rect x="847.1" y="472.0" width="21.8" height="20.0" fill="#F0C489" opacity="0.68"/><rect x="1191.3" y="472.0" width="21.8" height="20.0" fill="#F0C489" opacity="0.49"/><rect x="1220.0" y="472.0" width="21.8" height="20.0" fill="#F0C489" opacity="0.42"/><rect x="1248.7" y="472.0" width="21.8" height="20.0" fill="#F0C489" opacity="0.54"/><rect x="843.7" y="522.0" width="487.6" height="20.0" fill="#9FB4BC" opacity="0.5"/><rect x="990.5" y="522.0" width="21.8" height="20.0" fill="#F0C489" opacity="0.64"/><rect x="1019.2" y="522.0" width="21.8" height="20.0" fill="#F0C489" opacity="0.63"/><rect x="1047.9" y="522.0" width="21.8" height="20.0" fill="#F0C489" opacity="0.57"/><rect x="1076.6" y="522.0" width="21.8" height="20.0" fill="#F0C489" opacity="0.67"/><rect x="1105.3" y="522.0" width="21.8" height="20.0" fill="#F0C489" opacity="0.69"/><rect x="1134.0" y="522.0" width="21.8" height="20.0" fill="#F0C489" opacity="0.85"/><rect x="1248.7" y="522.0" width="21.8" height="20.0" fill="#F0C489" opacity="0.80"/><rect x="1277.4" y="522.0" width="21.8" height="20.0" fill="#F0C489" opacity="0.73"/><rect x="843.7" y="572.0" width="487.6" height="20.0" fill="#9FB4BC" opacity="0.5"/><rect x="904.5" y="572.0" width="21.8" height="20.0" fill="#F0C489" opacity="0.50"/><rect x="990.5" y="572.0" width="21.8" height="20.0" fill="#F0C489" opacity="0.44"/><rect x="1076.6" y="572.0" width="21.8" height="20.0" fill="#F0C489" opacity="0.78"/><rect x="1191.3" y="572.0" width="21.8" height="20.0" fill="#F0C489" opacity="0.69"/><rect x="1220.0" y="572.0" width="21.8" height="20.0" fill="#F0C489" opacity="0.47"/><rect x="1248.7" y="572.0" width="21.8" height="20.0" fill="#F0C489" opacity="0.58"/><rect x="843.7" y="622.0" width="487.6" height="20.0" fill="#9FB4BC" opacity="0.5"/><rect x="1134.0" y="622.0" width="21.8" height="20.0" fill="#F0C489" opacity="0.46"/><rect x="1220.0" y="622.0" width="21.8" height="20.0" fill="#F0C489" opacity="0.73"/><rect x="1248.7" y="622.0" width="21.8" height="20.0" fill="#F0C489" opacity="0.84"/><rect x="804.0" y="455.5" width="567.0" height="4.5" fill="#C79A5E" opacity="0.72"/><rect x="858.0" y="260.0" width="476.3" height="200.0" fill="#242D2E"/><rect x="858.0" y="260.0" width="76.2" height="200.0" fill="#000" opacity="0.22"/><rect x="891.3" y="272.0" width="409.6" height="20.0" fill="#9FB4BC" opacity="0.5"/><rect x="891.3" y="322.0" width="409.6" height="20.0" fill="#9FB4BC" opacity="0.5"/><rect x="924.1" y="322.0" width="22.2" height="20.0" fill="#F0C489" opacity="0.63"/><rect x="953.4" y="322.0" width="22.2" height="20.0" fill="#F0C489" opacity="0.76"/><rect x="891.3" y="372.0" width="409.6" height="20.0" fill="#9FB4BC" opacity="0.5"/><rect x="1041.1" y="372.0" width="22.2" height="20.0" fill="#F0C489" opacity="0.59"/><rect x="1216.7" y="372.0" width="22.2" height="20.0" fill="#F0C489" opacity="0.71"/><rect x="1245.9" y="372.0" width="22.2" height="20.0" fill="#F0C489" opacity="0.45"/><rect x="891.3" y="422.0" width="409.6" height="20.0" fill="#9FB4BC" opacity="0.5"/><rect x="894.9" y="422.0" width="22.2" height="20.0" fill="#F0C489" opacity="0.52"/><rect x="953.4" y="422.0" width="22.2" height="20.0" fill="#F0C489" opacity="0.71"/><rect x="1041.1" y="422.0" width="22.2" height="20.0" fill="#F0C489" opacity="0.49"/><rect x="1070.4" y="422.0" width="22.2" height="20.0" fill="#F0C489" opacity="0.63"/><rect x="1128.9" y="422.0" width="22.2" height="20.0" fill="#F0C489" opacity="0.66"/><rect x="1275.2" y="422.0" width="22.2" height="20.0" fill="#F0C489" opacity="0.63"/><rect x="858.0" y="255.5" width="476.3" height="4.5" fill="#C79A5E" opacity="0.72"/><rect y="860.0" width="1500" height="140.0" fill="#2A322C"/><rect y="860.0" width="1500" height="4.0" fill="#C79A5E" opacity="0.5"/><g opacity="0.05"><circle cx="1053.9" cy="495.2" r="0.7" fill="#FFFFFF" opacity="0.26"/><circle cx="598.7" cy="530.6" r="1.8" fill="#FFFFFF" opacity="0.10"/><circle cx="1449.7" cy="578.3" r="1.0" fill="#FFFFFF" opacity="0.18"/><circle cx="569.5" cy="487.0" r="2.1" fill="#FFFFFF" opacity="0.41"/><circle cx="572.6" cy="800.6" r="1.2" fill="#FFFFFF" opacity="0.14"/><circle cx="1214.9" cy="815.2" r="1.0" fill="#FFFFFF" opacity="0.44"/><circle cx="1465.6" cy="575.9" r="1.5" fill="#FFFFFF" opacity="0.01"/><circle cx="191.3" cy="272.9" r="2.0" fill="#FFFFFF" opacity="0.26"/><circle cx="1006.6" cy="446.1" r="1.4" fill="#FFFFFF" opacity="0.35"/><circle cx="51.6" cy="528.9" r="0.8" fill="#FFFFFF" opacity="0.01"/><circle cx="1341.2" cy="409.1" r="0.7" fill="#FFFFFF" opacity="0.14"/><circle cx="710.6" cy="167.9" r="1.9" fill="#FFFFFF" opacity="0.26"/><circle cx="1286.8" cy="861.7" r="1.3" fill="#FFFFFF" opacity="0.26"/><circle cx="1023.9" cy="951.0" r="1.6" fill="#FFFFFF" opacity="0.02"/><circle cx="1278.0" cy="132.5" r="1.0" fill="#FFFFFF" opacity="0.13"/><circle cx="858.0" cy="439.5" r="0.6" fill="#FFFFFF" opacity="0.45"/><circle cx="613.7" cy="368.3" r="0.6" fill="#FFFFFF" opacity="0.08"/><circle cx="68.9" cy="490.1" r="1.3" fill="#FFFFFF" opacity="0.40"/><circle cx="949.1" cy="457.5" r="1.0" fill="#FFFFFF" opacity="0.12"/><circle cx="1109.5" cy="590.7" r="1.6" fill="#FFFFFF" opacity="0.30"/><circle cx="1215.8" cy="521.9" r="1.0" fill="#FFFFFF" opacity="0.15"/><circle cx="854.8" cy="8.1" r="2.0" fill="#FFFFFF" opacity="0.16"/><circle cx="407.6" cy="131.2" r="1.2" fill="#FFFFFF" opacity="0.41"/><circle cx="1431.9" cy="978.7" r="0.9" fill="#FFFFFF" opacity="0.45"/><circle cx="236.3" cy="155.4" r="0.9" fill="#FFFFFF" opacity="0.48"/><circle cx="1328.0" cy="921.6" r="0.8" fill="#FFFFFF" opacity="0.13"/><circle cx="1148.9" cy="555.1" r="1.5" fill="#FFFFFF" opacity="0.29"/><circle cx="1418.6" cy="727.5" r="0.8" fill="#FFFFFF" opacity="0.26"/><circle cx="356.6" cy="262.6" r="1.6" fill="#FFFFFF" opacity="0.05"/><circle cx="1305.6" cy="324.0" r="0.8" fill="#FFFFFF" opacity="0.08"/><circle cx="844.3" cy="720.6" r="0.7" fill="#FFFFFF" opacity="0.06"/><circle cx="920.9" cy="429.5" r="2.0" fill="#FFFFFF" opacity="0.18"/><circle cx="1297.8" cy="887.0" r="1.5" fill="#FFFFFF" opacity="0.02"/><circle cx="1478.6" cy="56.1" r="1.3" fill="#FFFFFF" opacity="0.41"/><circle cx="1299.3" cy="84.4" r="1.0" fill="#FFFFFF" opacity="0.20"/><circle cx="663.4" cy="609.7" r="0.7" fill="#FFFFFF" opacity="0.21"/><circle cx="594.4" cy="351.1" r="1.2" fill="#FFFFFF" opacity="0.45"/><circle cx="1404.2" cy="21.0" r="0.6" fill="#FFFFFF" opacity="0.44"/><circle cx="849.9" cy="987.4" r="1.2" fill="#FFFFFF" opacity="0.26"/><circle cx="1114.1" cy="744.2" r="1.4" fill="#FFFFFF" opacity="0.42"/><circle cx="976.1" cy="29.5" r="1.6" fill="#FFFFFF" opacity="0.48"/><circle cx="1399.1" cy="19.4" r="0.7" fill="#FFFFFF" opacity="0.40"/><circle cx="151.6" cy="474.2" r="0.6" fill="#FFFFFF" opacity="0.14"/><circle cx="235.5" cy="468.3" r="1.3" fill="#FFFFFF" opacity="0.35"/><circle cx="1126.1" cy="399.0" r="1.2" fill="#FFFFFF" opacity="0.45"/><circle cx="1048.6" cy="962.9" r="2.0" fill="#FFFFFF" opacity="0.38"/><circle cx="1322.6" cy="66.7" r="2.0" fill="#FFFFFF" opacity="0.38"/><circle cx="1311.6" cy="190.4" r="1.2" fill="#FFFFFF" opacity="0.08"/><circle cx="915.5" cy="613.9" r="0.9" fill="#FFFFFF" opacity="0.03"/><circle cx="1497.5" cy="488.3" r="1.6" fill="#FFFFFF" opacity="0.41"/><circle cx="896.2" cy="839.9" r="1.8" fill="#FFFFFF" opacity="0.02"/><circle cx="220.2" cy="294.4" r="1.5" fill="#FFFFFF" opacity="0.39"/><circle cx="816.5" cy="197.3" r="0.8" fill="#FFFFFF" opacity="0.34"/><circle cx="976.9" cy="22.9" r="1.4" fill="#FFFFFF" opacity="0.36"/><circle cx="408.1" cy="792.9" r="0.8" fill="#FFFFFF" opacity="0.16"/><circle cx="297.1" cy="602.7" r="1.9" fill="#FFFFFF" opacity="0.34"/><circle cx="293.7" cy="3.3" r="1.0" fill="#FFFFFF" opacity="0.32"/><circle cx="985.2" cy="918.4" r="2.1" fill="#FFFFFF" opacity="0.15"/><circle cx="1352.6" cy="58.9" r="0.6" fill="#FFFFFF" opacity="0.36"/><circle cx="1428.6" cy="696.0" r="0.7" fill="#FFFFFF" opacity="0.29"/><circle cx="499.3" cy="447.7" r="1.9" fill="#FFFFFF" opacity="0.24"/><circle cx="13.8" cy="326.4" r="1.6" fill="#FFFFFF" opacity="0.17"/><circle cx="545.6" cy="389.6" r="1.6" fill="#FFFFFF" opacity="0.39"/><circle cx="1203.4" cy="362.2" r="1.3" fill="#FFFFFF" opacity="0.45"/><circle cx="380.5" cy="308.1" r="1.6" fill="#FFFFFF" opacity="0.08"/><circle cx="188.0" cy="917.2" r="1.8" fill="#FFFFFF" opacity="0.43"/><circle cx="1081.4" cy="496.8" r="0.6" fill="#FFFFFF" opacity="0.37"/><circle cx="440.3" cy="722.4" r="0.7" fill="#FFFFFF" opacity="0.37"/><circle cx="248.8" cy="41.9" r="1.6" fill="#FFFFFF" opacity="0.32"/><circle cx="414.5" cy="186.3" r="0.9" fill="#FFFFFF" opacity="0.38"/><circle cx="96.5" cy="951.3" r="1.5" fill="#FFFFFF" opacity="0.07"/><circle cx="887.4" cy="412.7" r="1.7" fill="#FFFFFF" opacity="0.11"/><circle cx="195.3" cy="504.9" r="0.8" fill="#FFFFFF" opacity="0.28"/><circle cx="691.4" cy="452.0" r="2.1" fill="#FFFFFF" opacity="0.23"/><circle cx="325.4" cy="773.4" r="1.0" fill="#FFFFFF" opacity="0.09"/><circle cx="1490.1" cy="866.8" r="1.1" fill="#FFFFFF" opacity="0.26"/><circle cx="1256.0" cy="761.3" r="1.6" fill="#FFFFFF" opacity="0.47"/><circle cx="1413.6" cy="573.6" r="0.7" fill="#FFFFFF" opacity="0.42"/><circle cx="63.3" cy="780.4" r="1.2" fill="#FFFFFF" opacity="0.19"/><circle cx="719.9" cy="865.1" r="0.6" fill="#FFFFFF" opacity="0.06"/><circle cx="248.1" cy="123.9" r="1.7" fill="#FFFFFF" opacity="0.26"/><circle cx="817.4" cy="434.9" r="0.8" fill="#FFFFFF" opacity="0.22"/><circle cx="954.2" cy="602.1" r="0.6" fill="#FFFFFF" opacity="0.05"/><circle cx="1281.0" cy="52.1" r="0.9" fill="#FFFFFF" opacity="0.21"/><circle cx="1128.1" cy="444.4" r="1.0" fill="#FFFFFF" opacity="0.27"/><circle cx="855.7" cy="509.4" r="1.5" fill="#FFFFFF" opacity="0.33"/><circle cx="1214.2" cy="496.0" r="1.8" fill="#FFFFFF" opacity="0.09"/><circle cx="257.3" cy="175.2" r="0.7" fill="#FFFFFF" opacity="0.03"/><circle cx="55.3" cy="859.6" r="1.8" fill="#FFFFFF" opacity="0.21"/><circle cx="403.2" cy="836.8" r="1.1" fill="#FFFFFF" opacity="0.17"/><circle cx="676.6" cy="202.0" r="0.7" fill="#FFFFFF" opacity="0.11"/><circle cx="506.2" cy="944.9" r="1.1" fill="#FFFFFF" opacity="0.15"/><circle cx="86.4" cy="869.1" r="1.7" fill="#FFFFFF" opacity="0.34"/><circle cx="32.2" cy="417.0" r="1.8" fill="#FFFFFF" opacity="0.45"/><circle cx="920.1" cy="253.8" r="0.9" fill="#FFFFFF" opacity="0.35"/><circle cx="1426.5" cy="685.9" r="1.5" fill="#FFFFFF" opacity="0.11"/><circle cx="96.7" cy="18.3" r="1.2" fill="#FFFFFF" opacity="0.45"/><circle cx="741.8" cy="879.5" r="0.9" fill="#FFFFFF" opacity="0.34"/><circle cx="776.9" cy="669.1" r="1.1" fill="#FFFFFF" opacity="0.30"/><circle cx="216.8" cy="920.7" r="1.4" fill="#FFFFFF" opacity="0.27"/><circle cx="706.1" cy="997.5" r="1.3" fill="#FFFFFF" opacity="0.38"/><circle cx="1191.6" cy="743.6" r="1.0" fill="#FFFFFF" opacity="0.41"/><circle cx="1128.6" cy="404.8" r="1.9" fill="#FFFFFF" opacity="0.47"/><circle cx="753.4" cy="403.6" r="0.9" fill="#FFFFFF" opacity="0.32"/><circle cx="559.8" cy="170.2" r="0.9" fill="#FFFFFF" opacity="0.35"/><circle cx="1174.6" cy="657.9" r="1.0" fill="#FFFFFF" opacity="0.00"/><circle cx="266.8" cy="474.9" r="1.1" fill="#FFFFFF" opacity="0.30"/><circle cx="946.4" cy="614.4" r="0.8" fill="#FFFFFF" opacity="0.45"/><circle cx="131.7" cy="797.2" r="1.8" fill="#FFFFFF" opacity="0.24"/><circle cx="912.3" cy="300.0" r="0.8" fill="#FFFFFF" opacity="0.18"/><circle cx="1056.7" cy="710.8" r="1.2" fill="#FFFFFF" opacity="0.25"/><circle cx="1172.3" cy="778.6" r="1.9" fill="#FFFFFF" opacity="0.04"/><circle cx="114.4" cy="347.1" r="1.6" fill="#FFFFFF" opacity="0.13"/><circle cx="81.1" cy="768.9" r="0.9" fill="#FFFFFF" opacity="0.47"/><circle cx="98.1" cy="54.4" r="1.7" fill="#FFFFFF" opacity="0.17"/><circle cx="1057.3" cy="476.6" r="1.0" fill="#FFFFFF" opacity="0.48"/><circle cx="1131.3" cy="868.6" r="1.3" fill="#FFFFFF" opacity="0.06"/><circle cx="877.2" cy="940.1" r="1.0" fill="#FFFFFF" opacity="0.02"/><circle cx="291.1" cy="561.6" r="1.8" fill="#FFFFFF" opacity="0.11"/><circle cx="772.2" cy="73.5" r="1.7" fill="#FFFFFF" opacity="0.05"/><circle cx="1089.8" cy="536.8" r="1.2" fill="#FFFFFF" opacity="0.28"/><circle cx="979.5" cy="386.5" r="0.6" fill="#FFFFFF" opacity="0.04"/><circle cx="567.7" cy="238.7" r="0.7" fill="#FFFFFF" opacity="0.17"/><circle cx="1180.7" cy="601.0" r="2.0" fill="#FFFFFF" opacity="0.44"/><circle cx="89.2" cy="757.7" r="1.2" fill="#FFFFFF" opacity="0.33"/><circle cx="102.9" cy="216.7" r="0.7" fill="#FFFFFF" opacity="0.04"/><circle cx="1036.9" cy="759.2" r="0.6" fill="#FFFFFF" opacity="0.27"/><circle cx="1002.9" cy="648.5" r="1.9" fill="#FFFFFF" opacity="0.09"/><circle cx="151.3" cy="93.5" r="1.9" fill="#FFFFFF" opacity="0.21"/><circle cx="65.5" cy="800.2" r="1.9" fill="#FFFFFF" opacity="0.44"/><circle cx="1425.2" cy="878.7" r="1.7" fill="#FFFFFF" opacity="0.29"/><circle cx="871.8" cy="879.5" r="1.2" fill="#FFFFFF" opacity="0.47"/><circle cx="1473.2" cy="301.0" r="1.1" fill="#FFFFFF" opacity="0.37"/><circle cx="248.5" cy="123.3" r="1.5" fill="#FFFFFF" opacity="0.33"/><circle cx="1397.9" cy="614.0" r="2.0" fill="#FFFFFF" opacity="0.20"/><circle cx="95.8" cy="411.2" r="2.1" fill="#FFFFFF" opacity="0.15"/><circle cx="896.1" cy="422.4" r="1.3" fill="#FFFFFF" opacity="0.17"/><circle cx="365.8" cy="75.6" r="1.6" fill="#FFFFFF" opacity="0.18"/><circle cx="386.8" cy="508.8" r="1.0" fill="#FFFFFF" opacity="0.16"/><circle cx="779.2" cy="176.5" r="1.0" fill="#FFFFFF" opacity="0.35"/><circle cx="699.7" cy="223.5" r="1.7" fill="#FFFFFF" opacity="0.34"/><circle cx="30.5" cy="955.5" r="1.5" fill="#FFFFFF" opacity="0.43"/><circle cx="200.2" cy="323.1" r="1.4" fill="#FFFFFF" opacity="0.15"/><circle cx="667.3" cy="223.4" r="2.0" fill="#FFFFFF" opacity="0.29"/><circle cx="850.5" cy="451.1" r="1.3" fill="#FFFFFF" opacity="0.23"/><circle cx="1118.7" cy="942.3" r="0.7" fill="#FFFFFF" opacity="0.04"/><circle cx="338.8" cy="44.6" r="1.9" fill="#FFFFFF" opacity="0.05"/><circle cx="927.6" cy="966.3" r="2.0" fill="#FFFFFF" opacity="0.42"/><circle cx="41.4" cy="396.7" r="1.9" fill="#FFFFFF" opacity="0.37"/><circle cx="48.6" cy="417.1" r="1.3" fill="#FFFFFF" opacity="0.36"/><circle cx="1410.4" cy="770.9" r="0.7" fill="#FFFFFF" opacity="0.12"/><circle cx="1284.9" cy="691.7" r="0.6" fill="#FFFFFF" opacity="0.16"/><circle cx="1458.5" cy="448.4" r="0.8" fill="#FFFFFF" opacity="0.26"/><circle cx="554.0" cy="985.8" r="2.0" fill="#FFFFFF" opacity="0.35"/><circle cx="158.4" cy="463.1" r="1.3" fill="#FFFFFF" opacity="0.14"/><circle cx="1214.9" cy="93.4" r="1.5" fill="#FFFFFF" opacity="0.38"/><circle cx="699.7" cy="931.9" r="1.7" fill="#FFFFFF" opacity="0.43"/><circle cx="1223.5" cy="984.9" r="2.0" fill="#FFFFFF" opacity="0.39"/><circle cx="890.8" cy="547.6" r="1.2" fill="#FFFFFF" opacity="0.21"/><circle cx="1118.3" cy="371.5" r="0.7" fill="#FFFFFF" opacity="0.13"/><circle cx="764.9" cy="696.1" r="1.6" fill="#FFFFFF" opacity="0.19"/><circle cx="225.1" cy="475.4" r="0.7" fill="#FFFFFF" opacity="0.25"/><circle cx="810.2" cy="770.6" r="1.0" fill="#FFFFFF" opacity="0.22"/><circle cx="1100.1" cy="413.6" r="2.1" fill="#FFFFFF" opacity="0.23"/><circle cx="1177.7" cy="760.2" r="1.2" fill="#FFFFFF" opacity="0.38"/><circle cx="605.3" cy="963.2" r="2.1" fill="#FFFFFF" opacity="0.11"/><circle cx="493.5" cy="916.3" r="2.1" fill="#FFFFFF" opacity="0.07"/><circle cx="415.1" cy="868.6" r="1.4" fill="#FFFFFF" opacity="0.05"/><circle cx="434.8" cy="551.8" r="0.9" fill="#FFFFFF" opacity="0.39"/><circle cx="1311.5" cy="620.0" r="0.7" fill="#FFFFFF" opacity="0.21"/><circle cx="1142.4" cy="76.0" r="1.9" fill="#FFFFFF" opacity="0.23"/><circle cx="99.9" cy="58.4" r="1.4" fill="#FFFFFF" opacity="0.19"/><circle cx="461.3" cy="372.6" r="2.0" fill="#FFFFFF" opacity="0.47"/><circle cx="242.2" cy="997.2" r="1.6" fill="#FFFFFF" opacity="0.07"/><circle cx="2.6" cy="138.4" r="1.8" fill="#FFFFFF" opacity="0.11"/><circle cx="66.2" cy="565.3" r="2.1" fill="#FFFFFF" opacity="0.11"/><circle cx="1477.2" cy="179.7" r="1.5" fill="#FFFFFF" opacity="0.19"/><circle cx="846.2" cy="362.3" r="1.4" fill="#FFFFFF" opacity="0.07"/><circle cx="1471.7" cy="844.1" r="1.8" fill="#FFFFFF" opacity="0.20"/><circle cx="1361.3" cy="421.8" r="1.3" fill="#FFFFFF" opacity="0.18"/><circle cx="1189.8" cy="717.6" r="1.2" fill="#FFFFFF" opacity="0.25"/><circle cx="149.8" cy="2.9" r="1.2" fill="#FFFFFF" opacity="0.28"/><circle cx="114.8" cy="251.1" r="0.7" fill="#FFFFFF" opacity="0.16"/><circle cx="908.3" cy="71.2" r="0.7" fill="#FFFFFF" opacity="0.48"/><circle cx="161.6" cy="238.3" r="1.8" fill="#FFFFFF" opacity="0.46"/><circle cx="138.4" cy="259.7" r="0.9" fill="#FFFFFF" opacity="0.37"/><circle cx="94.7" cy="144.1" r="0.8" fill="#FFFFFF" opacity="0.35"/><circle cx="237.7" cy="298.4" r="1.0" fill="#FFFFFF" opacity="0.33"/><circle cx="1368.0" cy="76.1" r="1.4" fill="#FFFFFF" opacity="0.16"/><circle cx="567.8" cy="920.5" r="0.9" fill="#FFFFFF" opacity="0.42"/></g><g font-family="ui-monospace, 'Cascadia Mono', Consolas, monospace" opacity="0.9">
    <rect x="1298.3" y="916.0" width="168.8" height="51.0" rx="25.5" fill="rgba(12,16,14,0.5)"/>
    <text x="1382.6" y="950.7" text-anchor="middle" fill="#EDEAE3" font-size="25.5" letter-spacing="1.5">ARCH-10</text>
  </g></svg>