<svg xmlns="http://www.w3.org/2000/svg" viewBox="0 0 1600 900" width="1600" height="900" role="img" aria-label="Кромка берега в синий час" preserveAspectRatio="xMidYMid slice">
  <defs>
    <linearGradient id="sky" x1="0" y1="0" x2="0" y2="1">
      <stop offset="0" stop-color="#1B242B"/>
      <stop offset="0.55" stop-color="#3B4750"/>
      <stop offset="1" stop-color="#8E7C6B"/>
    </linearGradient>
    <radialGradient id="sunHalo" cx="0.66" cy="0.72" r="0.9">
      <stop offset="0" stop-color="#E5B588" stop-opacity="0.34"/>
      <stop offset="0.5" stop-color="#E5B588" stop-opacity="0.1"/>
      <stop offset="1" stop-color="#E5B588" stop-opacity="0"/>
    </radialGradient>
    <radialGradient id="sun" cx="0.66" cy="0.72" r="0.3">
      <stop offset="0" stop-color="#E5B588" stop-opacity="0.6"/>
      <stop offset="0.35" stop-color="#E5B588" stop-opacity="0.2"/>
      <stop offset="0.72" stop-color="#E5B588" stop-opacity="0.05"/>
      <stop offset="1" stop-color="#E5B588" stop-opacity="0"/>
    </radialGradient>
  </defs>
  <rect width="1600" height="468" fill="url(#sky)"/>
  <rect width="1600" height="468" fill="url(#sunHalo)"/>
  <rect width="1600" height="468" fill="url(#sun)"/><path d="M -26.7 468.0 L -26.7 427.5 Q -15.5 381.6 -4.3 411.7 Q 4.6 387.9 13.4 412.2 Q 26.4 385.1 39.3 440.2 Q 57.0 382.3 74.7 439.6 Q 83.7 423.3 92.8 452.0 Q 103.3 426.4 113.8 442.3 Q 133.7 418.4 153.5 438.8 Q 164.9 424.4 176.4 449.4 Q 188.4 379.0 200.5 425.9 Q 211.2 427.0 221.8 449.0 Q 231.6 391.6 241.4 417.8 Q 254.1 395.7 266.9 438.4 Q 284.6 425.2 302.4 446.0 Q 316.7 405.9 331.0 423.8 Q 350.9 397.1 370.8 441.6 Q 391.6 405.2 412.4 441.5 Q 429.6 429.0 446.8 453.1 Q 466.5 381.9 486.2 416.4 Q 498.3 429.0 510.5 441.3 Q 525.3 383.9 540.1 416.4 Q 558.5 383.7 576.9 431.3 Q 590.9 384.3 605.0 438.9 Q 616.1 390.6 627.2 434.7 Q 646.1 408.9 665.0 450.3 Q 677.0 374.0 689.0 414.1 Q 702.3 400.7 715.5 426.9 Q 733.3 402.8 751.1 428.2 Q 760.9 413.2 770.7 447.4 Q 791.2 400.5 811.7 436.9 Q 822.1 394.3 832.5 436.9 Q 847.4 410.3 862.4 442.4 Q 878.4 393.6 894.5 444.8 Q 909.7 389.1 924.9 424.9 Q 946.4 416.0 968.0 433.8 Q 977.0 375.1 986.0 429.7 Q 1002.1 372.3 1018.2 437.0 Q 1031.4 416.7 1044.6 440.1 Q 1054.1 401.4 1063.6 444.7 Q 1074.8 398.2 1086.0 420.5 Q 1106.4 404.7 1126.9 438.8 Q 1142.0 379.4 1157.2 418.2 Q 1169.2 394.0 1181.3 415.1 Q 1197.6 424.9 1213.9 442.1 Q 1223.1 370.5 1232.2 429.1 Q 1245.8 430.5 1259.4 448.4 Q 1272.8 424.8 1286.3 442.9 Q 1306.5 398.6 1326.6 428.6 Q 1342.0 407.7 1357.4 432.4 Q 1375.6 379.4 1393.8 406.6 Q 1412.9 376.7 1432.0 438.4 Q 1445.4 417.6 1458.8 449.5 Q 1472.9 417.7 1486.9 435.6 Q 1505.2 404.1 1523.6 423.8 Q 1545.2 389.7 1566.9 424.9 Q 1586.2 375.2 1605.5 435.4 Q 1619.4 372.6 1633.3 402.5 L 1633.3 468.0 Z" fill="#5A6A63" opacity="0.35"/><path d="M -36.4 468.0 L -36.4 433.6 Q -6.5 425.0 23.3 447.2 Q 44.0 424.2 64.7 437.0 Q 89.4 434.7 114.0 450.3 Q 136.0 390.1 157.9 423.9 Q 180.2 397.9 202.4 437.3 Q 230.6 431.9 258.8 446.3 Q 287.6 389.0 316.3 438.6 Q 345.7 406.4 375.0 442.0 Q 401.1 420.6 427.2 439.0 Q 447.1 411.2 467.0 434.7 Q 480.0 398.0 493.0 438.1 Q 512.4 386.9 531.7 435.9 Q 544.2 404.6 556.7 425.7 Q 570.4 408.8 584.2 450.5 Q 600.4 429.7 616.5 446.6 Q 645.1 434.0 673.7 455.4 Q 697.1 430.8 720.5 451.3 Q 748.0 422.2 775.5 447.3 Q 796.7 408.0 818.0 439.1 Q 844.3 424.5 870.5 453.3 Q 882.9 410.8 895.2 447.6 Q 922.0 408.3 948.8 442.4 Q 960.7 384.7 972.6 440.5 Q 993.6 436.3 1014.7 448.3 Q 1043.6 401.9 1072.4 447.1 Q 1099.9 415.1 1127.4 450.4 Q 1139.2 394.0 1151.0 443.4 Q 1177.6 409.6 1204.2 435.1 Q 1229.9 396.8 1255.6 426.8 Q 1285.4 400.8 1315.2 421.0 Q 1330.4 434.2 1345.7 448.9 Q 1372.6 407.5 1399.5 430.5 Q 1414.2 416.5 1428.9 436.1 Q 1457.0 415.1 1485.1 444.7 Q 1507.3 424.3 1529.6 445.8 Q 1542.4 402.2 1555.2 447.7 Q 1567.8 425.2 1580.5 452.0 Q 1600.4 412.4 1620.2 446.4 Q 1639.5 415.7 1658.7 444.4 L 1658.7 468.0 Z" fill="#41504A" opacity="0.55"/><rect x="96.0" y="351.0" width="240.0" height="117.0" fill="#222B2C"/><rect x="96.0" y="351.0" width="38.4" height="117.0" fill="#000" opacity="0.22"/><rect x="112.8" y="356.6" width="206.4" height="9.4" fill="#9FB4BC" opacity="0.5"/><rect x="263.8" y="356.6" width="22.4" height="9.4" fill="#F0C489" opacity="0.44"/><rect x="112.8" y="380.0" width="206.4" height="9.4" fill="#9FB4BC" opacity="0.5"/><rect x="145.8" y="380.0" width="22.4" height="9.4" fill="#F0C489" opacity="0.46"/><rect x="293.3" y="380.0" width="22.4" height="9.4" fill="#F0C489" opacity="0.73"/><rect x="112.8" y="403.4" width="206.4" height="9.4" fill="#9FB4BC" opacity="0.5"/><rect x="145.8" y="403.4" width="22.4" height="9.4" fill="#F0C489" opacity="0.69"/><rect x="112.8" y="426.8" width="206.4" height="9.4" fill="#9FB4BC" opacity="0.5"/><rect x="234.3" y="426.8" width="22.4" height="9.4" fill="#F0C489" opacity="0.56"/><rect x="293.3" y="426.8" width="22.4" height="9.4" fill="#F0C489" opacity="0.70"/><rect x="112.8" y="450.2" width="206.4" height="9.4" fill="#9FB4BC" opacity="0.5"/><rect x="175.3" y="450.2" width="22.4" height="9.4" fill="#F0C489" opacity="0.55"/><rect x="234.3" y="450.2" width="22.4" height="9.4" fill="#F0C489" opacity="0.68"/><rect x="96.0" y="348.9" width="240.0" height="2.1" fill="#C79A5E" opacity="0.72"/><rect x="115.2" y="234.0" width="201.6" height="117.0" fill="#222B2C"/><rect x="115.2" y="234.0" width="32.3" height="117.0" fill="#000" opacity="0.22"/><rect x="129.3" y="239.6" width="173.4" height="9.4" fill="#9FB4BC" opacity="0.5"/><rect x="190.6" y="239.6" width="22.0" height="9.4" fill="#F0C489" opacity="0.69"/><rect x="219.5" y="239.6" width="22.0" height="9.4" fill="#F0C489" opacity="0.46"/><rect x="248.4" y="239.6" width="22.0" height="9.4" fill="#F0C489" opacity="0.81"/><rect x="277.3" y="239.6" width="22.0" height="9.4" fill="#F0C489" opacity="0.63"/><rect x="129.3" y="263.0" width="173.4" height="9.4" fill="#9FB4BC" opacity="0.5"/><rect x="132.8" y="263.0" width="22.0" height="9.4" fill="#F0C489" opacity="0.76"/><rect x="190.6" y="263.0" width="22.0" height="9.4" fill="#F0C489" opacity="0.83"/><rect x="219.5" y="263.0" width="22.0" height="9.4" fill="#F0C489" opacity="0.82"/><rect x="248.4" y="263.0" width="22.0" height="9.4" fill="#F0C489" opacity="0.81"/><rect x="277.3" y="263.0" width="22.0" height="9.4" fill="#F0C489" opacity="0.69"/><rect x="129.3" y="286.4" width="173.4" height="9.4" fill="#9FB4BC" opacity="0.5"/><rect x="161.7" y="286.4" width="22.0" height="9.4" fill="#F0C489" opacity="0.56"/><rect x="277.3" y="286.4" width="22.0" height="9.4" fill="#F0C489" opacity="0.44"/><rect x="129.3" y="309.8" width="173.4" height="9.4" fill="#9FB4BC" opacity="0.5"/><rect x="129.3" y="333.2" width="173.4" height="9.4" fill="#9FB4BC" opacity="0.5"/><rect x="190.6" y="333.2" width="22.0" height="9.4" fill="#F0C489" opacity="0.71"/><rect x="248.4" y="333.2" width="22.0" height="9.4" fill="#F0C489" opacity="0.78"/><rect x="115.2" y="231.9" width="201.6" height="2.1" fill="#C79A5E" opacity="0.72"/><rect x="134.4" y="117.0" width="169.3" height="117.0" fill="#222B2C"/><rect x="134.4" y="117.0" width="27.1" height="117.0" fill="#000" opacity="0.22"/><rect x="146.3" y="122.6" width="145.6" height="9.4" fill="#9FB4BC" opacity="0.5"/><rect x="208.0" y="122.6" width="22.1" height="9.4" fill="#F0C489" opacity="0.46"/><rect x="266.3" y="122.6" width="22.1" height="9.4" fill="#F0C489" opacity="0.50"/><rect x="146.3" y="146.0" width="145.6" height="9.4" fill="#9FB4BC" opacity="0.5"/><rect x="146.3" y="169.4" width="145.6" height="9.4" fill="#9FB4BC" opacity="0.5"/><rect x="146.3" y="192.8" width="145.6" height="9.4" fill="#9FB4BC" opacity="0.5"/><rect x="178.9" y="192.8" width="22.1" height="9.4" fill="#F0C489" opacity="0.44"/><rect x="146.3" y="216.2" width="145.6" height="9.4" fill="#9FB4BC" opacity="0.5"/><rect x="134.4" y="114.9" width="169.3" height="2.1" fill="#C79A5E" opacity="0.72"/><rect x="384.0" y="351.0" width="208.0" height="117.0" fill="#1C2426"/><rect x="384.0" y="351.0" width="33.3" height="117.0" fill="#000" opacity="0.22"/><rect x="398.6" y="356.6" width="178.9" height="9.4" fill="#9FB4BC" opacity="0.5"/><rect x="521.4" y="356.6" width="22.7" height="9.4" fill="#F0C489" opacity="0.52"/><rect x="398.6" y="380.0" width="178.9" height="9.4" fill="#9FB4BC" opacity="0.5"/><rect x="461.8" y="380.0" width="22.7" height="9.4" fill="#F0C489" opacity="0.58"/><rect x="551.2" y="380.0" width="22.7" height="9.4" fill="#F0C489" opacity="0.81"/><rect x="398.6" y="403.4" width="178.9" height="9.4" fill="#9FB4BC" opacity="0.5"/><rect x="491.6" y="403.4" width="22.7" height="9.4" fill="#F0C489" opacity="0.74"/><rect x="521.4" y="403.4" width="22.7" height="9.4" fill="#F0C489" opacity="0.57"/><rect x="551.2" y="403.4" width="22.7" height="9.4" fill="#F0C489" opacity="0.60"/><rect x="398.6" y="426.8" width="178.9" height="9.4" fill="#9FB4BC" opacity="0.5"/><rect x="402.1" y="426.8" width="22.7" height="9.4" fill="#F0C489" opacity="0.84"/><rect x="432.0" y="426.8" width="22.7" height="9.4" fill="#F0C489" opacity="0.73"/><rect x="491.6" y="426.8" width="22.7" height="9.4" fill="#F0C489" opacity="0.42"/><rect x="551.2" y="426.8" width="22.7" height="9.4" fill="#F0C489" opacity="0.51"/><rect x="398.6" y="450.2" width="178.9" height="9.4" fill="#9FB4BC" opacity="0.5"/><rect x="384.0" y="348.9" width="208.0" height="2.1" fill="#C79A5E" opacity="0.72"/><rect x="400.6" y="234.0" width="174.7" height="117.0" fill="#1C2426"/><rect x="400.6" y="234.0" width="28.0" height="117.0" fill="#000" opacity="0.22"/><rect x="412.9" y="239.6" width="150.3" height="9.4" fill="#9FB4BC" opacity="0.5"/><rect x="412.9" y="263.0" width="150.3" height="9.4" fill="#9FB4BC" opacity="0.5"/><rect x="412.9" y="286.4" width="150.3" height="9.4" fill="#9FB4BC" opacity="0.5"/><rect x="446.5" y="286.4" width="22.8" height="9.4" fill="#F0C489" opacity="0.41"/><rect x="476.6" y="286.4" width="22.8" height="9.4" fill="#F0C489" opacity="0.54"/><rect x="506.6" y="286.4" width="22.8" height="9.4" fill="#F0C489" opacity="0.69"/><rect x="412.9" y="309.8" width="150.3" height="9.4" fill="#9FB4BC" opacity="0.5"/><rect x="446.5" y="309.8" width="22.8" height="9.4" fill="#F0C489" opacity="0.70"/><rect x="506.6" y="309.8" width="22.8" height="9.4" fill="#F0C489" opacity="0.58"/><rect x="412.9" y="333.2" width="150.3" height="9.4" fill="#9FB4BC" opacity="0.5"/><rect x="400.6" y="231.9" width="174.7" height="2.1" fill="#C79A5E" opacity="0.72"/><rect x="417.3" y="117.0" width="146.8" height="117.0" fill="#1C2426"/><rect x="417.3" y="117.0" width="23.5" height="117.0" fill="#000" opacity="0.22"/><rect x="427.6" y="122.6" width="126.2" height="9.4" fill="#9FB4BC" opacity="0.5"/><rect x="526.0" y="122.6" width="24.0" height="9.4" fill="#F0C489" opacity="0.77"/><rect x="427.6" y="146.0" width="126.2" height="9.4" fill="#9FB4BC" opacity="0.5"/><rect x="431.3" y="146.0" width="24.0" height="9.4" fill="#F0C489" opacity="0.59"/><rect x="494.4" y="146.0" width="24.0" height="9.4" fill="#F0C489" opacity="0.54"/><rect x="427.6" y="169.4" width="126.2" height="9.4" fill="#9FB4BC" opacity="0.5"/><rect x="427.6" y="192.8" width="126.2" height="9.4" fill="#9FB4BC" opacity="0.5"/><rect x="494.4" y="192.8" width="24.0" height="9.4" fill="#F0C489" opacity="0.82"/><rect x="427.6" y="216.2" width="126.2" height="9.4" fill="#9FB4BC" opacity="0.5"/><rect x="417.3" y="114.9" width="146.8" height="2.1" fill="#C79A5E" opacity="0.72"/><rect x="672.0" y="374.4" width="224.0" height="93.6" fill="#222B2C"/><rect x="672.0" y="374.4" width="35.8" height="93.6" fill="#000" opacity="0.22"/><rect x="687.7" y="380.0" width="192.6" height="9.4" fill="#9FB4BC" opacity="0.5"/><rect x="856.1" y="380.0" width="20.9" height="9.4" fill="#F0C489" opacity="0.80"/><rect x="687.7" y="403.4" width="192.6" height="9.4" fill="#9FB4BC" opacity="0.5"/><rect x="691.0" y="403.4" width="20.9" height="9.4" fill="#F0C489" opacity="0.73"/><rect x="773.5" y="403.4" width="20.9" height="9.4" fill="#F0C489" opacity="0.41"/><rect x="687.7" y="426.8" width="192.6" height="9.4" fill="#9FB4BC" opacity="0.5"/><rect x="828.6" y="426.8" width="20.9" height="9.4" fill="#F0C489" opacity="0.48"/><rect x="687.7" y="450.2" width="192.6" height="9.4" fill="#9FB4BC" opacity="0.5"/><rect x="672.0" y="372.3" width="224.0" height="2.1" fill="#C79A5E" opacity="0.72"/><rect x="689.9" y="280.8" width="188.2" height="93.6" fill="#222B2C"/><rect x="689.9" y="280.8" width="30.1" height="93.6" fill="#000" opacity="0.22"/><rect x="703.1" y="286.4" width="161.8" height="9.4" fill="#9FB4BC" opacity="0.5"/><rect x="733.3" y="286.4" width="20.5" height="9.4" fill="#F0C489" opacity="0.49"/><rect x="787.2" y="286.4" width="20.5" height="9.4" fill="#F0C489" opacity="0.59"/><rect x="703.1" y="309.8" width="161.8" height="9.4" fill="#9FB4BC" opacity="0.5"/><rect x="706.3" y="309.8" width="20.5" height="9.4" fill="#F0C489" opacity="0.67"/><rect x="760.3" y="309.8" width="20.5" height="9.4" fill="#F0C489" opacity="0.83"/><rect x="814.2" y="309.8" width="20.5" height="9.4" fill="#F0C489" opacity="0.77"/><rect x="841.2" y="309.8" width="20.5" height="9.4" fill="#F0C489" opacity="0.45"/><rect x="703.1" y="333.2" width="161.8" height="9.4" fill="#9FB4BC" opacity="0.5"/><rect x="787.2" y="333.2" width="20.5" height="9.4" fill="#F0C489" opacity="0.77"/><rect x="703.1" y="356.6" width="161.8" height="9.4" fill="#9FB4BC" opacity="0.5"/><rect x="689.9" y="278.7" width="188.2" height="2.1" fill="#C79A5E" opacity="0.72"/><rect x="707.8" y="187.2" width="158.1" height="93.6" fill="#222B2C"/><rect x="707.8" y="187.2" width="25.3" height="93.6" fill="#000" opacity="0.22"/><rect x="718.9" y="192.8" width="135.9" height="9.4" fill="#9FB4BC" opacity="0.5"/><rect x="718.9" y="216.2" width="135.9" height="9.4" fill="#9FB4BC" opacity="0.5"/><rect x="749.4" y="216.2" width="20.7" height="9.4" fill="#F0C489" opacity="0.85"/><rect x="803.7" y="216.2" width="20.7" height="9.4" fill="#F0C489" opacity="0.53"/><rect x="718.9" y="239.6" width="135.9" height="9.4" fill="#9FB4BC" opacity="0.5"/><rect x="718.9" y="263.0" width="135.9" height="9.4" fill="#9FB4BC" opacity="0.5"/><rect x="722.2" y="263.0" width="20.7" height="9.4" fill="#F0C489" opacity="0.44"/><rect x="830.9" y="263.0" width="20.7" height="9.4" fill="#F0C489" opacity="0.84"/><rect x="707.8" y="185.1" width="158.1" height="2.1" fill="#C79A5E" opacity="0.72"/><rect x="992.0" y="397.8" width="192.0" height="70.2" fill="#1C2426"/><rect x="992.0" y="397.8" width="30.7" height="70.2" fill="#000" opacity="0.22"/><rect x="1005.4" y="403.4" width="165.1" height="9.4" fill="#9FB4BC" opacity="0.5"/><rect x="1008.7" y="403.4" width="20.9" height="9.4" fill="#F0C489" opacity="0.76"/><rect x="1063.8" y="403.4" width="20.9" height="9.4" fill="#F0C489" opacity="0.68"/><rect x="1146.3" y="403.4" width="20.9" height="9.4" fill="#F0C489" opacity="0.81"/><rect x="1005.4" y="426.8" width="165.1" height="9.4" fill="#9FB4BC" opacity="0.5"/><rect x="1008.7" y="426.8" width="20.9" height="9.4" fill="#F0C489" opacity="0.66"/><rect x="1063.8" y="426.8" width="20.9" height="9.4" fill="#F0C489" opacity="0.77"/><rect x="1118.8" y="426.8" width="20.9" height="9.4" fill="#F0C489" opacity="0.77"/><rect x="1005.4" y="450.2" width="165.1" height="9.4" fill="#9FB4BC" opacity="0.5"/><rect x="1008.7" y="450.2" width="20.9" height="9.4" fill="#F0C489" opacity="0.65"/><rect x="992.0" y="395.7" width="192.0" height="2.1" fill="#C79A5E" opacity="0.72"/><rect x="1007.4" y="327.6" width="161.3" height="70.2" fill="#1C2426"/><rect x="1007.4" y="327.6" width="25.8" height="70.2" fill="#000" opacity="0.22"/><rect x="1018.6" y="333.2" width="138.7" height="9.4" fill="#9FB4BC" opacity="0.5"/><rect x="1132.9" y="333.2" width="21.1" height="9.4" fill="#F0C489" opacity="0.48"/><rect x="1018.6" y="356.6" width="138.7" height="9.4" fill="#9FB4BC" opacity="0.5"/><rect x="1077.5" y="356.6" width="21.1" height="9.4" fill="#F0C489" opacity="0.42"/><rect x="1018.6" y="380.0" width="138.7" height="9.4" fill="#9FB4BC" opacity="0.5"/><rect x="1077.5" y="380.0" width="21.1" height="9.4" fill="#F0C489" opacity="0.58"/><rect x="1007.4" y="325.5" width="161.3" height="2.1" fill="#C79A5E" opacity="0.72"/><rect x="1022.7" y="257.4" width="135.5" height="70.2" fill="#1C2426"/><rect x="1022.7" y="257.4" width="21.7" height="70.2" fill="#000" opacity="0.22"/><rect x="1032.2" y="263.0" width="116.5" height="9.4" fill="#9FB4BC" opacity="0.5"/><rect x="1032.2" y="286.4" width="116.5" height="9.4" fill="#9FB4BC" opacity="0.5"/><rect x="1064.8" y="286.4" width="22.1" height="9.4" fill="#F0C489" opacity="0.43"/><rect x="1094.0" y="286.4" width="22.1" height="9.4" fill="#F0C489" opacity="0.50"/><rect x="1032.2" y="309.8" width="116.5" height="9.4" fill="#9FB4BC" opacity="0.5"/><rect x="1035.7" y="309.8" width="22.1" height="9.4" fill="#F0C489" opacity="0.76"/><rect x="1022.7" y="255.3" width="135.5" height="2.1" fill="#C79A5E" opacity="0.72"/><path d="M -57.1 468.0 L -57.1 415.4 Q -28.5 419.9 0.1 446.5 Q 36.1 407.9 72.1 443.3 Q 118.2 350.5 164.4 387.7 Q 196.1 375.7 227.9 415.5 Q 264.2 412.3 300.6 451.0 Q 331.6 361.8 362.6 423.3 Q 398.8 391.1 435.0 415.5 Q 470.4 352.5 505.8 405.7 Q 530.4 411.6 555.0 440.2 Q 582.9 357.0 610.7 391.9 Q 643.3 340.6 675.9 391.8 Q 722.4 421.0 768.9 446.8 Q 811.1 407.4 853.3 448.5 Q 885.8 350.6 918.3 414.6 Q 957.8 373.9 997.3 408.2 Q 1020.6 400.5 1043.9 428.5 Q 1087.6 382.3 1131.4 412.3 Q 1161.6 356.9 1191.7 429.7 Q 1217.7 348.1 1243.7 385.3 Q 1283.0 372.4 1322.2 436.5 Q 1368.3 376.4 1414.4 420.8 Q 1433.7 387.6 1453.0 417.5 Q 1495.9 365.5 1538.9 399.4 Q 1575.3 375.7 1611.6 429.5 Q 1638.3 360.4 1664.9 395.6 L 1664.9 468.0 Z" fill="#2C3A31" opacity="0.9"/><rect x="0" y="468.0" width="1600" height="432.0" fill="#1B262B"/><ellipse cx="1056.0" cy="468.0" rx="256.0" ry="388.8" fill="#E9C08A" opacity="0.3"/><rect x="56.5" y="470.0" width="254.7" height="1.0" fill="#FFFFFF" opacity="0.051" rx="0.5"/><rect x="1088.5" y="471.3" width="180.3" height="1.1" fill="#FFFFFF" opacity="0.123" rx="0.5"/><rect x="1400.4" y="473.9" width="184.8" height="1.2" fill="#FFFFFF" opacity="0.169" rx="0.6"/><rect x="782.4" y="477.2" width="345.7" height="1.3" fill="#FFFFFF" opacity="0.092" rx="0.6"/><rect x="1082.8" y="481.3" width="361.2" height="1.4" fill="#FFFFFF" opacity="0.149" rx="0.7"/><rect x="597.0" y="486.0" width="114.3" height="1.5" fill="#FFFFFF" opacity="0.087" rx="0.7"/><rect x="420.0" y="491.2" width="63.3" height="1.6" fill="#FFFFFF" opacity="0.158" rx="0.8"/><rect x="20.8" y="496.9" width="171.2" height="1.7" fill="#FFFFFF" opacity="0.136" rx="0.8"/><rect x="115.7" y="503.1" width="383.1" height="1.8" fill="#FFFFFF" opacity="0.104" rx="0.9"/><rect x="1396.0" y="509.7" width="118.8" height="1.9" fill="#FFFFFF" opacity="0.138" rx="0.9"/><rect x="970.9" y="516.7" width="327.7" height="2.0" fill="#FFFFFF" opacity="0.054" rx="1.0"/><rect x="595.5" y="524.2" width="147.9" height="2.0" fill="#FFFFFF" opacity="0.051" rx="1.0"/><rect x="783.2" y="532.0" width="225.2" height="2.1" fill="#FFFFFF" opacity="0.067" rx="1.1"/><rect x="838.6" y="540.2" width="389.9" height="2.2" fill="#FFFFFF" opacity="0.131" rx="1.1"/><rect x="173.2" y="548.7" width="503.6" height="2.3" fill="#FFFFFF" opacity="0.099" rx="1.2"/><rect x="1241.1" y="557.6" width="236.7" height="2.4" fill="#FFFFFF" opacity="0.151" rx="1.2"/><rect x="622.8" y="566.8" width="431.8" height="2.5" fill="#FFFFFF" opacity="0.135" rx="1.3"/><rect x="985.9" y="576.3" width="469.2" height="2.6" fill="#FFFFFF" opacity="0.146" rx="1.3"/><rect x="521.5" y="586.2" width="415.5" height="2.7" fill="#FFFFFF" opacity="0.074" rx="1.4"/><rect x="4.5" y="596.3" width="411.4" height="2.8" fill="#FFFFFF" opacity="0.142" rx="1.4"/><rect x="1232.3" y="606.8" width="109.1" height="2.9" fill="#FFFFFF" opacity="0.066" rx="1.5"/><rect x="549.6" y="617.5" width="254.6" height="3.0" fill="#FFFFFF" opacity="0.131" rx="1.5"/><rect x="434.1" y="628.6" width="456.8" height="3.1" fill="#FFFFFF" opacity="0.070" rx="1.5"/><rect x="287.1" y="639.9" width="137.3" height="3.2" fill="#FFFFFF" opacity="0.099" rx="1.6"/><rect x="476.3" y="651.5" width="341.0" height="3.3" fill="#FFFFFF" opacity="0.106" rx="1.6"/><rect x="773.9" y="663.3" width="131.2" height="3.4" fill="#FFFFFF" opacity="0.062" rx="1.7"/><rect x="288.7" y="675.4" width="229.0" height="3.5" fill="#FFFFFF" opacity="0.074" rx="1.7"/><rect x="797.0" y="687.8" width="431.4" height="3.6" fill="#FFFFFF" opacity="0.111" rx="1.8"/><rect x="382.5" y="700.4" width="319.9" height="3.7" fill="#FFFFFF" opacity="0.111" rx="1.8"/><rect x="829.6" y="713.3" width="102.0" height="3.8" fill="#FFFFFF" opacity="0.050" rx="1.9"/><rect x="589.7" y="726.4" width="205.2" height="3.9" fill="#FFFFFF" opacity="0.119" rx="1.9"/><rect x="635.7" y="739.8" width="248.5" height="4.0" fill="#FFFFFF" opacity="0.101" rx="2.0"/><rect x="549.2" y="753.4" width="687.0" height="4.0" fill="#FFFFFF" opacity="0.065" rx="2.0"/><rect x="464.0" y="767.3" width="782.4" height="4.1" fill="#FFFFFF" opacity="0.114" rx="2.1"/><rect x="763.7" y="781.3" width="621.5" height="4.2" fill="#FFFFFF" opacity="0.073" rx="2.1"/><rect x="685.3" y="795.7" width="412.9" height="4.3" fill="#FFFFFF" opacity="0.072" rx="2.2"/><rect x="600.8" y="810.2" width="840.0" height="4.4" fill="#FFFFFF" opacity="0.101" rx="2.2"/><rect x="894.1" y="824.9" width="396.8" height="4.5" fill="#FFFFFF" opacity="0.113" rx="2.3"/><rect x="635.7" y="839.9" width="514.1" height="4.6" fill="#FFFFFF" opacity="0.088" rx="2.3"/><rect x="825.1" y="855.1" width="662.7" height="4.7" fill="#FFFFFF" opacity="0.085" rx="2.4"/><rect x="472.5" y="870.5" width="617.0" height="4.8" fill="#FFFFFF" opacity="0.105" rx="2.4"/><rect x="254.3" y="886.2" width="618.3" height="4.9" fill="#FFFFFF" opacity="0.093" rx="2.5"/><rect x="96.0" y="468.0" width="240.0" height="108.0" fill="#0E1518" opacity="0.35"/><rect x="384.0" y="468.0" width="208.0" height="108.0" fill="#0E1518" opacity="0.35"/><rect x="672.0" y="468.0" width="224.0" height="108.0" fill="#0E1518" opacity="0.35"/><rect x="992.0" y="468.0" width="192.0" height="108.0" fill="#0E1518" opacity="0.35"/><g opacity="0.045"><circle cx="188.2" cy="76.3" r="0.9" fill="#FFFFFF" opacity="0.38"/><circle cx="597.1" cy="488.0" r="1.3" fill="#FFFFFF" opacity="0.19"/><circle cx="1266.9" cy="835.3" r="0.7" fill="#FFFFFF" opacity="0.02"/><circle cx="1070.3" cy="0.9" r="2.0" fill="#FFFFFF" opacity="0.10"/><circle cx="845.7" cy="632.1" r="2.0" fill="#FFFFFF" opacity="0.04"/><circle cx="55.3" cy="738.3" r="0.7" fill="#FFFFFF" opacity="0.29"/><circle cx="976.2" cy="173.5" r="0.8" fill="#FFFFFF" opacity="0.14"/><circle cx="1228.2" cy="144.9" r="1.4" fill="#FFFFFF" opacity="0.36"/><circle cx="1416.0" cy="781.3" r="1.0" fill="#FFFFFF" opacity="0.06"/><circle cx="75.4" cy="581.9" r="0.8" fill="#FFFFFF" opacity="0.18"/><circle cx="407.1" cy="392.8" r="1.8" fill="#FFFFFF" opacity="0.46"/><circle cx="1130.7" cy="413.3" r="1.5" fill="#FFFFFF" opacity="0.16"/><circle cx="298.3" cy="331.7" r="1.6" fill="#FFFFFF" opacity="0.06"/><circle cx="1064.7" cy="25.1" r="0.8" fill="#FFFFFF" opacity="0.07"/><circle cx="792.9" cy="408.1" r="0.8" fill="#FFFFFF" opacity="0.36"/><circle cx="618.8" cy="394.3" r="1.3" fill="#FFFFFF" opacity="0.04"/><circle cx="1146.6" cy="417.3" r="1.9" fill="#FFFFFF" opacity="0.11"/><circle cx="215.6" cy="643.1" r="1.9" fill="#FFFFFF" opacity="0.47"/><circle cx="501.3" cy="784.7" r="0.8" fill="#FFFFFF" opacity="0.04"/><circle cx="590.8" cy="825.6" r="0.7" fill="#FFFFFF" opacity="0.03"/><circle cx="1173.2" cy="319.8" r="0.8" fill="#FFFFFF" opacity="0.27"/><circle cx="925.6" cy="709.8" r="1.1" fill="#FFFFFF" opacity="0.25"/><circle cx="589.7" cy="598.2" r="1.4" fill="#FFFFFF" opacity="0.19"/><circle cx="1304.3" cy="26.1" r="0.6" fill="#FFFFFF" opacity="0.26"/><circle cx="1113.2" cy="463.7" r="1.3" fill="#FFFFFF" opacity="0.04"/><circle cx="628.9" cy="651.5" r="1.6" fill="#FFFFFF" opacity="0.22"/><circle cx="996.6" cy="594.8" r="0.6" fill="#FFFFFF" opacity="0.49"/><circle cx="1408.0" cy="886.4" r="2.0" fill="#FFFFFF" opacity="0.13"/><circle cx="757.1" cy="536.9" r="1.2" fill="#FFFFFF" opacity="0.38"/><circle cx="1272.9" cy="443.9" r="1.5" fill="#FFFFFF" opacity="0.14"/><circle cx="379.7" cy="305.3" r="1.3" fill="#FFFFFF" opacity="0.04"/><circle cx="250.9" cy="175.5" r="1.8" fill="#FFFFFF" opacity="0.02"/><circle cx="116.0" cy="344.1" r="1.9" fill="#FFFFFF" opacity="0.08"/><circle cx="706.3" cy="496.0" r="1.5" fill="#FFFFFF" opacity="0.44"/><circle cx="1354.7" cy="581.9" r="1.1" fill="#FFFFFF" opacity="0.16"/><circle cx="1227.0" cy="780.7" r="0.7" fill="#FFFFFF" opacity="0.41"/><circle cx="39.9" cy="85.4" r="1.2" fill="#FFFFFF" opacity="0.45"/><circle cx="1486.7" cy="630.3" r="1.0" fill="#FFFFFF" opacity="0.17"/><circle cx="126.7" cy="104.0" r="2.0" fill="#FFFFFF" opacity="0.14"/><circle cx="245.5" cy="143.5" r="1.4" fill="#FFFFFF" opacity="0.29"/><circle cx="987.8" cy="78.0" r="2.1" fill="#FFFFFF" opacity="0.02"/><circle cx="349.2" cy="189.7" r="1.0" fill="#FFFFFF" opacity="0.39"/><circle cx="177.5" cy="289.6" r="0.9" fill="#FFFFFF" opacity="0.33"/><circle cx="868.3" cy="436.2" r="1.3" fill="#FFFFFF" opacity="0.18"/><circle cx="1346.5" cy="250.0" r="2.0" fill="#FFFFFF" opacity="0.09"/><circle cx="853.4" cy="10.7" r="2.0" fill="#FFFFFF" opacity="0.11"/><circle cx="409.5" cy="83.3" r="0.8" fill="#FFFFFF" opacity="0.19"/><circle cx="956.2" cy="150.7" r="1.0" fill="#FFFFFF" opacity="0.11"/><circle cx="1147.7" cy="330.3" r="1.3" fill="#FFFFFF" opacity="0.22"/><circle cx="140.2" cy="508.1" r="1.5" fill="#FFFFFF" opacity="0.16"/><circle cx="768.1" cy="50.2" r="0.8" fill="#FFFFFF" opacity="0.00"/><circle cx="1159.5" cy="140.5" r="1.3" fill="#FFFFFF" opacity="0.06"/><circle cx="796.3" cy="372.1" r="2.0" fill="#FFFFFF" opacity="0.07"/><circle cx="40.0" cy="811.1" r="1.5" fill="#FFFFFF" opacity="0.30"/><circle cx="1576.6" cy="574.4" r="1.2" fill="#FFFFFF" opacity="0.36"/><circle cx="1380.7" cy="229.1" r="1.1" fill="#FFFFFF" opacity="0.39"/><circle cx="364.4" cy="51.3" r="2.0" fill="#FFFFFF" opacity="0.31"/><circle cx="176.8" cy="261.8" r="1.8" fill="#FFFFFF" opacity="0.20"/><circle cx="1193.9" cy="587.5" r="1.9" fill="#FFFFFF" opacity="0.22"/><circle cx="971.5" cy="37.3" r="0.7" fill="#FFFFFF" opacity="0.28"/><circle cx="1100.9" cy="688.4" r="1.7" fill="#FFFFFF" opacity="0.43"/><circle cx="357.5" cy="778.3" r="1.7" fill="#FFFFFF" opacity="0.13"/><circle cx="98.0" cy="508.5" r="1.1" fill="#FFFFFF" opacity="0.23"/><circle cx="1599.2" cy="648.3" r="0.8" fill="#FFFFFF" opacity="0.49"/><circle cx="1011.0" cy="884.3" r="1.2" fill="#FFFFFF" opacity="0.40"/><circle cx="1254.1" cy="579.6" r="1.3" fill="#FFFFFF" opacity="0.04"/><circle cx="506.8" cy="700.8" r="1.9" fill="#FFFFFF" opacity="0.45"/><circle cx="351.8" cy="464.5" r="1.3" fill="#FFFFFF" opacity="0.04"/><circle cx="1477.1" cy="274.1" r="2.0" fill="#FFFFFF" opacity="0.21"/><circle cx="151.7" cy="398.0" r="1.0" fill="#FFFFFF" opacity="0.44"/><circle cx="870.5" cy="461.5" r="1.5" fill="#FFFFFF" opacity="0.23"/><circle cx="561.1" cy="462.5" r="1.8" fill="#FFFFFF" opacity="0.24"/><circle cx="796.9" cy="430.8" r="0.8" fill="#FFFFFF" opacity="0.39"/><circle cx="33.7" cy="346.8" r="1.5" fill="#FFFFFF" opacity="0.18"/><circle cx="8.8" cy="135.6" r="0.8" fill="#FFFFFF" opacity="0.22"/><circle cx="263.8" cy="140.4" r="1.1" fill="#FFFFFF" opacity="0.24"/><circle cx="163.4" cy="819.3" r="1.9" fill="#FFFFFF" opacity="0.11"/><circle cx="1212.6" cy="250.6" r="1.5" fill="#FFFFFF" opacity="0.13"/><circle cx="827.9" cy="683.1" r="1.4" fill="#FFFFFF" opacity="0.35"/><circle cx="1449.1" cy="734.7" r="1.7" fill="#FFFFFF" opacity="0.41"/><circle cx="773.3" cy="105.9" r="1.6" fill="#FFFFFF" opacity="0.39"/><circle cx="336.6" cy="337.1" r="1.8" fill="#FFFFFF" opacity="0.46"/><circle cx="9.9" cy="23.6" r="0.7" fill="#FFFFFF" opacity="0.09"/><circle cx="829.7" cy="348.5" r="1.1" fill="#FFFFFF" opacity="0.41"/><circle cx="1177.8" cy="717.5" r="1.9" fill="#FFFFFF" opacity="0.31"/><circle cx="26.1" cy="761.7" r="1.0" fill="#FFFFFF" opacity="0.17"/><circle cx="1323.0" cy="322.2" r="1.9" fill="#FFFFFF" opacity="0.27"/><circle cx="1573.8" cy="794.0" r="2.0" fill="#FFFFFF" opacity="0.39"/><circle cx="258.7" cy="693.2" r="0.9" fill="#FFFFFF" opacity="0.22"/><circle cx="746.5" cy="66.5" r="0.7" fill="#FFFFFF" opacity="0.43"/><circle cx="1488.7" cy="735.2" r="1.3" fill="#FFFFFF" opacity="0.41"/><circle cx="79.0" cy="452.6" r="1.0" fill="#FFFFFF" opacity="0.47"/><circle cx="820.5" cy="855.9" r="0.7" fill="#FFFFFF" opacity="0.37"/><circle cx="258.1" cy="246.9" r="0.6" fill="#FFFFFF" opacity="0.04"/><circle cx="383.0" cy="254.9" r="0.9" fill="#FFFFFF" opacity="0.41"/><circle cx="592.5" cy="61.3" r="1.4" fill="#FFFFFF" opacity="0.23"/><circle cx="492.6" cy="848.6" r="2.0" fill="#FFFFFF" opacity="0.46"/><circle cx="467.0" cy="640.2" r="1.2" fill="#FFFFFF" opacity="0.30"/><circle cx="1211.0" cy="757.7" r="1.8" fill="#FFFFFF" opacity="0.07"/><circle cx="183.4" cy="857.9" r="0.9" fill="#FFFFFF" opacity="0.18"/><circle cx="18.6" cy="608.5" r="1.0" fill="#FFFFFF" opacity="0.13"/><circle cx="620.4" cy="504.6" r="1.0" fill="#FFFFFF" opacity="0.34"/><circle cx="1131.1" cy="620.2" r="1.3" fill="#FFFFFF" opacity="0.03"/><circle cx="612.9" cy="632.7" r="0.6" fill="#FFFFFF" opacity="0.45"/><circle cx="182.0" cy="146.3" r="2.1" fill="#FFFFFF" opacity="0.22"/><circle cx="253.4" cy="734.6" r="1.7" fill="#FFFFFF" opacity="0.01"/><circle cx="1479.7" cy="449.7" r="0.6" fill="#FFFFFF" opacity="0.46"/><circle cx="1262.4" cy="715.8" r="2.0" fill="#FFFFFF" opacity="0.18"/><circle cx="17.6" cy="658.6" r="0.7" fill="#FFFFFF" opacity="0.48"/><circle cx="1367.8" cy="255.7" r="1.0" fill="#FFFFFF" opacity="0.05"/><circle cx="150.3" cy="463.5" r="1.2" fill="#FFFFFF" opacity="0.46"/><circle cx="1451.1" cy="826.1" r="0.6" fill="#FFFFFF" opacity="0.20"/><circle cx="570.4" cy="124.0" r="1.4" fill="#FFFFFF" opacity="0.03"/><circle cx="1374.3" cy="487.7" r="0.7" fill="#FFFFFF" opacity="0.04"/><circle cx="170.2" cy="292.5" r="1.9" fill="#FFFFFF" opacity="0.07"/><circle cx="315.8" cy="302.2" r="2.0" fill="#FFFFFF" opacity="0.21"/><circle cx="648.7" cy="469.7" r="2.0" fill="#FFFFFF" opacity="0.09"/><circle cx="1198.5" cy="112.8" r="1.6" fill="#FFFFFF" opacity="0.22"/><circle cx="919.0" cy="34.1" r="1.3" fill="#FFFFFF" opacity="0.09"/><circle cx="694.0" cy="403.1" r="0.9" fill="#FFFFFF" opacity="0.01"/><circle cx="1200.8" cy="239.0" r="1.2" fill="#FFFFFF" opacity="0.06"/><circle cx="1568.9" cy="755.2" r="0.6" fill="#FFFFFF" opacity="0.09"/><circle cx="1124.2" cy="24.4" r="2.1" fill="#FFFFFF" opacity="0.42"/><circle cx="886.5" cy="857.1" r="1.7" fill="#FFFFFF" opacity="0.28"/><circle cx="1223.7" cy="758.4" r="1.9" fill="#FFFFFF" opacity="0.26"/><circle cx="1444.7" cy="861.0" r="1.5" fill="#FFFFFF" opacity="0.34"/><circle cx="153.1" cy="866.4" r="0.8" fill="#FFFFFF" opacity="0.09"/><circle cx="635.4" cy="689.9" r="1.9" fill="#FFFFFF" opacity="0.25"/><circle cx="1232.3" cy="856.8" r="0.7" fill="#FFFFFF" opacity="0.29"/><circle cx="1571.9" cy="660.1" r="1.5" fill="#FFFFFF" opacity="0.35"/><circle cx="1556.0" cy="688.0" r="1.0" fill="#FFFFFF" opacity="0.13"/><circle cx="466.1" cy="738.8" r="1.7" fill="#FFFFFF" opacity="0.17"/><circle cx="1477.9" cy="861.5" r="1.7" fill="#FFFFFF" opacity="0.14"/><circle cx="1127.1" cy="725.4" r="1.8" fill="#FFFFFF" opacity="0.25"/><circle cx="1136.6" cy="458.0" r="1.1" fill="#FFFFFF" opacity="0.10"/><circle cx="425.9" cy="489.3" r="1.6" fill="#FFFFFF" opacity="0.23"/><circle cx="108.2" cy="336.8" r="1.8" fill="#FFFFFF" opacity="0.16"/><circle cx="1070.2" cy="166.1" r="1.0" fill="#FFFFFF" opacity="0.02"/><circle cx="1463.5" cy="453.3" r="1.2" fill="#FFFFFF" opacity="0.45"/><circle cx="344.2" cy="49.7" r="1.7" fill="#FFFFFF" opacity="0.24"/><circle cx="876.3" cy="50.9" r="0.9" fill="#FFFFFF" opacity="0.48"/><circle cx="458.2" cy="314.9" r="1.2" fill="#FFFFFF" opacity="0.49"/><circle cx="1117.7" cy="373.3" r="1.1" fill="#FFFFFF" opacity="0.16"/><circle cx="604.2" cy="227.3" r="1.1" fill="#FFFFFF" opacity="0.46"/><circle cx="1302.1" cy="778.8" r="1.4" fill="#FFFFFF" opacity="0.25"/><circle cx="1345.2" cy="694.2" r="1.0" fill="#FFFFFF" opacity="0.27"/><circle cx="1517.3" cy="441.1" r="2.0" fill="#FFFFFF" opacity="0.06"/><circle cx="200.0" cy="529.6" r="0.9" fill="#FFFFFF" opacity="0.45"/><circle cx="1573.4" cy="648.1" r="1.1" fill="#FFFFFF" opacity="0.04"/><circle cx="261.0" cy="99.9" r="1.8" fill="#FFFFFF" opacity="0.13"/><circle cx="602.1" cy="879.2" r="1.1" fill="#FFFFFF" opacity="0.38"/><circle cx="156.3" cy="37.8" r="1.9" fill="#FFFFFF" opacity="0.23"/><circle cx="1044.5" cy="581.1" r="1.8" fill="#FFFFFF" opacity="0.28"/><circle cx="49.9" cy="669.9" r="1.1" fill="#FFFFFF" opacity="0.32"/><circle cx="1353.6" cy="406.9" r="0.8" fill="#FFFFFF" opacity="0.26"/><circle cx="891.6" cy="822.4" r="1.8" fill="#FFFFFF" opacity="0.00"/><circle cx="1551.3" cy="768.1" r="1.1" fill="#FFFFFF" opacity="0.23"/><circle cx="827.6" cy="468.5" r="1.9" fill="#FFFFFF" opacity="0.08"/><circle cx="635.1" cy="652.8" r="1.5" fill="#FFFFFF" opacity="0.02"/><circle cx="996.2" cy="552.3" r="1.7" fill="#FFFFFF" opacity="0.12"/><circle cx="1205.2" cy="93.2" r="0.8" fill="#FFFFFF" opacity="0.28"/><circle cx="717.6" cy="124.8" r="1.2" fill="#FFFFFF" opacity="0.09"/><circle cx="795.0" cy="493.1" r="1.9" fill="#FFFFFF" opacity="0.09"/><circle cx="1418.1" cy="72.7" r="0.9" fill="#FFFFFF" opacity="0.39"/><circle cx="1271.4" cy="57.0" r="1.4" fill="#FFFFFF" opacity="0.14"/><circle cx="1362.2" cy="532.0" r="1.7" fill="#FFFFFF" opacity="0.18"/><circle cx="558.0" cy="72.1" r="0.7" fill="#FFFFFF" opacity="0.19"/><circle cx="1306.6" cy="0.5" r="1.8" fill="#FFFFFF" opacity="0.22"/><circle cx="869.8" cy="471.9" r="0.7" fill="#FFFFFF" opacity="0.16"/><circle cx="1265.0" cy="818.8" r="1.9" fill="#FFFFFF" opacity="0.49"/><circle cx="615.5" cy="647.7" r="0.9" fill="#FFFFFF" opacity="0.08"/><circle cx="1142.2" cy="363.1" r="2.1" fill="#FFFFFF" opacity="0.01"/><circle cx="840.3" cy="681.3" r="1.1" fill="#FFFFFF" opacity="0.33"/><circle cx="958.1" cy="511.4" r="1.3" fill="#FFFFFF" opacity="0.19"/><circle cx="288.8" cy="475.1" r="1.7" fill="#FFFFFF" opacity="0.06"/><circle cx="1569.0" cy="798.5" r="1.3" fill="#FFFFFF" opacity="0.35"/><circle cx="940.5" cy="894.9" r="0.9" fill="#FFFFFF" opacity="0.26"/><circle cx="1242.3" cy="608.7" r="0.9" fill="#FFFFFF" opacity="0.11"/><circle cx="980.9" cy="711.4" r="0.6" fill="#FFFFFF" opacity="0.42"/><circle cx="667.0" cy="687.2" r="1.0" fill="#FFFFFF" opacity="0.02"/><circle cx="528.5" cy="164.8" r="0.9" fill="#FFFFFF" opacity="0.34"/><circle cx="1308.1" cy="773.9" r="1.7" fill="#FFFFFF" opacity="0.24"/><circle cx="461.2" cy="594.8" r="1.7" fill="#FFFFFF" opacity="0.46"/><circle cx="829.4" cy="502.9" r="1.0" fill="#FFFFFF" opacity="0.04"/><circle cx="1538.9" cy="805.7" r="0.9" fill="#FFFFFF" opacity="0.05"/><circle cx="1559.2" cy="104.3" r="1.0" fill="#FFFFFF" opacity="0.40"/><circle cx="1560.7" cy="291.0" r="1.8" fill="#FFFFFF" opacity="0.34"/><circle cx="492.6" cy="776.5" r="0.6" fill="#FFFFFF" opacity="0.29"/><circle cx="847.6" cy="612.4" r="1.6" fill="#FFFFFF" opacity="0.21"/><circle cx="1299.0" cy="396.2" r="1.2" fill="#FFFFFF" opacity="0.11"/></g><rect width="1600" height="900" fill="url(#vig)"/>
  <defs><radialGradient id="vig" cx="0.5" cy="0.45" r="0.78">
    <stop offset="0.55" stop-color="#000" stop-opacity="0"/><stop offset="1" stop-color="#000" stop-opacity="0.4"/>
  </radialGradient></defs><g font-family="ui-monospace, 'Cascadia Mono', Consolas, monospace" opacity="0.9">
    <rect x="1366.4" y="810.4" width="198.4" height="54.4" rx="27.2" fill="rgba(12,16,14,0.5)"/>
    <text x="1465.6" y="847.4" text-anchor="middle" fill="#EDEAE3" font-size="27.2" letter-spacing="1.6">INTRO-02</text>
  </g></svg>