<svg xmlns="http://www.w3.org/2000/svg" viewBox="0 0 1200 1200" width="1200" height="1200" role="img" aria-label="Схема границ участка №42" preserveAspectRatio="xMidYMid slice"><rect width="1200" height="1200" fill="#FBF8F2"/><g stroke="#E0D9CB" stroke-width="1.5"><line x1="0" y1="100.0" x2="1200" y2="100.0"/><line x1="100.0" y1="0" x2="100.0" y2="1200"/><line x1="0" y1="200.0" x2="1200" y2="200.0"/><line x1="200.0" y1="0" x2="200.0" y2="1200"/><line x1="0" y1="300.0" x2="1200" y2="300.0"/><line x1="300.0" y1="0" x2="300.0" y2="1200"/><line x1="0" y1="400.0" x2="1200" y2="400.0"/><line x1="400.0" y1="0" x2="400.0" y2="1200"/><line x1="0" y1="500.0" x2="1200" y2="500.0"/><line x1="500.0" y1="0" x2="500.0" y2="1200"/><line x1="0" y1="600.0" x2="1200" y2="600.0"/><line x1="600.0" y1="0" x2="600.0" y2="1200"/><line x1="0" y1="700.0" x2="1200" y2="700.0"/><line x1="700.0" y1="0" x2="700.0" y2="1200"/><line x1="0" y1="800.0" x2="1200" y2="800.0"/><line x1="800.0" y1="0" x2="800.0" y2="1200"/><line x1="0" y1="900.0" x2="1200" y2="900.0"/><line x1="900.0" y1="0" x2="900.0" y2="1200"/><line x1="0" y1="1000.0" x2="1200" y2="1000.0"/><line x1="1000.0" y1="0" x2="1000.0" y2="1200"/><line x1="0" y1="1100.0" x2="1200" y2="1100.0"/><line x1="1100.0" y1="0" x2="1100.0" y2="1200"/></g><polygon points="225.4,186.6 1028.6,212.9 1001.1,1000.2 223.7,1027.9" fill="#E5EBDC" stroke="#A8814F" stroke-width="9" stroke-linejoin="round"/><circle cx="225.4" cy="186.6" r="11" fill="#A8814F"/><text x="627.0" y="179.8" text-anchor="middle" font-family="ui-monospace, Consolas, monospace" font-size="29" fill="#2A302C">67,0 м</text><text x="627.0" y="147.8" text-anchor="middle" font-family="'Segoe UI', system-ui, sans-serif" font-size="21" fill="#8A9088">сев.</text><circle cx="1028.6" cy="212.9" r="11" fill="#A8814F"/><text x="1014.9" y="613.6" text-anchor="middle" font-family="ui-monospace, Consolas, monospace" font-size="29" fill="#2A302C">65,7 м</text><text x="1014.9" y="646.6" text-anchor="middle" font-family="'Segoe UI', system-ui, sans-serif" font-size="21" fill="#8A9088">вост.</text><circle cx="1001.1" cy="1000.2" r="11" fill="#A8814F"/><text x="612.4" y="1046.1" text-anchor="middle" font-family="ui-monospace, Consolas, monospace" font-size="29" fill="#2A302C">64,8 м</text><text x="612.4" y="1078.1" text-anchor="middle" font-family="'Segoe UI', system-ui, sans-serif" font-size="21" fill="#8A9088">юж.</text><circle cx="223.7" cy="1027.9" r="11" fill="#A8814F"/><text x="224.6" y="614.3" text-anchor="middle" font-family="ui-monospace, Consolas, monospace" font-size="29" fill="#2A302C">70,1 м</text><text x="224.6" y="647.3" text-anchor="middle" font-family="'Segoe UI', system-ui, sans-serif" font-size="21" fill="#8A9088">зап.</text><text x="600" y="594" text-anchor="middle" font-family="'Segoe UI', system-ui, sans-serif" font-size="54" fill="#2A302C">№42</text><text x="600" y="646" text-anchor="middle" font-family="'Segoe UI', system-ui, sans-serif" font-size="32" fill="#5A615A">14,40 сотки · 1440 м²</text><g transform="translate(1050 150)"><circle r="48" fill="none" stroke="#9AA096" stroke-width="4"/><path d="M 0 -36 L 13 11 L 0 2 L -13 11 Z" fill="#2A302C"/><text y="-56" text-anchor="middle" font-family="'Segoe UI', system-ui, sans-serif" font-size="26" fill="#9AA096">С</text></g><g font-family="ui-monospace, 'Cascadia Mono', Consolas, monospace" opacity="0.9">
    <rect x="928.2" y="1132.8" width="245.4" height="40.8" rx="20.4" fill="rgba(250,248,244,0.72)"/>
    <text x="1050.9" y="1160.5" text-anchor="middle" fill="#2A302C" font-size="20.4" letter-spacing="1.2">LAND-SCHEME-042</text>
  </g></svg>