<svg xmlns="http://www.w3.org/2000/svg" viewBox="0 0 1400 1050" width="1400" height="1050" role="img" aria-label="Схема проезда к офису продаж" preserveAspectRatio="xMidYMid slice"><rect width="1400" height="1050" fill="#EFEBE2"/><rect width="1400" height="378.0" fill="#CBD6BC" opacity="0.8"/><path d="M -70.0 777.0 C 350.0 588.0, 812.0 987.0, 1470.0 630.0" fill="none" stroke="#A6C0CC" stroke-width="157.5" opacity="0.95"/><g stroke="#C9C2B4" stroke-width="11.5" opacity="0.9"><line x1="0" y1="150.0" x2="1400" y2="108.0"/><line x1="0" y1="300.0" x2="1400" y2="258.0"/><line x1="0" y1="450.0" x2="1400" y2="408.0"/><line x1="0" y1="600.0" x2="1400" y2="558.0"/><line x1="0" y1="750.0" x2="1400" y2="708.0"/><line x1="0" y1="900.0" x2="1400" y2="858.0"/><line x1="155.6" y1="0" x2="183.6" y2="1050"/><line x1="311.1" y1="0" x2="339.1" y2="1050"/><line x1="466.7" y1="0" x2="494.7" y2="1050"/><line x1="622.2" y1="0" x2="650.2" y2="1050"/><line x1="777.8" y1="0" x2="805.8" y2="1050"/><line x1="933.3" y1="0" x2="961.3" y2="1050"/><line x1="1088.9" y1="0" x2="1116.9" y2="1050"/><line x1="1244.4" y1="0" x2="1272.4" y2="1050"/></g><g stroke="#B9B1A1" stroke-width="21.0" opacity="0.8" fill="none">
    <path d="M 0 441.0 L 1400 399.0"/>
    <path d="M 420.0 0 L 476.0 1050"/>
  </g><circle cx="588.0" cy="504.0" r="105.0" fill="#C79A5E" opacity="0.24"/><path d="M 588.0 414.8 a 42.0 42.0 0 1 1 -0.1 0 z" fill="#1E2626"/><circle cx="588.0" cy="445.2" r="15.8" fill="#F5F1E8"/><g font-family="ui-monospace, 'Cascadia Mono', Consolas, monospace" opacity="0.9">
    <rect x="1227.8" y="971.6" width="141.4" height="47.6" rx="23.8" fill="rgba(250,248,244,0.72)"/>
    <text x="1298.5" y="1004.0" text-anchor="middle" fill="#2A302C" font-size="23.8" letter-spacing="1.4">MAP-02</text>
  </g></svg>