<svg xmlns="http://www.w3.org/2000/svg" viewBox="0 0 1600 1000" width="1600" height="1000" role="img" aria-label="Схема зелёных коридоров" preserveAspectRatio="xMidYMid slice"><rect width="1600" height="1000" fill="#F5F2EA"/><rect width="1600" height="220.0" fill="#CBD6BC" opacity="0.85"/><path d="M -80.0 860.0 C 480.0 720.0, 960.0 980.0, 1680.0 740.0" fill="none" stroke="#A6C0CC" stroke-width="130.0" opacity="0.9"/><rect x="144.0" y="320.0" width="304.0" height="130.0" rx="8.0" fill="#25302E" opacity="0.9"/><rect x="144.0" y="320.0" width="304.0" height="130.0" rx="8.0" fill="none" stroke="#C79A5E" stroke-width="4.0" opacity="0.75"/><rect x="512.0" y="280.0" width="240.0" height="150.0" rx="8.0" fill="#25302E" opacity="0.9"/><rect x="512.0" y="280.0" width="240.0" height="150.0" rx="8.0" fill="none" stroke="#C79A5E" stroke-width="4.0" opacity="0.75"/><rect x="816.0" y="340.0" width="272.0" height="120.0" rx="8.0" fill="#25302E" opacity="0.9"/><rect x="816.0" y="340.0" width="272.0" height="120.0" rx="8.0" fill="none" stroke="#C79A5E" stroke-width="4.0" opacity="0.75"/><rect x="240.0" y="530.0" width="208.0" height="120.0" rx="8.0" fill="#25302E" opacity="0.9"/><rect x="240.0" y="530.0" width="208.0" height="120.0" rx="8.0" fill="none" stroke="#C79A5E" stroke-width="4.0" opacity="0.75"/><rect x="576.0" y="550.0" width="320.0" height="100.0" rx="8.0" fill="#25302E" opacity="0.9"/><rect x="576.0" y="550.0" width="320.0" height="100.0" rx="8.0" fill="none" stroke="#C79A5E" stroke-width="4.0" opacity="0.75"/><rect x="1008.0" y="500.0" width="240.0" height="140.0" rx="8.0" fill="#25302E" opacity="0.9"/><rect x="1008.0" y="500.0" width="240.0" height="140.0" rx="8.0" fill="none" stroke="#C79A5E" stroke-width="4.0" opacity="0.75"/><rect x="1248.0" y="300.0" width="288.0" height="420.0" rx="10.0" fill="#C79A5E" fill-opacity="0.16" stroke="#C79A5E" stroke-width="6.0" stroke-dasharray="22.0 14.0"/><rect x="1272.0" y="320.0" width="240.0" height="35.0" fill="#8A6A3E" opacity="0.28" rx="2"/><rect x="1272.0" y="368.0" width="240.0" height="35.0" fill="#8A6A3E" opacity="0.28" rx="2"/><rect x="1272.0" y="416.0" width="240.0" height="35.0" fill="#8A6A3E" opacity="0.28" rx="2"/><rect x="1272.0" y="464.0" width="240.0" height="35.0" fill="#8A6A3E" opacity="0.28" rx="2"/><rect x="1272.0" y="512.0" width="240.0" height="35.0" fill="#8A6A3E" opacity="0.28" rx="2"/><rect x="1272.0" y="560.0" width="240.0" height="35.0" fill="#8A6A3E" opacity="0.28" rx="2"/><rect x="1272.0" y="608.0" width="240.0" height="35.0" fill="#8A6A3E" opacity="0.28" rx="2"/><rect x="1272.0" y="656.0" width="240.0" height="35.0" fill="#8A6A3E" opacity="0.28" rx="2"/><g stroke="#6E8A55" stroke-width="9.0" stroke-dasharray="22.0 16.0" opacity="0.9" fill="none" stroke-linecap="round">
      <path d="M 96.0 200.0 L 448.0 500.0 L 544.0 820.0"/>
      <path d="M 768.0 180.0 L 800.0 520.0 L 928.0 840.0"/>
      <path d="M 1152.0 220.0 L 1120.0 560.0 L 1184.0 820.0"/>
    </g><g font-family="ui-monospace, 'Cascadia Mono', Consolas, monospace" opacity="0.9">
    <rect x="1274.4" y="910.4" width="290.4" height="54.4" rx="27.2" fill="rgba(250,248,244,0.72)"/>
    <text x="1419.6" y="947.4" text-anchor="middle" fill="#2A302C" font-size="27.2" letter-spacing="1.6">MASTERPLAN-03</text>
  </g></svg>