<svg xmlns="http://www.w3.org/2000/svg" viewBox="0 0 1120 1400" width="1120" height="1400" role="img" aria-label="Схема планировки: 2 комнаты" preserveAspectRatio="xMidYMid slice"><rect width="1120" height="1400" fill="#FBF8F2"/><text x="100" y="96" font-family="'Segoe UI', system-ui, sans-serif" font-size="34" fill="#2A302C">2 комнаты</text><rect x="100" y="140" width="920" height="1100" fill="#F2EDE3"/><rect x="100.0" y="140.0" width="478.4" height="550.0" fill="#FFFFFF" stroke="#2A302C" stroke-width="4"/><text x="339.2" y="424.0" text-anchor="middle" font-family="'Segoe UI', system-ui, sans-serif" font-size="27" fill="#3A403B">Гостиная</text><rect x="578.4" y="140.0" width="441.6" height="550.0" fill="#FFFFFF" stroke="#2A302C" stroke-width="4"/><text x="799.2" y="424.0" text-anchor="middle" font-family="'Segoe UI', system-ui, sans-serif" font-size="27" fill="#3A403B">Спальня</text><rect x="100.0" y="690.0" width="404.8" height="550.0" fill="#FFFFFF" stroke="#2A302C" stroke-width="4"/><text x="302.4" y="974.0" text-anchor="middle" font-family="'Segoe UI', system-ui, sans-serif" font-size="27" fill="#3A403B">Кухня</text><rect x="504.8" y="690.0" width="239.2" height="308.0" fill="#FFFFFF" stroke="#2A302C" stroke-width="4"/><text x="624.4" y="853.0" text-anchor="middle" font-family="'Segoe UI', system-ui, sans-serif" font-size="27" fill="#3A403B">С/у</text><rect x="504.8" y="998.0" width="239.2" height="242.0" fill="#FFFFFF" stroke="#2A302C" stroke-width="4"/><text x="624.4" y="1128.0" text-anchor="middle" font-family="'Segoe UI', system-ui, sans-serif" font-size="27" fill="#3A403B">Гардероб</text><rect x="744.0" y="690.0" width="276.0" height="550.0" fill="#FFFFFF" stroke="#2A302C" stroke-width="4"/><text x="882.0" y="974.0" text-anchor="middle" font-family="'Segoe UI', system-ui, sans-serif" font-size="27" fill="#3A403B">Прихожая</text><rect x="100" y="140" width="920" height="1100" fill="none" stroke="#2A302C" stroke-width="9"/><g stroke="#A8814F" stroke-width="3">
    <line x1="100" y1="1280" x2="1020" y2="1280"/>
    <line x1="100" y1="1268" x2="100" y2="1292"/>
    <line x1="1020" y1="1268" x2="1020" y2="1292"/>
  </g><g transform="translate(966 194)"><circle r="30" fill="none" stroke="#9AA096" stroke-width="3"/><path d="M 0 -23 L 8 7 L 0 1 L -8 7 Z" fill="#2A302C"/><text y="-34" text-anchor="middle" font-family="'Segoe UI', system-ui, sans-serif" font-size="20" fill="#9AA096">С</text></g><g font-family="ui-monospace, 'Cascadia Mono', Consolas, monospace" opacity="0.9">
    <rect x="947.8" y="1321.6" width="141.4" height="47.6" rx="23.8" fill="rgba(250,248,244,0.72)"/>
    <text x="1018.5" y="1354.0" text-anchor="middle" fill="#2A302C" font-size="23.8" letter-spacing="1.4">PLAN-2</text>
  </g></svg>