<svg xmlns="http://www.w3.org/2000/svg" viewBox="0 0 1500 1000" width="1500" height="1000" role="img" aria-label="Материал по ходу проекта 4" preserveAspectRatio="xMidYMid slice">
  <defs>
    <linearGradient id="sky" x1="0" y1="0" x2="0" y2="1">
      <stop offset="0" stop-color="#8FA6B4"/>
      <stop offset="0.55" stop-color="#C3CEcd"/>
      <stop offset="1" stop-color="#E4E3D8"/>
    </linearGradient>
    <radialGradient id="sunHalo" cx="0.66" cy="0.3" r="0.9">
      <stop offset="0" stop-color="#FFFFFF" stop-opacity="0.34"/>
      <stop offset="0.5" stop-color="#FFFFFF" stop-opacity="0.1"/>
      <stop offset="1" stop-color="#FFFFFF" stop-opacity="0"/>
    </radialGradient>
    <radialGradient id="sun" cx="0.66" cy="0.3" r="0.3">
      <stop offset="0" stop-color="#FFFFFF" stop-opacity="0.6"/>
      <stop offset="0.35" stop-color="#FFFFFF" stop-opacity="0.2"/>
      <stop offset="0.72" stop-color="#FFFFFF" stop-opacity="0.05"/>
      <stop offset="1" stop-color="#FFFFFF" stop-opacity="0"/>
    </radialGradient>
  </defs>
  <rect width="1500" height="160" fill="url(#sky)"/>
  <rect width="1500" height="160" fill="url(#sunHalo)"/>
  <rect width="1500" height="160" fill="url(#sun)"/><path d="M -28.8 160.0 L -28.8 115.0 Q -7.8 52.8 13.3 116.3 Q 31.0 109.9 48.8 136.8 Q 66.3 87.1 83.7 115.4 Q 101.6 54.5 119.4 101.8 Q 137.0 52.4 154.6 109.0 Q 172.2 53.6 189.7 86.7 Q 208.3 81.0 226.9 119.2 Q 237.7 88.0 248.6 117.3 Q 264.8 89.3 281.1 118.0 Q 292.2 112.3 303.4 143.1 Q 316.5 91.0 329.6 131.5 Q 349.3 98.1 369.0 142.2 Q 392.5 118.8 415.9 147.7 Q 430.8 65.2 445.7 120.2 Q 456.1 50.1 466.6 104.5 Q 481.3 66.5 495.9 127.0 Q 519.6 111.6 543.4 133.6 Q 558.7 61.3 574.0 120.3 Q 591.3 93.5 608.7 124.6 Q 624.4 83.0 640.1 133.0 Q 657.4 102.2 674.7 128.1 Q 689.5 74.9 704.4 103.1 Q 720.1 101.8 735.8 140.8 Q 758.8 70.8 781.7 131.6 Q 800.9 75.7 820.2 105.3 Q 835.8 102.8 851.4 130.6 Q 863.0 112.1 874.7 145.4 Q 888.8 113.8 902.9 128.7 Q 913.6 67.3 924.3 97.4 Q 945.0 50.6 965.7 109.0 Q 982.9 77.1 1000.2 111.4 Q 1021.1 67.2 1042.1 115.5 Q 1061.3 62.9 1080.5 109.2 Q 1094.4 81.2 1108.4 104.6 Q 1124.4 116.2 1140.4 140.3 Q 1163.7 58.5 1187.0 95.2 Q 1209.7 60.4 1232.4 107.9 Q 1248.9 83.0 1265.3 134.9 Q 1286.9 78.3 1308.5 127.7 Q 1322.6 113.2 1336.7 134.2 Q 1346.4 72.0 1356.2 103.1 Q 1369.0 112.5 1381.8 126.1 Q 1405.6 115.3 1429.3 145.2 Q 1443.3 105.9 1457.3 122.3 Q 1480.0 70.6 1502.6 106.9 Q 1514.7 68.6 1526.8 103.4 Q 1537.9 73.8 1549.0 110.7 L 1549.0 160.0 Z" fill="#5C6C60" opacity="0.4"/><path d="M -44.1 160.0 L -44.1 126.3 Q -28.8 123.4 -13.5 133.7 Q 21.3 123.3 56.1 136.3 Q 75.5 105.0 94.9 133.8 Q 119.2 82.6 143.4 134.4 Q 169.8 120.6 196.1 141.5 Q 213.1 103.0 230.1 126.6 Q 252.6 89.7 275.1 135.2 Q 290.6 103.2 306.1 133.4 Q 340.0 114.9 373.8 133.5 Q 401.6 87.9 429.4 129.4 Q 454.6 104.1 479.7 130.0 Q 509.3 101.4 539.0 121.0 Q 559.7 92.5 580.5 122.2 Q 597.6 78.4 614.6 105.5 Q 642.8 103.3 671.0 122.7 Q 706.1 114.2 741.2 135.6 Q 768.4 99.2 795.6 138.7 Q 823.2 82.9 850.8 107.3 Q 871.0 118.9 891.1 135.7 Q 912.4 127.6 933.7 136.6 Q 963.2 86.0 992.8 130.2 Q 1012.4 100.6 1032.0 136.8 Q 1057.8 124.1 1083.6 134.0 Q 1099.0 113.1 1114.4 142.2 Q 1146.7 102.2 1178.9 129.6 Q 1202.3 109.0 1225.7 143.8 Q 1251.0 110.8 1276.3 145.6 Q 1300.9 104.6 1325.4 122.5 Q 1350.5 105.4 1375.6 124.6 Q 1405.5 111.2 1435.4 133.6 Q 1461.8 122.1 1488.3 142.8 Q 1517.9 95.5 1547.5 121.2 L 1547.5 160.0 Z" fill="#3B4A3D" opacity="0.85"/><defs><linearGradient id="field" x1="0" y1="0" x2="0" y2="1">
    <stop offset="0" stop-color="#7C8A5C"/><stop offset="1" stop-color="#9BA671"/>
  </linearGradient></defs>
  <rect y="160.0" width="1500" height="840.0" fill="url(#field)"/><rect x="653.1" y="184.1" width="5.7" height="1.1" fill="#5E6B42" opacity="0.11" rx="1"/><rect x="247.2" y="636.5" width="8.0" height="2.4" fill="#5E6B42" opacity="0.23" rx="1"/><rect x="1295.0" y="804.8" width="5.2" height="2.9" fill="#5E6B42" opacity="0.26" rx="1"/><rect x="491.4" y="750.8" width="8.8" height="2.8" fill="#5E6B42" opacity="0.15" rx="1"/><rect x="566.4" y="318.4" width="5.3" height="1.5" fill="#5E6B42" opacity="0.37" rx="1"/><rect x="1222.7" y="351.6" width="2.6" height="1.6" fill="#5E6B42" opacity="0.30" rx="1"/><rect x="151.5" y="263.8" width="5.6" height="1.3" fill="#5E6B42" opacity="0.22" rx="1"/><rect x="293.9" y="627.6" width="9.7" height="2.4" fill="#5E6B42" opacity="0.26" rx="1"/><rect x="95.5" y="643.9" width="10.2" height="2.4" fill="#5E6B42" opacity="0.35" rx="1"/><rect x="513.3" y="249.5" width="2.3" height="1.3" fill="#5E6B42" opacity="0.11" rx="1"/><rect x="864.6" y="742.9" width="2.5" height="2.7" fill="#5E6B42" opacity="0.15" rx="1"/><rect x="718.5" y="659.0" width="9.6" height="2.5" fill="#5E6B42" opacity="0.18" rx="1"/><rect x="1055.4" y="215.8" width="3.2" height="1.2" fill="#5E6B42" opacity="0.15" rx="1"/><rect x="1190.9" y="433.3" width="8.8" height="1.8" fill="#5E6B42" opacity="0.21" rx="1"/><rect x="169.4" y="761.7" width="3.7" height="2.8" fill="#5E6B42" opacity="0.19" rx="1"/><rect x="466.1" y="869.6" width="7.8" height="3.1" fill="#5E6B42" opacity="0.36" rx="1"/><rect x="513.8" y="247.2" width="2.9" height="1.3" fill="#5E6B42" opacity="0.19" rx="1"/><rect x="1485.1" y="449.0" width="7.3" height="1.9" fill="#5E6B42" opacity="0.12" rx="1"/><rect x="254.6" y="352.5" width="6.4" height="1.6" fill="#5E6B42" opacity="0.37" rx="1"/><rect x="40.4" y="824.3" width="8.6" height="3.0" fill="#5E6B42" opacity="0.16" rx="1"/><rect x="599.7" y="465.4" width="4.0" height="1.9" fill="#5E6B42" opacity="0.28" rx="1"/><rect x="1466.9" y="430.5" width="4.9" height="1.8" fill="#5E6B42" opacity="0.19" rx="1"/><rect x="702.2" y="370.3" width="5.9" height="1.6" fill="#5E6B42" opacity="0.11" rx="1"/><rect x="1253.5" y="892.3" width="9.2" height="3.2" fill="#5E6B42" opacity="0.38" rx="1"/><rect x="1130.2" y="504.4" width="2.6" height="2.0" fill="#5E6B42" opacity="0.21" rx="1"/><rect x="601.1" y="693.5" width="13.8" height="2.6" fill="#5E6B42" opacity="0.11" rx="1"/><rect x="48.5" y="787.8" width="9.8" height="2.9" fill="#5E6B42" opacity="0.29" rx="1"/><rect x="1375.4" y="882.0" width="13.8" height="3.1" fill="#5E6B42" opacity="0.16" rx="1"/><rect x="607.6" y="577.8" width="11.5" height="2.2" fill="#5E6B42" opacity="0.16" rx="1"/><rect x="1299.3" y="445.2" width="3.5" height="1.8" fill="#5E6B42" opacity="0.24" rx="1"/><rect x="1056.7" y="828.8" width="2.0" height="3.0" fill="#5E6B42" opacity="0.18" rx="1"/><rect x="123.7" y="398.6" width="4.8" height="1.7" fill="#5E6B42" opacity="0.31" rx="1"/><rect x="936.6" y="248.1" width="4.2" height="1.3" fill="#5E6B42" opacity="0.12" rx="1"/><rect x="830.3" y="633.7" width="9.2" height="2.4" fill="#5E6B42" opacity="0.36" rx="1"/><rect x="481.1" y="330.3" width="3.2" height="1.5" fill="#5E6B42" opacity="0.33" rx="1"/><rect x="1052.1" y="752.4" width="9.9" height="2.8" fill="#5E6B42" opacity="0.12" rx="1"/><rect x="1455.5" y="596.9" width="8.6" height="2.3" fill="#5E6B42" opacity="0.28" rx="1"/><rect x="196.1" y="926.0" width="4.3" height="3.3" fill="#5E6B42" opacity="0.32" rx="1"/><rect x="602.4" y="597.3" width="4.9" height="2.3" fill="#5E6B42" opacity="0.31" rx="1"/><rect x="101.2" y="434.1" width="6.4" height="1.8" fill="#5E6B42" opacity="0.24" rx="1"/><rect x="1009.5" y="708.0" width="6.0" height="2.6" fill="#5E6B42" opacity="0.12" rx="1"/><rect x="1461.2" y="228.2" width="2.0" height="1.2" fill="#5E6B42" opacity="0.24" rx="1"/><rect x="1412.1" y="458.2" width="5.0" height="1.9" fill="#5E6B42" opacity="0.25" rx="1"/><rect x="775.6" y="162.5" width="4.5" height="1.0" fill="#5E6B42" opacity="0.10" rx="1"/><rect x="881.8" y="855.6" width="7.9" height="3.1" fill="#5E6B42" opacity="0.13" rx="1"/><rect x="1179.1" y="617.4" width="3.5" height="2.4" fill="#5E6B42" opacity="0.13" rx="1"/><rect x="278.6" y="927.0" width="9.8" height="3.3" fill="#5E6B42" opacity="0.18" rx="1"/><rect x="1261.8" y="239.0" width="6.9" height="1.2" fill="#5E6B42" opacity="0.32" rx="1"/><rect x="1178.7" y="241.0" width="2.6" height="1.2" fill="#5E6B42" opacity="0.31" rx="1"/><rect x="188.6" y="602.0" width="11.2" height="2.3" fill="#5E6B42" opacity="0.27" rx="1"/><rect x="1204.9" y="336.6" width="3.6" height="1.5" fill="#5E6B42" opacity="0.15" rx="1"/><rect x="1134.1" y="712.3" width="2.4" height="2.6" fill="#5E6B42" opacity="0.36" rx="1"/><rect x="915.8" y="692.8" width="4.0" height="2.6" fill="#5E6B42" opacity="0.33" rx="1"/><rect x="294.3" y="621.0" width="13.1" height="2.4" fill="#5E6B42" opacity="0.16" rx="1"/><rect x="341.4" y="573.7" width="8.9" height="2.2" fill="#5E6B42" opacity="0.33" rx="1"/><rect x="851.4" y="545.2" width="8.3" height="2.1" fill="#5E6B42" opacity="0.18" rx="1"/><rect x="468.3" y="837.5" width="6.6" height="3.0" fill="#5E6B42" opacity="0.33" rx="1"/><rect x="85.3" y="343.2" width="9.1" height="1.5" fill="#5E6B42" opacity="0.25" rx="1"/><rect x="86.8" y="607.4" width="9.6" height="2.3" fill="#5E6B42" opacity="0.32" rx="1"/><rect x="968.9" y="760.6" width="7.6" height="2.8" fill="#5E6B42" opacity="0.38" rx="1"/><rect x="682.4" y="444.6" width="6.1" height="1.8" fill="#5E6B42" opacity="0.25" rx="1"/><rect x="1087.1" y="492.2" width="11.3" height="2.0" fill="#5E6B42" opacity="0.21" rx="1"/><rect x="416.3" y="654.7" width="12.2" height="2.5" fill="#5E6B42" opacity="0.19" rx="1"/><rect x="743.6" y="848.9" width="5.4" height="3.1" fill="#5E6B42" opacity="0.15" rx="1"/><rect x="254.4" y="687.8" width="11.4" height="2.6" fill="#5E6B42" opacity="0.32" rx="1"/><rect x="318.9" y="555.5" width="11.0" height="2.2" fill="#5E6B42" opacity="0.20" rx="1"/><rect x="1014.1" y="344.2" width="7.9" height="1.5" fill="#5E6B42" opacity="0.26" rx="1"/><rect x="1348.6" y="965.9" width="11.7" height="3.4" fill="#5E6B42" opacity="0.37" rx="1"/><rect x="805.4" y="950.6" width="14.7" height="3.4" fill="#5E6B42" opacity="0.24" rx="1"/><rect x="642.9" y="445.5" width="9.5" height="1.8" fill="#5E6B42" opacity="0.14" rx="1"/><rect x="1223.5" y="300.4" width="8.4" height="1.4" fill="#5E6B42" opacity="0.29" rx="1"/><rect x="673.0" y="649.5" width="4.8" height="2.5" fill="#5E6B42" opacity="0.19" rx="1"/><rect x="1035.3" y="205.8" width="4.0" height="1.1" fill="#5E6B42" opacity="0.25" rx="1"/><rect x="235.6" y="822.9" width="12.2" height="3.0" fill="#5E6B42" opacity="0.13" rx="1"/><rect x="615.4" y="632.9" width="13.0" height="2.4" fill="#5E6B42" opacity="0.27" rx="1"/><rect x="876.7" y="714.4" width="10.3" height="2.6" fill="#5E6B42" opacity="0.14" rx="1"/><rect x="1071.5" y="596.9" width="10.6" height="2.3" fill="#5E6B42" opacity="0.13" rx="1"/><rect x="560.7" y="242.7" width="7.7" height="1.2" fill="#5E6B42" opacity="0.23" rx="1"/><rect x="1121.5" y="335.1" width="6.3" height="1.5" fill="#5E6B42" opacity="0.15" rx="1"/><rect x="550.1" y="469.9" width="8.5" height="1.9" fill="#5E6B42" opacity="0.18" rx="1"/><rect x="263.7" y="373.5" width="8.3" height="1.6" fill="#5E6B42" opacity="0.27" rx="1"/><rect x="1337.9" y="277.6" width="6.0" height="1.4" fill="#5E6B42" opacity="0.13" rx="1"/><rect x="836.1" y="764.1" width="8.6" height="2.8" fill="#5E6B42" opacity="0.13" rx="1"/><rect x="109.5" y="357.4" width="6.7" height="1.6" fill="#5E6B42" opacity="0.15" rx="1"/><rect x="1260.7" y="477.8" width="3.4" height="1.9" fill="#5E6B42" opacity="0.38" rx="1"/><rect x="1332.1" y="880.2" width="10.6" height="3.1" fill="#5E6B42" opacity="0.20" rx="1"/><rect x="377.6" y="813.3" width="12.4" height="2.9" fill="#5E6B42" opacity="0.16" rx="1"/><rect x="1224.8" y="645.0" width="10.7" height="2.4" fill="#5E6B42" opacity="0.32" rx="1"/><rect x="59.0" y="899.4" width="9.6" height="3.2" fill="#5E6B42" opacity="0.24" rx="1"/><rect x="1394.0" y="595.3" width="3.2" height="2.3" fill="#5E6B42" opacity="0.14" rx="1"/><rect x="1393.0" y="176.5" width="4.8" height="1.0" fill="#5E6B42" opacity="0.32" rx="1"/><rect x="241.8" y="341.4" width="2.3" height="1.5" fill="#5E6B42" opacity="0.20" rx="1"/><rect x="778.5" y="271.0" width="2.3" height="1.3" fill="#5E6B42" opacity="0.33" rx="1"/><rect x="1476.2" y="464.5" width="9.8" height="1.9" fill="#5E6B42" opacity="0.30" rx="1"/><rect x="779.0" y="908.7" width="2.1" height="3.2" fill="#5E6B42" opacity="0.15" rx="1"/><rect x="1287.8" y="958.7" width="4.0" height="3.4" fill="#5E6B42" opacity="0.26" rx="1"/><rect x="468.7" y="383.2" width="2.1" height="1.7" fill="#5E6B42" opacity="0.30" rx="1"/><rect x="35.9" y="695.2" width="13.3" height="2.6" fill="#5E6B42" opacity="0.12" rx="1"/><rect x="1442.7" y="774.6" width="8.4" height="2.8" fill="#5E6B42" opacity="0.36" rx="1"/><rect x="284.3" y="651.6" width="9.0" height="2.5" fill="#5E6B42" opacity="0.15" rx="1"/><rect x="670.8" y="502.7" width="5.9" height="2.0" fill="#5E6B42" opacity="0.11" rx="1"/><rect x="975.5" y="415.3" width="7.1" height="1.8" fill="#5E6B42" opacity="0.27" rx="1"/><rect x="422.0" y="628.3" width="5.9" height="2.4" fill="#5E6B42" opacity="0.26" rx="1"/><rect x="836.1" y="738.1" width="13.3" height="2.7" fill="#5E6B42" opacity="0.34" rx="1"/><rect x="330.5" y="378.3" width="4.0" height="1.6" fill="#5E6B42" opacity="0.38" rx="1"/><rect x="102.1" y="546.8" width="3.4" height="2.2" fill="#5E6B42" opacity="0.27" rx="1"/><rect x="630.5" y="193.7" width="2.3" height="1.1" fill="#5E6B42" opacity="0.23" rx="1"/><rect x="882.0" y="996.5" width="4.8" height="3.5" fill="#5E6B42" opacity="0.38" rx="1"/><rect x="374.4" y="690.1" width="9.6" height="2.6" fill="#5E6B42" opacity="0.36" rx="1"/><rect x="1116.1" y="511.6" width="6.5" height="2.0" fill="#5E6B42" opacity="0.34" rx="1"/><rect x="246.7" y="230.8" width="3.6" height="1.2" fill="#5E6B42" opacity="0.21" rx="1"/><rect x="1267.8" y="509.2" width="8.8" height="2.0" fill="#5E6B42" opacity="0.28" rx="1"/><rect x="188.0" y="849.4" width="8.4" height="3.1" fill="#5E6B42" opacity="0.34" rx="1"/><rect x="544.6" y="343.1" width="2.6" height="1.5" fill="#5E6B42" opacity="0.32" rx="1"/><rect x="1134.7" y="832.9" width="12.7" height="3.0" fill="#5E6B42" opacity="0.30" rx="1"/><rect x="633.9" y="415.9" width="9.2" height="1.8" fill="#5E6B42" opacity="0.16" rx="1"/><rect x="350.6" y="610.6" width="8.2" height="2.3" fill="#5E6B42" opacity="0.20" rx="1"/><rect x="674.8" y="336.8" width="9.1" height="1.5" fill="#5E6B42" opacity="0.19" rx="1"/><rect x="1015.5" y="582.1" width="7.7" height="2.3" fill="#5E6B42" opacity="0.25" rx="1"/><rect x="814.5" y="457.9" width="9.5" height="1.9" fill="#5E6B42" opacity="0.30" rx="1"/><rect x="917.1" y="888.7" width="11.2" height="3.2" fill="#5E6B42" opacity="0.16" rx="1"/><rect x="808.2" y="352.6" width="4.3" height="1.6" fill="#5E6B42" opacity="0.23" rx="1"/><rect x="452.5" y="480.3" width="7.2" height="2.0" fill="#5E6B42" opacity="0.15" rx="1"/><rect x="257.9" y="574.5" width="4.0" height="2.2" fill="#5E6B42" opacity="0.18" rx="1"/><rect x="182.2" y="261.9" width="7.4" height="1.3" fill="#5E6B42" opacity="0.17" rx="1"/><rect x="593.1" y="420.0" width="7.6" height="1.8" fill="#5E6B42" opacity="0.16" rx="1"/><rect x="416.0" y="364.4" width="4.4" height="1.6" fill="#5E6B42" opacity="0.21" rx="1"/><rect x="309.7" y="714.1" width="3.1" height="2.6" fill="#5E6B42" opacity="0.33" rx="1"/><rect x="188.4" y="218.6" width="3.2" height="1.2" fill="#5E6B42" opacity="0.22" rx="1"/><rect x="633.0" y="699.1" width="4.0" height="2.6" fill="#5E6B42" opacity="0.24" rx="1"/><rect x="664.4" y="231.7" width="7.8" height="1.2" fill="#5E6B42" opacity="0.33" rx="1"/><rect x="1014.8" y="724.7" width="4.4" height="2.7" fill="#5E6B42" opacity="0.13" rx="1"/><rect x="1112.4" y="619.6" width="4.2" height="2.4" fill="#5E6B42" opacity="0.25" rx="1"/><rect x="298.6" y="198.5" width="2.6" height="1.1" fill="#5E6B42" opacity="0.17" rx="1"/><rect x="668.2" y="857.0" width="12.9" height="3.1" fill="#5E6B42" opacity="0.15" rx="1"/><rect x="759.3" y="935.1" width="14.1" height="3.3" fill="#5E6B42" opacity="0.11" rx="1"/><rect x="378.4" y="464.5" width="9.5" height="1.9" fill="#5E6B42" opacity="0.16" rx="1"/><rect x="301.4" y="798.1" width="11.5" height="2.9" fill="#5E6B42" opacity="0.35" rx="1"/><rect x="86.2" y="190.5" width="5.3" height="1.1" fill="#5E6B42" opacity="0.14" rx="1"/><rect x="114.9" y="524.0" width="2.4" height="2.1" fill="#5E6B42" opacity="0.23" rx="1"/><rect x="638.5" y="807.4" width="7.1" height="2.9" fill="#5E6B42" opacity="0.21" rx="1"/><rect x="137.5" y="988.8" width="14.6" height="3.5" fill="#5E6B42" opacity="0.27" rx="1"/><rect x="611.4" y="834.7" width="3.2" height="3.0" fill="#5E6B42" opacity="0.31" rx="1"/><rect x="450.2" y="655.1" width="5.8" height="2.5" fill="#5E6B42" opacity="0.13" rx="1"/><rect x="1444.4" y="517.3" width="9.6" height="2.1" fill="#5E6B42" opacity="0.38" rx="1"/><rect x="1278.7" y="841.9" width="14.7" height="3.0" fill="#5E6B42" opacity="0.29" rx="1"/><rect x="1331.4" y="211.6" width="4.9" height="1.2" fill="#5E6B42" opacity="0.12" rx="1"/><rect x="664.8" y="833.9" width="8.2" height="3.0" fill="#5E6B42" opacity="0.23" rx="1"/><rect x="1227.6" y="546.3" width="2.7" height="2.1" fill="#5E6B42" opacity="0.19" rx="1"/><rect x="1493.0" y="503.5" width="6.6" height="2.0" fill="#5E6B42" opacity="0.15" rx="1"/><rect x="795.6" y="555.4" width="2.9" height="2.2" fill="#5E6B42" opacity="0.16" rx="1"/><rect x="302.8" y="449.6" width="2.4" height="1.9" fill="#5E6B42" opacity="0.11" rx="1"/><rect x="917.7" y="353.2" width="6.6" height="1.6" fill="#5E6B42" opacity="0.23" rx="1"/><rect x="1380.7" y="821.9" width="8.4" height="3.0" fill="#5E6B42" opacity="0.37" rx="1"/><rect x="1013.0" y="521.8" width="4.2" height="2.1" fill="#5E6B42" opacity="0.29" rx="1"/><rect x="1240.1" y="461.7" width="4.3" height="1.9" fill="#5E6B42" opacity="0.31" rx="1"/><rect x="1388.7" y="535.9" width="8.7" height="2.1" fill="#5E6B42" opacity="0.22" rx="1"/><rect x="1297.8" y="523.5" width="11.8" height="2.1" fill="#5E6B42" opacity="0.19" rx="1"/><rect x="233.1" y="907.0" width="16.0" height="3.2" fill="#5E6B42" opacity="0.16" rx="1"/><rect x="1103.6" y="684.3" width="9.8" height="2.6" fill="#5E6B42" opacity="0.30" rx="1"/><rect x="1233.6" y="723.6" width="13.8" height="2.7" fill="#5E6B42" opacity="0.30" rx="1"/><rect x="1499.8" y="812.9" width="7.7" height="2.9" fill="#5E6B42" opacity="0.11" rx="1"/><rect x="1235.2" y="286.4" width="5.8" height="1.4" fill="#5E6B42" opacity="0.37" rx="1"/><rect x="126.3" y="260.5" width="3.0" height="1.3" fill="#5E6B42" opacity="0.34" rx="1"/><rect x="1164.2" y="375.3" width="6.2" height="1.6" fill="#5E6B42" opacity="0.23" rx="1"/><rect x="1452.2" y="450.5" width="9.7" height="1.9" fill="#5E6B42" opacity="0.38" rx="1"/><rect x="817.8" y="916.6" width="13.2" height="3.3" fill="#5E6B42" opacity="0.11" rx="1"/><rect x="1407.7" y="805.0" width="7.0" height="2.9" fill="#5E6B42" opacity="0.19" rx="1"/><rect x="311.7" y="371.0" width="2.8" height="1.6" fill="#5E6B42" opacity="0.20" rx="1"/><rect x="1207.1" y="612.8" width="12.0" height="2.3" fill="#5E6B42" opacity="0.19" rx="1"/><rect x="712.6" y="857.9" width="7.8" height="3.1" fill="#5E6B42" opacity="0.14" rx="1"/><rect x="939.3" y="575.3" width="4.9" height="2.2" fill="#5E6B42" opacity="0.14" rx="1"/><rect x="23.6" y="469.9" width="2.6" height="1.9" fill="#5E6B42" opacity="0.13" rx="1"/><rect x="1499.1" y="275.4" width="4.2" height="1.3" fill="#5E6B42" opacity="0.16" rx="1"/><rect x="445.7" y="681.4" width="13.5" height="2.6" fill="#5E6B42" opacity="0.10" rx="1"/><rect x="228.8" y="363.5" width="7.1" height="1.6" fill="#5E6B42" opacity="0.10" rx="1"/><rect x="156.9" y="511.2" width="10.1" height="2.0" fill="#5E6B42" opacity="0.19" rx="1"/><rect x="583.0" y="762.7" width="5.6" height="2.8" fill="#5E6B42" opacity="0.15" rx="1"/><rect x="1353.4" y="774.3" width="10.2" height="2.8" fill="#5E6B42" opacity="0.21" rx="1"/><rect x="1209.9" y="164.0" width="5.4" height="1.0" fill="#5E6B42" opacity="0.36" rx="1"/><rect x="1314.5" y="556.1" width="7.9" height="2.2" fill="#5E6B42" opacity="0.38" rx="1"/><rect x="626.8" y="716.5" width="10.3" height="2.7" fill="#5E6B42" opacity="0.22" rx="1"/><rect x="1098.5" y="522.8" width="10.6" height="2.1" fill="#5E6B42" opacity="0.19" rx="1"/><rect x="819.3" y="708.5" width="9.4" height="2.6" fill="#5E6B42" opacity="0.33" rx="1"/><rect x="297.6" y="829.0" width="3.5" height="3.0" fill="#5E6B42" opacity="0.14" rx="1"/><rect x="398.0" y="653.7" width="5.0" height="2.5" fill="#5E6B42" opacity="0.18" rx="1"/><rect x="1090.7" y="203.4" width="5.8" height="1.1" fill="#5E6B42" opacity="0.35" rx="1"/><rect x="359.4" y="250.9" width="4.1" height="1.3" fill="#5E6B42" opacity="0.30" rx="1"/><rect x="714.3" y="561.3" width="8.1" height="2.2" fill="#5E6B42" opacity="0.17" rx="1"/><rect x="599.4" y="829.6" width="13.2" height="3.0" fill="#5E6B42" opacity="0.10" rx="1"/><rect x="1342.1" y="346.7" width="7.6" height="1.6" fill="#5E6B42" opacity="0.28" rx="1"/><rect x="1066.3" y="618.6" width="7.2" height="2.4" fill="#5E6B42" opacity="0.34" rx="1"/><rect x="682.6" y="723.7" width="7.6" height="2.7" fill="#5E6B42" opacity="0.16" rx="1"/><rect x="726.9" y="652.0" width="11.0" height="2.5" fill="#5E6B42" opacity="0.36" rx="1"/><rect x="789.6" y="461.5" width="10.7" height="1.9" fill="#5E6B42" opacity="0.35" rx="1"/><rect x="608.0" y="640.7" width="3.7" height="2.4" fill="#5E6B42" opacity="0.27" rx="1"/><rect x="654.7" y="485.4" width="4.2" height="2.0" fill="#5E6B42" opacity="0.22" rx="1"/><rect x="93.1" y="724.5" width="6.6" height="2.7" fill="#5E6B42" opacity="0.18" rx="1"/><rect x="36.3" y="966.3" width="9.8" height="3.4" fill="#5E6B42" opacity="0.25" rx="1"/><rect x="1340.5" y="176.8" width="3.6" height="1.1" fill="#5E6B42" opacity="0.19" rx="1"/><rect x="1186.4" y="425.5" width="4.0" height="1.8" fill="#5E6B42" opacity="0.25" rx="1"/><rect x="826.9" y="721.2" width="8.3" height="2.7" fill="#5E6B42" opacity="0.13" rx="1"/><rect x="779.4" y="546.1" width="2.3" height="2.1" fill="#5E6B42" opacity="0.24" rx="1"/><rect x="425.2" y="284.9" width="5.1" height="1.4" fill="#5E6B42" opacity="0.24" rx="1"/><rect x="1027.7" y="462.8" width="3.4" height="1.9" fill="#5E6B42" opacity="0.24" rx="1"/><rect x="371.0" y="444.7" width="10.0" height="1.8" fill="#5E6B42" opacity="0.19" rx="1"/><rect x="404.9" y="349.5" width="5.1" height="1.6" fill="#5E6B42" opacity="0.29" rx="1"/><rect x="1477.5" y="852.0" width="14.8" height="3.1" fill="#5E6B42" opacity="0.25" rx="1"/><rect x="830.6" y="499.4" width="11.2" height="2.0" fill="#5E6B42" opacity="0.26" rx="1"/><rect x="145.0" y="419.1" width="7.4" height="1.8" fill="#5E6B42" opacity="0.20" rx="1"/><rect x="748.1" y="694.6" width="12.0" height="2.6" fill="#5E6B42" opacity="0.28" rx="1"/><rect x="1448.9" y="931.4" width="10.6" height="3.3" fill="#5E6B42" opacity="0.22" rx="1"/><rect x="1103.4" y="969.8" width="12.9" height="3.4" fill="#5E6B42" opacity="0.17" rx="1"/><rect x="1210.3" y="835.0" width="7.3" height="3.0" fill="#5E6B42" opacity="0.30" rx="1"/><rect x="562.8" y="709.0" width="6.6" height="2.6" fill="#5E6B42" opacity="0.29" rx="1"/><rect x="1031.6" y="229.7" width="4.9" height="1.2" fill="#5E6B42" opacity="0.17" rx="1"/><rect x="505.0" y="399.9" width="7.6" height="1.7" fill="#5E6B42" opacity="0.17" rx="1"/><rect x="312.8" y="715.2" width="11.0" height="2.7" fill="#5E6B42" opacity="0.19" rx="1"/><rect x="446.5" y="911.2" width="17.5" height="3.2" fill="#5E6B42" opacity="0.16" rx="1"/><rect x="1213.9" y="369.5" width="3.7" height="1.6" fill="#5E6B42" opacity="0.11" rx="1"/><rect x="1011.1" y="268.4" width="2.3" height="1.3" fill="#5E6B42" opacity="0.28" rx="1"/><rect x="461.5" y="530.9" width="11.7" height="2.1" fill="#5E6B42" opacity="0.23" rx="1"/><rect x="1389.9" y="776.4" width="12.0" height="2.8" fill="#5E6B42" opacity="0.13" rx="1"/><rect x="350.6" y="257.4" width="4.8" height="1.3" fill="#5E6B42" opacity="0.13" rx="1"/><rect x="519.7" y="735.0" width="10.5" height="2.7" fill="#5E6B42" opacity="0.27" rx="1"/><rect x="1157.5" y="973.1" width="11.2" height="3.4" fill="#5E6B42" opacity="0.16" rx="1"/><rect x="1074.5" y="829.5" width="4.1" height="3.0" fill="#5E6B42" opacity="0.14" rx="1"/><rect x="499.1" y="614.4" width="13.0" height="2.4" fill="#5E6B42" opacity="0.17" rx="1"/><rect x="75.7" y="925.6" width="14.5" height="3.3" fill="#5E6B42" opacity="0.26" rx="1"/><rect x="1018.2" y="542.2" width="11.9" height="2.1" fill="#5E6B42" opacity="0.16" rx="1"/><rect x="990.5" y="686.9" width="11.1" height="2.6" fill="#5E6B42" opacity="0.37" rx="1"/><rect x="243.7" y="605.7" width="5.9" height="2.3" fill="#5E6B42" opacity="0.28" rx="1"/><rect x="360.9" y="592.0" width="3.5" height="2.3" fill="#5E6B42" opacity="0.31" rx="1"/><rect x="275.3" y="764.6" width="4.1" height="2.8" fill="#5E6B42" opacity="0.35" rx="1"/><rect x="1366.2" y="547.7" width="10.4" height="2.2" fill="#5E6B42" opacity="0.17" rx="1"/><rect x="653.7" y="857.7" width="8.2" height="3.1" fill="#5E6B42" opacity="0.17" rx="1"/><rect x="1025.0" y="319.8" width="5.4" height="1.5" fill="#5E6B42" opacity="0.16" rx="1"/><rect x="179.2" y="318.4" width="6.5" height="1.5" fill="#5E6B42" opacity="0.19" rx="1"/><rect x="541.0" y="815.5" width="15.0" height="3.0" fill="#5E6B42" opacity="0.36" rx="1"/><rect x="247.5" y="801.2" width="13.9" height="2.9" fill="#5E6B42" opacity="0.16" rx="1"/><rect x="126.9" y="818.0" width="4.3" height="3.0" fill="#5E6B42" opacity="0.31" rx="1"/><rect x="642.5" y="825.7" width="5.0" height="3.0" fill="#5E6B42" opacity="0.21" rx="1"/><rect x="603.1" y="531.4" width="6.7" height="2.1" fill="#5E6B42" opacity="0.21" rx="1"/><rect x="1089.3" y="829.2" width="2.9" height="3.0" fill="#5E6B42" opacity="0.18" rx="1"/><rect x="1474.2" y="334.6" width="4.4" height="1.5" fill="#5E6B42" opacity="0.36" rx="1"/><rect x="836.6" y="314.5" width="5.7" height="1.5" fill="#5E6B42" opacity="0.25" rx="1"/><rect x="1292.9" y="723.1" width="9.3" height="2.7" fill="#5E6B42" opacity="0.15" rx="1"/><rect x="568.4" y="948.4" width="10.2" height="3.3" fill="#5E6B42" opacity="0.30" rx="1"/><rect x="168.4" y="420.7" width="4.4" height="1.8" fill="#5E6B42" opacity="0.37" rx="1"/><rect x="21.4" y="448.2" width="9.9" height="1.9" fill="#5E6B42" opacity="0.18" rx="1"/><rect x="1426.8" y="805.5" width="4.3" height="2.9" fill="#5E6B42" opacity="0.22" rx="1"/><rect x="530.5" y="518.9" width="5.2" height="2.1" fill="#5E6B42" opacity="0.28" rx="1"/><rect x="1389.5" y="527.8" width="10.3" height="2.1" fill="#5E6B42" opacity="0.28" rx="1"/><rect x="301.6" y="898.3" width="16.9" height="3.2" fill="#5E6B42" opacity="0.26" rx="1"/><rect x="1057.3" y="718.9" width="7.3" height="2.7" fill="#5E6B42" opacity="0.28" rx="1"/><rect x="282.2" y="221.5" width="4.8" height="1.2" fill="#5E6B42" opacity="0.21" rx="1"/><rect x="719.5" y="395.8" width="6.8" height="1.7" fill="#5E6B42" opacity="0.32" rx="1"/><rect x="174.8" y="778.4" width="11.3" height="2.8" fill="#5E6B42" opacity="0.17" rx="1"/><rect x="1008.6" y="609.4" width="2.9" height="2.3" fill="#5E6B42" opacity="0.13" rx="1"/><rect x="697.6" y="639.3" width="11.8" height="2.4" fill="#5E6B42" opacity="0.24" rx="1"/><polygon points="240.0,420.0 1200.0,350.0 1335.0,800.0 330.0,900.0"
      fill="#C79A5E" fill-opacity="0.14" stroke="#C79A5E" stroke-width="9.0" stroke-dasharray="32.0 18.0" stroke-linejoin="round"/><circle cx="240.0" cy="420.0" r="12.0" fill="#C79A5E"/><circle cx="1200.0" cy="350.0" r="12.0" fill="#C79A5E"/><circle cx="1335.0" cy="800.0" r="12.0" fill="#C79A5E"/><circle cx="330.0" cy="900.0" r="12.0" fill="#C79A5E"/><g opacity="0.05"><circle cx="529.2" cy="743.4" r="1.0" fill="#FFFFFF" opacity="0.37"/><circle cx="311.0" cy="712.9" r="1.8" fill="#FFFFFF" opacity="0.28"/><circle cx="483.7" cy="262.0" r="0.9" fill="#FFFFFF" opacity="0.24"/><circle cx="378.4" cy="611.6" r="0.7" fill="#FFFFFF" opacity="0.49"/><circle cx="1014.6" cy="32.6" r="2.0" fill="#FFFFFF" opacity="0.30"/><circle cx="975.8" cy="785.5" r="1.9" fill="#FFFFFF" opacity="0.32"/><circle cx="298.4" cy="335.5" r="1.8" fill="#FFFFFF" opacity="0.46"/><circle cx="319.6" cy="814.9" r="1.9" fill="#FFFFFF" opacity="0.29"/><circle cx="914.0" cy="241.8" r="1.6" fill="#FFFFFF" opacity="0.41"/><circle cx="77.9" cy="10.5" r="2.0" fill="#FFFFFF" opacity="0.08"/><circle cx="911.6" cy="952.9" r="1.9" fill="#FFFFFF" opacity="0.44"/><circle cx="389.1" cy="114.6" r="0.9" fill="#FFFFFF" opacity="0.36"/><circle cx="386.4" cy="468.0" r="1.4" fill="#FFFFFF" opacity="0.49"/><circle cx="807.8" cy="59.1" r="1.1" fill="#FFFFFF" opacity="0.25"/><circle cx="136.8" cy="882.9" r="1.3" fill="#FFFFFF" opacity="0.00"/><circle cx="369.8" cy="135.7" r="2.0" fill="#FFFFFF" opacity="0.13"/><circle cx="145.2" cy="140.3" r="1.4" fill="#FFFFFF" opacity="0.42"/><circle cx="1293.6" cy="666.4" r="1.4" fill="#FFFFFF" opacity="0.23"/><circle cx="445.5" cy="775.7" r="1.6" fill="#FFFFFF" opacity="0.01"/><circle cx="639.0" cy="216.5" r="0.6" fill="#FFFFFF" opacity="0.23"/><circle cx="756.1" cy="112.6" r="1.3" fill="#FFFFFF" opacity="0.13"/><circle cx="28.3" cy="451.1" r="2.0" fill="#FFFFFF" opacity="0.44"/><circle cx="818.7" cy="384.8" r="1.3" fill="#FFFFFF" opacity="0.44"/><circle cx="738.9" cy="459.0" r="1.6" fill="#FFFFFF" opacity="0.16"/><circle cx="243.6" cy="330.2" r="1.3" fill="#FFFFFF" opacity="0.11"/><circle cx="1459.7" cy="180.6" r="1.2" fill="#FFFFFF" opacity="0.18"/><circle cx="478.0" cy="362.1" r="1.7" fill="#FFFFFF" opacity="0.46"/><circle cx="137.7" cy="96.1" r="0.6" fill="#FFFFFF" opacity="0.10"/><circle cx="348.8" cy="652.3" r="0.9" fill="#FFFFFF" opacity="0.28"/><circle cx="465.6" cy="426.5" r="1.8" fill="#FFFFFF" opacity="0.20"/><circle cx="647.4" cy="404.5" r="0.8" fill="#FFFFFF" opacity="0.34"/><circle cx="1275.5" cy="638.2" r="2.0" fill="#FFFFFF" opacity="0.26"/><circle cx="352.9" cy="668.8" r="1.7" fill="#FFFFFF" opacity="0.28"/><circle cx="148.2" cy="459.9" r="1.1" fill="#FFFFFF" opacity="0.04"/><circle cx="569.7" cy="418.5" r="1.5" fill="#FFFFFF" opacity="0.18"/><circle cx="529.4" cy="282.3" r="0.9" fill="#FFFFFF" opacity="0.48"/><circle cx="268.1" cy="132.2" r="0.9" fill="#FFFFFF" opacity="0.34"/><circle cx="700.9" cy="966.1" r="1.1" fill="#FFFFFF" opacity="0.07"/><circle cx="1272.6" cy="156.1" r="1.6" fill="#FFFFFF" opacity="0.10"/><circle cx="115.7" cy="571.1" r="2.1" fill="#FFFFFF" opacity="0.04"/><circle cx="65.9" cy="666.1" r="0.9" fill="#FFFFFF" opacity="0.03"/><circle cx="453.7" cy="892.6" r="1.1" fill="#FFFFFF" opacity="0.39"/><circle cx="1406.2" cy="759.1" r="0.8" fill="#FFFFFF" opacity="0.45"/><circle cx="560.4" cy="377.5" r="0.7" fill="#FFFFFF" opacity="0.18"/><circle cx="1230.5" cy="971.7" r="0.6" fill="#FFFFFF" opacity="0.35"/><circle cx="241.0" cy="224.7" r="1.6" fill="#FFFFFF" opacity="0.28"/><circle cx="357.5" cy="795.0" r="1.1" fill="#FFFFFF" opacity="0.32"/><circle cx="977.2" cy="145.2" r="2.0" fill="#FFFFFF" opacity="0.28"/><circle cx="1447.9" cy="225.8" r="1.3" fill="#FFFFFF" opacity="0.37"/><circle cx="376.8" cy="499.3" r="1.7" fill="#FFFFFF" opacity="0.43"/><circle cx="778.2" cy="990.0" r="0.9" fill="#FFFFFF" opacity="0.15"/><circle cx="354.0" cy="880.9" r="0.8" fill="#FFFFFF" opacity="0.10"/><circle cx="458.7" cy="648.7" r="1.1" fill="#FFFFFF" opacity="0.37"/><circle cx="199.5" cy="659.7" r="1.7" fill="#FFFFFF" opacity="0.01"/><circle cx="414.5" cy="197.0" r="1.6" fill="#FFFFFF" opacity="0.01"/><circle cx="869.6" cy="546.4" r="0.7" fill="#FFFFFF" opacity="0.35"/><circle cx="545.8" cy="656.3" r="1.0" fill="#FFFFFF" opacity="0.28"/><circle cx="364.8" cy="659.2" r="1.2" fill="#FFFFFF" opacity="0.30"/><circle cx="1486.2" cy="115.0" r="0.6" fill="#FFFFFF" opacity="0.14"/><circle cx="636.8" cy="121.4" r="1.5" fill="#FFFFFF" opacity="0.33"/><circle cx="322.1" cy="342.5" r="1.7" fill="#FFFFFF" opacity="0.34"/><circle cx="98.2" cy="606.6" r="2.0" fill="#FFFFFF" opacity="0.29"/><circle cx="54.2" cy="541.0" r="1.8" fill="#FFFFFF" opacity="0.03"/><circle cx="696.4" cy="925.8" r="1.1" fill="#FFFFFF" opacity="0.33"/><circle cx="1317.2" cy="647.4" r="1.2" fill="#FFFFFF" opacity="0.21"/><circle cx="1357.2" cy="32.8" r="2.0" fill="#FFFFFF" opacity="0.01"/><circle cx="1177.4" cy="132.5" r="1.3" fill="#FFFFFF" opacity="0.35"/><circle cx="149.7" cy="861.0" r="1.7" fill="#FFFFFF" opacity="0.34"/><circle cx="298.7" cy="357.7" r="0.7" fill="#FFFFFF" opacity="0.22"/><circle cx="1419.4" cy="840.5" r="0.7" fill="#FFFFFF" opacity="0.48"/><circle cx="231.4" cy="737.9" r="1.6" fill="#FFFFFF" opacity="0.38"/><circle cx="327.5" cy="548.9" r="2.0" fill="#FFFFFF" opacity="0.45"/><circle cx="116.3" cy="659.9" r="1.8" fill="#FFFFFF" opacity="0.44"/><circle cx="627.9" cy="143.2" r="1.9" fill="#FFFFFF" opacity="0.28"/><circle cx="148.3" cy="431.5" r="1.1" fill="#FFFFFF" opacity="0.10"/><circle cx="1237.7" cy="536.8" r="1.0" fill="#FFFFFF" opacity="0.47"/><circle cx="1064.0" cy="770.2" r="1.2" fill="#FFFFFF" opacity="0.25"/><circle cx="69.5" cy="291.6" r="1.5" fill="#FFFFFF" opacity="0.23"/><circle cx="619.9" cy="915.4" r="1.7" fill="#FFFFFF" opacity="0.42"/><circle cx="1237.6" cy="8.3" r="0.6" fill="#FFFFFF" opacity="0.32"/><circle cx="371.0" cy="328.4" r="1.3" fill="#FFFFFF" opacity="0.40"/><circle cx="18.1" cy="780.1" r="1.2" fill="#FFFFFF" opacity="0.38"/><circle cx="582.0" cy="609.7" r="0.8" fill="#FFFFFF" opacity="0.36"/><circle cx="215.5" cy="670.9" r="2.0" fill="#FFFFFF" opacity="0.21"/><circle cx="440.7" cy="463.0" r="1.5" fill="#FFFFFF" opacity="0.30"/><circle cx="1327.4" cy="387.3" r="1.7" fill="#FFFFFF" opacity="0.27"/><circle cx="868.5" cy="349.8" r="1.4" fill="#FFFFFF" opacity="0.32"/><circle cx="177.9" cy="93.2" r="1.9" fill="#FFFFFF" opacity="0.06"/><circle cx="1345.3" cy="151.2" r="1.5" fill="#FFFFFF" opacity="0.24"/><circle cx="1093.8" cy="353.6" r="0.6" fill="#FFFFFF" opacity="0.01"/><circle cx="166.3" cy="585.8" r="2.0" fill="#FFFFFF" opacity="0.50"/><circle cx="41.4" cy="1.0" r="1.4" fill="#FFFFFF" opacity="0.42"/><circle cx="711.8" cy="810.2" r="2.1" fill="#FFFFFF" opacity="0.34"/><circle cx="292.4" cy="149.6" r="0.8" fill="#FFFFFF" opacity="0.37"/><circle cx="946.8" cy="819.7" r="0.7" fill="#FFFFFF" opacity="0.13"/><circle cx="828.7" cy="447.4" r="1.4" fill="#FFFFFF" opacity="0.04"/><circle cx="1184.9" cy="634.0" r="1.7" fill="#FFFFFF" opacity="0.35"/><circle cx="956.6" cy="278.2" r="0.9" fill="#FFFFFF" opacity="0.24"/><circle cx="703.2" cy="664.0" r="1.3" fill="#FFFFFF" opacity="0.34"/><circle cx="757.0" cy="462.3" r="1.2" fill="#FFFFFF" opacity="0.11"/><circle cx="330.6" cy="793.7" r="2.1" fill="#FFFFFF" opacity="0.49"/><circle cx="436.0" cy="509.3" r="1.1" fill="#FFFFFF" opacity="0.50"/><circle cx="172.8" cy="744.0" r="1.9" fill="#FFFFFF" opacity="0.14"/><circle cx="786.1" cy="590.3" r="1.0" fill="#FFFFFF" opacity="0.27"/><circle cx="357.4" cy="535.0" r="2.1" fill="#FFFFFF" opacity="0.45"/><circle cx="595.9" cy="375.3" r="2.0" fill="#FFFFFF" opacity="0.17"/><circle cx="722.6" cy="110.0" r="1.5" fill="#FFFFFF" opacity="0.11"/><circle cx="408.0" cy="510.8" r="0.7" fill="#FFFFFF" opacity="0.32"/><circle cx="835.8" cy="97.8" r="1.4" fill="#FFFFFF" opacity="0.19"/><circle cx="930.7" cy="856.9" r="1.2" fill="#FFFFFF" opacity="0.33"/><circle cx="1227.5" cy="775.9" r="1.0" fill="#FFFFFF" opacity="0.42"/><circle cx="698.6" cy="852.2" r="1.1" fill="#FFFFFF" opacity="0.19"/><circle cx="1349.1" cy="762.2" r="0.9" fill="#FFFFFF" opacity="0.18"/><circle cx="878.6" cy="692.1" r="1.4" fill="#FFFFFF" opacity="0.18"/><circle cx="413.1" cy="703.6" r="1.0" fill="#FFFFFF" opacity="0.21"/><circle cx="667.8" cy="787.1" r="1.4" fill="#FFFFFF" opacity="0.10"/><circle cx="85.8" cy="170.4" r="1.3" fill="#FFFFFF" opacity="0.03"/><circle cx="1111.3" cy="909.3" r="1.7" fill="#FFFFFF" opacity="0.19"/><circle cx="480.8" cy="378.0" r="1.3" fill="#FFFFFF" opacity="0.42"/><circle cx="152.1" cy="666.9" r="0.7" fill="#FFFFFF" opacity="0.45"/><circle cx="717.7" cy="606.4" r="1.5" fill="#FFFFFF" opacity="0.20"/><circle cx="1357.3" cy="347.1" r="1.3" fill="#FFFFFF" opacity="0.22"/><circle cx="1108.1" cy="15.1" r="1.1" fill="#FFFFFF" opacity="0.35"/><circle cx="663.2" cy="776.0" r="0.7" fill="#FFFFFF" opacity="0.14"/><circle cx="840.2" cy="969.6" r="1.3" fill="#FFFFFF" opacity="0.34"/><circle cx="910.7" cy="781.7" r="0.6" fill="#FFFFFF" opacity="0.01"/><circle cx="381.5" cy="221.9" r="1.5" fill="#FFFFFF" opacity="0.42"/><circle cx="349.5" cy="340.2" r="0.9" fill="#FFFFFF" opacity="0.12"/><circle cx="1027.9" cy="491.7" r="1.2" fill="#FFFFFF" opacity="0.36"/><circle cx="407.7" cy="401.2" r="1.0" fill="#FFFFFF" opacity="0.29"/><circle cx="1167.3" cy="718.5" r="1.9" fill="#FFFFFF" opacity="0.46"/><circle cx="992.8" cy="387.0" r="0.8" fill="#FFFFFF" opacity="0.18"/><circle cx="528.8" cy="499.1" r="1.6" fill="#FFFFFF" opacity="0.26"/><circle cx="324.0" cy="543.4" r="1.9" fill="#FFFFFF" opacity="0.19"/><circle cx="717.3" cy="813.3" r="0.7" fill="#FFFFFF" opacity="0.25"/><circle cx="496.7" cy="966.8" r="1.4" fill="#FFFFFF" opacity="0.31"/><circle cx="867.8" cy="910.8" r="0.8" fill="#FFFFFF" opacity="0.39"/><circle cx="1164.7" cy="997.0" r="1.5" fill="#FFFFFF" opacity="0.32"/><circle cx="1467.3" cy="703.8" r="2.0" fill="#FFFFFF" opacity="0.21"/><circle cx="205.1" cy="868.8" r="0.7" fill="#FFFFFF" opacity="0.15"/><circle cx="877.8" cy="544.4" r="1.6" fill="#FFFFFF" opacity="0.04"/><circle cx="23.3" cy="501.0" r="1.3" fill="#FFFFFF" opacity="0.12"/><circle cx="1422.2" cy="976.0" r="1.3" fill="#FFFFFF" opacity="0.11"/><circle cx="735.9" cy="645.8" r="1.7" fill="#FFFFFF" opacity="0.38"/><circle cx="788.7" cy="797.1" r="1.8" fill="#FFFFFF" opacity="0.30"/><circle cx="101.2" cy="17.9" r="1.1" fill="#FFFFFF" opacity="0.46"/><circle cx="1063.2" cy="493.3" r="1.8" fill="#FFFFFF" opacity="0.21"/><circle cx="1368.1" cy="121.3" r="1.9" fill="#FFFFFF" opacity="0.05"/><circle cx="1391.7" cy="86.9" r="1.5" fill="#FFFFFF" opacity="0.13"/><circle cx="293.8" cy="122.4" r="0.9" fill="#FFFFFF" opacity="0.09"/><circle cx="1431.9" cy="877.8" r="1.4" fill="#FFFFFF" opacity="0.39"/><circle cx="943.6" cy="110.4" r="1.5" fill="#FFFFFF" opacity="0.49"/><circle cx="1108.8" cy="998.1" r="0.8" fill="#FFFFFF" opacity="0.37"/><circle cx="95.9" cy="766.8" r="1.3" fill="#FFFFFF" opacity="0.48"/><circle cx="103.4" cy="677.3" r="1.5" fill="#FFFFFF" opacity="0.23"/><circle cx="723.9" cy="733.3" r="1.8" fill="#FFFFFF" opacity="0.48"/><circle cx="557.7" cy="384.6" r="1.1" fill="#FFFFFF" opacity="0.28"/><circle cx="1043.4" cy="554.5" r="1.6" fill="#FFFFFF" opacity="0.39"/><circle cx="1417.1" cy="685.8" r="1.5" fill="#FFFFFF" opacity="0.47"/><circle cx="5.7" cy="625.4" r="1.0" fill="#FFFFFF" opacity="0.02"/><circle cx="1466.6" cy="822.5" r="1.4" fill="#FFFFFF" opacity="0.06"/><circle cx="1051.3" cy="102.8" r="0.9" fill="#FFFFFF" opacity="0.41"/><circle cx="1112.2" cy="190.0" r="0.7" fill="#FFFFFF" opacity="0.41"/><circle cx="883.9" cy="837.9" r="0.8" fill="#FFFFFF" opacity="0.02"/><circle cx="184.3" cy="801.7" r="1.4" fill="#FFFFFF" opacity="0.45"/><circle cx="835.1" cy="277.7" r="1.3" fill="#FFFFFF" opacity="0.15"/><circle cx="1230.2" cy="167.3" r="1.7" fill="#FFFFFF" opacity="0.07"/><circle cx="1322.1" cy="958.3" r="1.1" fill="#FFFFFF" opacity="0.30"/><circle cx="1384.4" cy="445.6" r="1.1" fill="#FFFFFF" opacity="0.23"/><circle cx="185.5" cy="75.9" r="1.6" fill="#FFFFFF" opacity="0.41"/><circle cx="626.0" cy="489.7" r="0.9" fill="#FFFFFF" opacity="0.44"/><circle cx="1315.3" cy="987.9" r="0.8" fill="#FFFFFF" opacity="0.50"/><circle cx="314.6" cy="241.4" r="1.5" fill="#FFFFFF" opacity="0.43"/><circle cx="1380.1" cy="202.5" r="1.2" fill="#FFFFFF" opacity="0.29"/><circle cx="94.1" cy="624.3" r="2.0" fill="#FFFFFF" opacity="0.10"/><circle cx="1194.3" cy="588.9" r="1.9" fill="#FFFFFF" opacity="0.22"/><circle cx="438.1" cy="425.7" r="1.1" fill="#FFFFFF" opacity="0.44"/><circle cx="768.6" cy="958.9" r="1.1" fill="#FFFFFF" opacity="0.49"/><circle cx="319.8" cy="443.7" r="2.0" fill="#FFFFFF" opacity="0.39"/><circle cx="652.5" cy="588.6" r="1.6" fill="#FFFFFF" opacity="0.42"/><circle cx="570.2" cy="161.7" r="1.1" fill="#FFFFFF" opacity="0.28"/><circle cx="682.2" cy="799.0" r="1.7" fill="#FFFFFF" opacity="0.45"/><circle cx="532.5" cy="734.7" r="1.0" fill="#FFFFFF" opacity="0.39"/><circle cx="565.3" cy="243.1" r="1.9" fill="#FFFFFF" opacity="0.20"/><circle cx="389.7" cy="936.0" r="1.7" fill="#FFFFFF" opacity="0.46"/><circle cx="173.1" cy="558.8" r="1.4" fill="#FFFFFF" opacity="0.18"/><circle cx="384.0" cy="565.0" r="0.9" fill="#FFFFFF" opacity="0.43"/><circle cx="1381.6" cy="941.5" r="1.1" fill="#FFFFFF" opacity="0.08"/><circle cx="361.5" cy="933.5" r="1.4" fill="#FFFFFF" opacity="0.30"/><circle cx="767.6" cy="21.4" r="0.9" fill="#FFFFFF" opacity="0.13"/></g><g font-family="ui-monospace, 'Cascadia Mono', Consolas, monospace" opacity="0.9">
    <rect x="1229.3" y="916.0" width="237.7" height="51.0" rx="25.5" fill="rgba(250,248,244,0.72)"/>
    <text x="1348.1" y="950.7" text-anchor="middle" fill="#2A302C" font-size="25.5" letter-spacing="1.5">PROGRESS-04</text>
  </g></svg>